<?xml version="1.0" encoding="UTF-8"?>
<svg xmlns="http://www.w3.org/2000/svg" xmlns:xlink="http://www.w3.org/1999/xlink" viewBox="0 0 70 70">
  <defs>
    <style>
      .cls-1 {
        fill: #b24a28;
      }

      .cls-2 {
        fill: url(#linear-gradient-2);
      }

      .cls-3 {
        fill: #fff;
      }

      .cls-4 {
        fill: url(#linear-gradient-17);
      }

      .cls-5 {
        fill: url(#linear-gradient);
      }

      .cls-5, .cls-6, .cls-7 {
        mix-blend-mode: multiply;
      }

      .cls-8 {
        fill: url(#linear-gradient-15);
      }

      .cls-9 {
        fill: url(#linear-gradient-18);
      }

      .cls-10 {
        fill: url(#linear-gradient-14);
      }

      .cls-11 {
        fill: url(#linear-gradient-20);
      }

      .cls-12 {
        fill: url(#linear-gradient-6);
      }

      .cls-13 {
        isolation: isolate;
      }

      .cls-14 {
        fill: url(#radial-gradient-2);
        mix-blend-mode: screen;
        opacity: .9;
      }

      .cls-15 {
        fill: url(#linear-gradient-11);
      }

      .cls-16 {
        fill: #f07722;
      }

      .cls-6 {
        fill: url(#radial-gradient);
      }

      .cls-17 {
        fill: url(#linear-gradient-10);
      }

      .cls-18 {
        fill: url(#linear-gradient-16);
      }

      .cls-19 {
        fill: url(#linear-gradient-21);
      }

      .cls-20 {
        fill: url(#linear-gradient-25);
      }

      .cls-21 {
        fill: url(#linear-gradient-5);
      }

      .cls-22 {
        fill: url(#linear-gradient-7);
      }

      .cls-7 {
        opacity: .6;
      }

      .cls-23 {
        fill: url(#linear-gradient-24);
      }

      .cls-24 {
        fill: url(#linear-gradient-9);
      }

      .cls-25 {
        fill: url(#linear-gradient-22);
      }

      .cls-26 {
        mask: url(#mask-1);
      }

      .cls-27 {
        mask: url(#mask);
      }

      .cls-28 {
        fill: url(#linear-gradient-3);
      }

      .cls-29 {
        fill: url(#linear-gradient-23);
      }

      .cls-30 {
        fill: url(#linear-gradient-19);
      }

      .cls-31 {
        fill: url(#linear-gradient-4);
      }

      .cls-32 {
        fill: url(#linear-gradient-8);
      }

      .cls-33 {
        fill: url(#linear-gradient-12);
      }

      .cls-34 {
        fill: url(#linear-gradient-13);
      }
    </style>
    <filter id="luminosity-noclip" x="1.99" y="-8153.38" width="49.33" height="32766" color-interpolation-filters="sRGB" filterUnits="userSpaceOnUse">
      <feFlood flood-color="#fff" result="bg"/>
      <feBlend in="SourceGraphic" in2="bg"/>
    </filter>
    <mask id="mask-1" x="1.99" y="-8153.38" width="49.33" height="32766" maskUnits="userSpaceOnUse"/>
    <radialGradient id="radial-gradient" cx="37.32" cy="37.76" fx="37.32" fy="37.76" r="57.35" gradientUnits="userSpaceOnUse">
      <stop offset=".59" stop-color="#000"/>
      <stop offset=".72" stop-color="#848484"/>
      <stop offset=".84" stop-color="#fff"/>
    </radialGradient>
    <mask id="mask" x="1.99" y="1.93" width="49.33" height="41.67" maskUnits="userSpaceOnUse">
      <g class="cls-26">
        <path class="cls-6" d="m1.99,43.6V1.93h49.33S1.99,1.76,1.99,43.6Z"/>
      </g>
    </mask>
    <radialGradient id="radial-gradient-2" cx="37.32" cy="37.76" fx="37.32" fy="37.76" r="57.35" gradientUnits="userSpaceOnUse">
      <stop offset=".59" stop-color="#cecece"/>
      <stop offset=".84" stop-color="#fff"/>
    </radialGradient>
    <linearGradient id="linear-gradient" x1="16.96" y1="17.91" x2="68.42" y2="69.37" gradientUnits="userSpaceOnUse">
      <stop offset="0" stop-color="#6b6b6b"/>
      <stop offset=".54" stop-color="#c2c2c2"/>
      <stop offset=".56" stop-color="#c6c6c6"/>
      <stop offset=".74" stop-color="#e5e5e5"/>
      <stop offset=".89" stop-color="#f8f8f8"/>
      <stop offset="1" stop-color="#fff"/>
    </linearGradient>
    <linearGradient id="linear-gradient-2" x1="25.35" y1="38.78" x2="52.4" y2="38.78" gradientUnits="userSpaceOnUse">
      <stop offset="0" stop-color="#7e7e7e"/>
      <stop offset="1" stop-color="#cecece"/>
    </linearGradient>
    <linearGradient id="linear-gradient-3" x1="37.83" y1="38.43" x2="47.14" y2="38.43" xlink:href="#linear-gradient-2"/>
    <linearGradient id="linear-gradient-4" x1="32.61" y1="29.19" x2="32.65" y2="29.19" xlink:href="#linear-gradient-2"/>
    <linearGradient id="linear-gradient-5" x1="26.79" y1="29.02" x2="45.16" y2="29.02" xlink:href="#linear-gradient-2"/>
    <linearGradient id="linear-gradient-6" x1="36.28" y1="41.97" x2="37.55" y2="41.97" xlink:href="#linear-gradient-2"/>
    <linearGradient id="linear-gradient-7" x1="26.26" y1="45.34" x2="51.3" y2="45.34" xlink:href="#linear-gradient-2"/>
    <linearGradient id="linear-gradient-8" x1="25.91" y1="39.28" x2="52.97" y2="39.28" xlink:href="#linear-gradient-2"/>
    <linearGradient id="linear-gradient-9" x1="38.4" y1="38.93" x2="47.71" y2="38.93" xlink:href="#linear-gradient-2"/>
    <linearGradient id="linear-gradient-10" x1="33.17" y1="29.69" x2="33.21" y2="29.69" xlink:href="#linear-gradient-2"/>
    <linearGradient id="linear-gradient-11" x1="27.35" y1="29.52" x2="45.72" y2="29.52" xlink:href="#linear-gradient-2"/>
    <linearGradient id="linear-gradient-12" x1="36.84" y1="42.47" x2="38.11" y2="42.47" xlink:href="#linear-gradient-2"/>
    <linearGradient id="linear-gradient-13" x1="26.82" y1="45.84" x2="51.86" y2="45.84" xlink:href="#linear-gradient-2"/>
    <linearGradient id="linear-gradient-14" x1="26.48" y1="39.78" x2="53.53" y2="39.78" xlink:href="#linear-gradient-2"/>
    <linearGradient id="linear-gradient-15" x1="38.96" y1="39.43" x2="48.27" y2="39.43" xlink:href="#linear-gradient-2"/>
    <linearGradient id="linear-gradient-16" x1="33.73" y1="30.19" x2="33.78" y2="30.19" xlink:href="#linear-gradient-2"/>
    <linearGradient id="linear-gradient-17" x1="27.91" y1="30.02" x2="46.28" y2="30.02" xlink:href="#linear-gradient-2"/>
    <linearGradient id="linear-gradient-18" x1="37.4" y1="42.97" x2="38.68" y2="42.97" xlink:href="#linear-gradient-2"/>
    <linearGradient id="linear-gradient-19" x1="27.38" y1="46.34" x2="52.42" y2="46.34" xlink:href="#linear-gradient-2"/>
    <linearGradient id="linear-gradient-20" x1="27.04" y1="40.28" x2="54.09" y2="40.28" xlink:href="#linear-gradient-2"/>
    <linearGradient id="linear-gradient-21" x1="39.52" y1="39.93" x2="48.83" y2="39.93" xlink:href="#linear-gradient-2"/>
    <linearGradient id="linear-gradient-22" x1="34.3" y1="30.69" x2="34.34" y2="30.69" xlink:href="#linear-gradient-2"/>
    <linearGradient id="linear-gradient-23" x1="28.47" y1="30.52" x2="46.85" y2="30.52" xlink:href="#linear-gradient-2"/>
    <linearGradient id="linear-gradient-24" x1="37.96" y1="43.47" x2="39.24" y2="43.47" xlink:href="#linear-gradient-2"/>
    <linearGradient id="linear-gradient-25" x1="27.95" y1="46.84" x2="52.99" y2="46.84" xlink:href="#linear-gradient-2"/>
  </defs>
  <g class="cls-13">
    <g id="Calque_2" data-name="Calque 2">
      <g id="Layer_1" data-name="Layer 1">
        <g>
          <g>
            <rect class="cls-16" x=".5" y=".5" width="69" height="69"/>
            <g class="cls-27">
              <path class="cls-14" d="m1.99,43.6V1.93h49.33S1.99,1.76,1.99,43.6Z"/>
            </g>
          </g>
          <path class="cls-1" d="m70,70H0V0h70v70Zm-69-1h68V1H1v68Z"/>
        </g>
        <g>
          <path class="cls-5" d="m44.89,16.51c-.77-.18-1.81-.24-3.01.22-2.53.97-5.47,10.16-7,13.84-1.53,3.69-2.12,1.59-2.38.75-.25-.84.09-10.42-.22-12.67s-.81-3.48-2.58-3.25c-1.77.23-2.83,2.02-3.1,3.85-.27,1.83.17,5.15.29,6.42.12,1.27.23,7.06.27,9.06s-.56,4.72-.89,5.85-1.2,2.67-1.22,4.02c-.02,1.34.2,2.52,1.02,4.2s2.68,3.45,2.68,3.45c-1.08-.1-2.83.25-3.21,1.08-.38.83.65,3.23,1.19,4.08.02.02.03.05.03.07l11.91,11.97h30.6v-29.11l-24.38-23.86Z"/>
          <g>
            <g class="cls-7">
              <path class="cls-2" d="m51.96,37.64c-.38-.93-1.07-1.64-2.23-1.57-.62.04-1.41.36-1.99.75.23-.64.35-1.36.34-1.92-.02-1.04-.42-1.62-1.19-2.29-.73-.63-2.04-.6-2.92-.49-1.01.12-1.94.73-2.67,1.42-.04,0-.07.01-.11.02-.1.02-.19-.03-.19-.14,0-.03,0-.05,0-.08,0-.02,0-.05,0-.08,0-.02,0-.03.01-.05.03-.32.12-.64.25-.94.03-.4.25-.76.48-1.1-.01,0-.02,0-.03,0,.56-1.47,1.36-2.92,1.92-4.28.79-1.9,1.62-3.82,2.29-5.76.68-2,.63-4.9-2.34-4.54-3.22.39-4.15,3.69-5.06,6.05-.81,2.09-1.65,4.16-2.5,6.23-.4.99-.82,1.96-1.29,2.92-.08.33-.24.58-.48.76-.06.16-.12.33-.19.49-1.35-1.34-.77-5.96-.76-7.31.02-2.33.12-4.65-.09-6.98-.25-2.89-1.88-4.24-4.4-2.53-3.13,2.12-1.68,7.55-1.51,10.62.14,2.42.15,4.82.06,7.24-.1,2.53.04,5.74-1.06,8.12-.47.6-.81,1.28-.9,2.11-.21,1.91.21,3.76,1.17,5.46.51.91,1.35,2.04,2.36,2.8-.38-.07-.78-.1-1.16-.15-.56.25-1.39.37-1.74.91-.09.14-.16.29-.22.43-.19.91.07,1.95.41,2.75,1.04,2.49,4.87,3.93,7.2,4.7,2.61.87,6.53,1.32,9.16.16.41-.26.77-.59,1.04-.99.87-1.3,1.16-3.04-.06-4.22-.08-.01-.16-.02-.25-.02-.21,0-.16-.31,0-.37,1.06-.47,1.98-1.07,2.83-1.77,1.58-1.45,2.88-3.35,3.81-5.13.7-1.33,1.36-2.7,1.81-4.14.44-1.41.64-2.99.65-4.47,0-.79-.1-1.8-.44-2.63Zm-.56,4.9c-.2,2.44-1.38,4.59-2.56,6.67-.39.69-.83,1.33-1.29,1.94-.48.74-1.08,1.41-1.79,1.99-1.72,1.83-3.96,3.32-6.41,3.76-.22.07-.45.13-.71.16-1.15.17-2.25-.09-3.35-.37-.42-.11-.88-.24-1.35-.39-.31-.11-.62-.23-.94-.34-1.19-.48-2.35-1.14-3.05-2.05-.11-.22-.18-.46-.22-.73.05.01.1.03.16.04.23.08.46.14.7.2-.95-.73-1.89-1.46-2.6-2.47-.35-.5-.63-1.01-.88-1.54,0,0-.01-.02-.02-.03-1.08-1.63-1.42-3.78-1.01-5.63.04-.19.12-.38.21-.57.27-1.1.75-2.12,1.07-3.31.59-2.44.53-5.19.62-7.51.16-4.39-1.04-8.88-.46-13.24.18-1.38,3.3-4.79,4.58-1.77.4.94.41,2.09.46,3.09.12,2.07.02,4.15.03,6.22.01,1.91.04,3.86.15,5.78.14.34.3.65.55.85.1.08.2.14.3.2.34-.05.67-.23.95-.46,1-1.29,1.53-3.13,2.14-4.6.88-2.1,1.75-4.21,2.59-6.33.77-1.94,1.38-3.81,3.56-4.7,1.64-.67,2.6.19,2.78,1.72.17,1.42-.86,3.09-1.38,4.38-.77,1.93-1.51,3.88-2.31,5.8-.58,1.4-1.31,2.8-1.46,4.31,0,0,0,0,0,.01.14.2.32.37.53.51.4-.4.86-.75,1.36-.98.2-.11.39-.21.61-.29,1.02-.4,1.95-.34,3-.1.92.21,1.41,1.14,1.49,2.02.22,1.04-.02,2.11-.37,3.16.02-.01.05-.02.07-.04.01-.02.02-.04.04-.05.3-.23.63-.42.99-.59.64-.31,1.22-.37,1.82-.26,1.71.72,1.51,4.11,1.4,5.53Z"/>
              <g>
                <path class="cls-28" d="m45.79,32.85c-1.23-.44-2.65-.12-3.73.56.25-.04.5-.07.75-.09.51.23.74.86.65,1.43-.22,1.36-.87,2.54-1.79,3.58-.07.05-.15.1-.22.16-.6.38-1.22.74-1.57,1.35-.33.21-.66.4-1,.56-.12.06-.37.13-.67.22-.87,1.27-.25,4.49,1.9,3.36,1.28-.67,1.88-1.63,2.85-2.63.58-.6,1.23-1.16,1.81-1.76.24-.34.5-.67.72-1.02.25-.38.52-.95.94-1.16.07-.04.13.04.09.1-.13.26-.29.51-.44.76.28-.25.57-.49.85-.74.05-.19.11-.38.16-.57.05-1.39.32-3.53-1.31-4.11Z"/>
                <path class="cls-31" d="m32.62,28.39c-.02.54-.01,1.08.03,1.6-.02-.54-.03-1.07-.03-1.6Z"/>
                <path class="cls-21" d="m45.14,19.09c-.09-.66-.35-1.1-.64-1.57-.41-.2-.92-.25-1.45-.16-.06.02-.12.04-.19.06-2.18.89-2.79,2.75-3.56,4.7-.84,2.12-1.71,4.22-2.59,6.33-.62,1.48-1.15,3.36-2.18,4.65-.06.07-.11.13-.16.19.17.09.36.14.57.15.2,0,.24.15.2.3-.61.13-1.22.04-1.82-.43-.01,0-.02-.02-.04-.04-1.07-.49-1.06-2.16-1.1-3.16-.11-2.42-.19-4.82-.07-7.24.04-.86.2-2.61-.02-4.08-.03-.2-.07-.39-.11-.59-.3-1.23-.95-2.1-2.32-1.74,0,0-.01,0-.02,0-1.06.6-2.01,1.93-2.11,2.68-.58,4.36.62,8.85.46,13.24-.11,2.91.01,6.5-1.2,9.3.08-.08.16-.16.25-.24.05-.06.11-.12.16-.18.02-.02.04-.03.06-.04.12-.13.37-.35.48-.41.48-.4.97-.78,1.44-1.18.09-.08.18-.16.27-.23h0c.28-.2.54-.41.78-.66.01-.01.02-.03.03-.05.77-.68,1.52-1.38,2.22-2.13.51-.55,1.09-1.25,1.8-1.59,1.34-.65,2.57-.35,4-.61.7-.13,1.36-.34,2.03-.56-.28-.46-.07-1.2.09-1.67.28-.87.64-1.72,1.02-2.56.38-1.08.83-2.14,1.28-3.19.62-1.43,1.29-2.85,1.8-4.32.3-.86.78-2.04.66-2.97Z"/>
                <path class="cls-12" d="m36.33,41.83c.02.09,0,.18-.06.26.33.33.65.67.95,1.02-.14-.8-.05-1.66.32-2.27-.67.24-1.31.57-1.22.99Z"/>
                <path class="cls-22" d="m49.64,36.97c-.47-.03-.94.05-1.45.3-.36.17-.68.36-.99.59-.01.02-.02.04-.04.05-.03.04-.07.06-.11.07-.04.04-.09.07-.13.11-.09.08-.19.2-.3.31-.05.08-.32.34-.4.32-.34.44-.76.85-1.17,1.26-1.04,1.02-1.92,2.22-2.95,3.24-.15.18-.29.35-.42.54-.31.45-.89,1.25-.65,1.84.31.76,1.27,1.03,2.01.85.34-.08.66-.2.96-.35,0,0-.02-.02-.03-.03.68-.11,1.43-.81,1.89-1.14.82-.58,1.59-1.23,2.44-1.75-.61.61-1.21,1.27-1.84,1.88,1.4-.3,2.8-1.32,3.63-2.39.08-.1.2,0,.13.1-.5.72-1.09,1.3-1.85,1.75-.67.39-1.58.94-2.39.91-.54.37-1.07.75-1.58,1.17-1.02.5-2.53.95-3.43.06-.7-.69-.65-1.49-.29-2.27-.3.2-.61.39-.95.54-.44.2-.83.22-1.17.12.09.16.17.33.25.51.97,2.13.66,4.04.27,6.26-.04.24-.45.25-.4-.03.46-2.61.08-5.21-1.53-7.46-.44-.61-1-1.11-1.52-1.63.09-.72.32-1.4.68-2.03,1.6-.64,3.24-1.08,4.48-2.29.03-.05.06-.1.09-.15.02-.03.06-.04.08-.03.02-.03.05-.05.07-.07.73-.81,3.33-4.98-.44-3.76-.75.24-1.54.55-2.34.61-.86.07-1.94-.04-2.75.17-1.89.48-3.15,2.37-4.5,3.59-1.14,1.03-3.08,2.22-4.18,3.59-.08.15-.16.3-.22.46-.07.18-.13.37-.18.55-.36,1.38-.18,3.02.2,4.26.38,1.26.95,2.56,1.82,3.59,1.39,1.37,3.1,2.05,5.29,1.8.29-.03.14.44-.1.46-.46.05-.9.06-1.32.03-.43.16-1.1.04-.97.1-.41-.07-.82-.17-1.22-.29.48.57,1.08,1.11,1.74,1.6.65.38,1.35.68,2.05.92.04-.01.08-.02.12,0,1.3.39,2.67.77,4.04.7.56-.03,1.19,0,1.76-.1-.54-.06-1.1-.18-1.67-.39-.1-.04-.02-.18.06-.17,2.51.16,4.69-.59,6.52-1.92,1.12-.96,2.09-2.23,2.84-3.29,1.05-1.5,1.99-3.06,2.61-4.79,1.01-2.78,2.02-6.68-.59-8.89Z"/>
              </g>
            </g>
            <g class="cls-7">
              <path class="cls-32" d="m52.52,38.14c-.38-.93-1.07-1.64-2.23-1.57-.62.04-1.41.36-1.99.75.23-.64.35-1.36.34-1.92-.02-1.04-.42-1.62-1.19-2.29-.73-.63-2.04-.6-2.92-.49-1.01.12-1.94.73-2.67,1.42-.04,0-.07.01-.11.02-.1.02-.19-.03-.19-.14,0-.03,0-.05,0-.08,0-.02,0-.05,0-.08,0-.02,0-.03.01-.05.03-.32.12-.64.25-.94.03-.4.25-.76.48-1.1-.01,0-.02,0-.03,0,.56-1.47,1.36-2.92,1.92-4.28.79-1.9,1.62-3.82,2.29-5.76.68-2,.63-4.9-2.34-4.54-3.22.39-4.15,3.69-5.06,6.05-.81,2.09-1.65,4.16-2.5,6.23-.4.99-.82,1.96-1.29,2.92-.08.33-.24.58-.48.76-.06.16-.12.33-.19.49-1.35-1.34-.77-5.96-.76-7.31.02-2.33.12-4.65-.09-6.98-.25-2.89-1.88-4.24-4.4-2.53-3.13,2.12-1.68,7.55-1.51,10.62.14,2.42.15,4.82.06,7.24-.1,2.53.04,5.74-1.06,8.12-.47.6-.81,1.28-.9,2.11-.21,1.91.21,3.76,1.17,5.46.51.91,1.35,2.04,2.36,2.8-.38-.07-.78-.1-1.16-.15-.56.25-1.39.37-1.74.91-.09.14-.16.29-.22.43-.19.91.07,1.95.41,2.75,1.04,2.49,4.87,3.93,7.2,4.7,2.61.87,6.53,1.32,9.16.16.41-.26.77-.59,1.04-.99.87-1.3,1.16-3.04-.06-4.22-.08-.01-.16-.02-.25-.02-.21,0-.16-.31,0-.37,1.06-.47,1.98-1.07,2.83-1.77,1.58-1.45,2.88-3.35,3.81-5.13.7-1.33,1.36-2.7,1.81-4.14.44-1.41.64-2.99.65-4.47,0-.79-.1-1.8-.44-2.63Zm-.56,4.9c-.2,2.44-1.38,4.59-2.56,6.67-.39.69-.83,1.33-1.29,1.94-.48.74-1.08,1.41-1.79,1.99-1.72,1.83-3.96,3.32-6.41,3.76-.22.07-.45.13-.71.16-1.15.17-2.25-.09-3.35-.37-.42-.11-.88-.24-1.35-.39-.31-.11-.62-.23-.94-.34-1.19-.48-2.35-1.14-3.05-2.05-.11-.22-.18-.46-.22-.73.05.01.1.03.16.04.23.08.46.14.7.2-.95-.73-1.89-1.46-2.6-2.47-.35-.5-.63-1.01-.88-1.54,0,0-.01-.02-.02-.03-1.08-1.63-1.42-3.78-1.01-5.63.04-.19.12-.38.21-.57.27-1.1.75-2.12,1.07-3.31.59-2.44.53-5.19.62-7.51.16-4.39-1.04-8.88-.46-13.24.18-1.38,3.3-4.79,4.58-1.77.4.94.41,2.09.46,3.09.12,2.07.02,4.15.03,6.22.01,1.91.04,3.86.15,5.78.14.34.3.65.55.85.1.08.2.14.3.2.34-.05.67-.23.95-.46,1-1.29,1.53-3.13,2.14-4.6.88-2.1,1.75-4.21,2.59-6.33.77-1.94,1.38-3.81,3.56-4.7,1.64-.67,2.6.19,2.78,1.72.17,1.42-.86,3.09-1.38,4.38-.77,1.93-1.51,3.88-2.31,5.8-.58,1.4-1.31,2.8-1.46,4.31,0,0,0,0,0,.01.14.2.32.37.53.51.4-.4.86-.75,1.36-.98.2-.11.39-.21.61-.29,1.02-.4,1.95-.34,3-.1.92.21,1.41,1.14,1.49,2.02.22,1.04-.02,2.11-.37,3.16.02-.01.05-.02.07-.04.01-.02.02-.04.04-.05.3-.23.63-.42.99-.59.64-.31,1.22-.37,1.82-.26,1.71.72,1.51,4.11,1.4,5.53Z"/>
              <g>
                <path class="cls-24" d="m46.35,33.35c-1.23-.44-2.65-.12-3.73.56.25-.04.5-.07.76-.09.51.23.74.86.65,1.43-.22,1.36-.87,2.54-1.79,3.58-.07.05-.15.1-.22.16-.6.38-1.22.74-1.57,1.35-.33.21-.66.4-1,.56-.12.06-.37.13-.67.22-.87,1.27-.25,4.49,1.9,3.36,1.28-.67,1.88-1.63,2.85-2.63.58-.6,1.23-1.16,1.81-1.76.24-.34.5-.67.72-1.02.25-.38.52-.95.94-1.16.07-.04.13.04.09.1-.13.26-.29.51-.44.76.28-.25.57-.49.85-.74.05-.19.11-.38.16-.57.05-1.39.32-3.53-1.31-4.11Z"/>
                <path class="cls-17" d="m33.18,28.89c-.02.54-.01,1.08.03,1.6-.02-.54-.03-1.07-.03-1.6Z"/>
                <path class="cls-15" d="m45.7,19.59c-.09-.66-.35-1.1-.64-1.57-.41-.2-.92-.25-1.45-.16-.06.02-.12.04-.19.06-2.18.89-2.79,2.75-3.56,4.7-.84,2.12-1.71,4.22-2.59,6.33-.62,1.48-1.15,3.36-2.18,4.65-.06.07-.11.13-.16.19.17.09.36.14.57.15.2,0,.24.15.2.3-.61.13-1.22.04-1.82-.43-.01,0-.02-.02-.04-.04-1.07-.49-1.06-2.16-1.1-3.16-.11-2.42-.19-4.82-.07-7.24.04-.86.2-2.61-.02-4.08-.03-.2-.07-.39-.11-.59-.3-1.23-.95-2.1-2.32-1.74,0,0-.01,0-.02,0-1.06.6-2.01,1.93-2.11,2.68-.58,4.36.62,8.85.46,13.24-.11,2.91.01,6.5-1.2,9.3.08-.08.16-.16.25-.24.05-.06.11-.12.16-.18.02-.02.04-.03.06-.04.12-.13.37-.35.48-.41.48-.4.97-.78,1.44-1.18.09-.08.18-.16.27-.23h0c.28-.2.54-.41.78-.66.01-.01.02-.03.03-.05.77-.68,1.52-1.38,2.22-2.13.51-.55,1.09-1.25,1.8-1.59,1.34-.65,2.57-.35,4-.61.7-.13,1.36-.34,2.03-.56-.28-.46-.07-1.2.09-1.67.28-.87.64-1.72,1.02-2.56.38-1.08.83-2.14,1.28-3.19.62-1.43,1.29-2.85,1.8-4.32.3-.86.78-2.04.66-2.97Z"/>
                <path class="cls-33" d="m36.9,42.33c.02.09,0,.18-.06.26.33.33.65.67.95,1.02-.14-.8-.05-1.66.32-2.27-.67.24-1.31.57-1.22.99Z"/>
                <path class="cls-34" d="m50.21,37.47c-.47-.03-.94.05-1.45.3-.36.17-.68.36-.99.59-.01.02-.02.04-.04.05-.03.04-.07.06-.11.07-.04.04-.09.07-.13.11-.09.08-.19.2-.3.31-.05.08-.32.34-.4.32-.34.44-.76.85-1.17,1.26-1.04,1.02-1.92,2.22-2.95,3.24-.15.18-.29.35-.42.54-.31.45-.89,1.25-.65,1.84.31.76,1.27,1.03,2.01.85.34-.08.66-.2.96-.35,0,0-.02-.02-.03-.03.68-.11,1.43-.81,1.89-1.14.82-.58,1.59-1.23,2.44-1.75-.61.61-1.21,1.27-1.84,1.88,1.4-.3,2.8-1.32,3.63-2.39.08-.1.2,0,.13.1-.5.72-1.09,1.3-1.85,1.75-.67.39-1.58.94-2.39.91-.54.37-1.07.75-1.58,1.17-1.02.5-2.53.95-3.43.06-.7-.69-.65-1.49-.29-2.27-.3.2-.61.39-.95.54-.44.2-.83.22-1.17.12.09.16.17.33.25.51.97,2.13.66,4.04.27,6.26-.04.24-.45.25-.4-.03.46-2.61.08-5.21-1.53-7.46-.44-.61-1-1.11-1.52-1.63.09-.72.32-1.4.68-2.03,1.6-.64,3.24-1.08,4.48-2.29.03-.05.06-.1.09-.15.02-.03.06-.04.08-.03.02-.03.05-.05.07-.07.73-.81,3.33-4.98-.44-3.76-.75.24-1.54.55-2.34.61-.86.07-1.94-.04-2.75.17-1.89.48-3.15,2.37-4.5,3.59-1.14,1.03-3.08,2.22-4.18,3.59-.08.15-.16.3-.22.46-.07.18-.13.37-.18.55-.36,1.38-.18,3.02.2,4.26.38,1.26.95,2.56,1.82,3.59,1.39,1.37,3.1,2.05,5.29,1.8.29-.03.14.44-.1.46-.46.05-.9.06-1.32.03-.43.16-1.1.04-.97.1-.41-.07-.82-.17-1.22-.29.48.57,1.08,1.11,1.74,1.6.65.38,1.35.68,2.05.92.04-.01.08-.02.12,0,1.3.39,2.67.77,4.04.7.56-.03,1.19,0,1.76-.1-.54-.06-1.1-.18-1.67-.39-.1-.04-.02-.18.06-.17,2.51.16,4.69-.59,6.52-1.92,1.12-.96,2.09-2.23,2.84-3.29,1.05-1.5,1.99-3.06,2.61-4.79,1.01-2.78,2.02-6.68-.59-8.89Z"/>
              </g>
            </g>
            <g class="cls-7">
              <path class="cls-10" d="m53.09,38.64c-.38-.93-1.07-1.64-2.23-1.57-.62.04-1.41.36-1.99.75.23-.64.35-1.36.34-1.92-.02-1.04-.42-1.62-1.19-2.29-.73-.63-2.04-.6-2.92-.49-1.01.12-1.94.73-2.67,1.42-.04,0-.07.01-.11.02-.1.02-.19-.03-.19-.14,0-.03,0-.05,0-.08,0-.02,0-.05,0-.08,0-.02,0-.03.01-.05.03-.32.12-.64.25-.94.03-.4.25-.76.48-1.1-.01,0-.02,0-.03,0,.56-1.47,1.36-2.92,1.92-4.28.79-1.9,1.62-3.82,2.29-5.76.68-2,.63-4.9-2.34-4.54-3.22.39-4.15,3.69-5.06,6.05-.81,2.09-1.65,4.16-2.5,6.23-.4.99-.82,1.96-1.29,2.92-.08.33-.24.58-.48.76-.06.16-.12.33-.19.49-1.35-1.34-.77-5.96-.76-7.31.02-2.33.12-4.65-.09-6.98-.25-2.89-1.88-4.24-4.4-2.53-3.13,2.12-1.68,7.55-1.51,10.62.14,2.42.15,4.82.06,7.24-.1,2.53.04,5.74-1.06,8.12-.47.6-.81,1.28-.9,2.11-.21,1.91.21,3.76,1.17,5.46.51.91,1.35,2.04,2.36,2.8-.38-.07-.78-.1-1.16-.15-.56.25-1.39.37-1.74.91-.09.14-.16.29-.22.43-.19.91.07,1.95.41,2.75,1.04,2.49,4.87,3.93,7.2,4.7,2.61.87,6.53,1.32,9.16.16.41-.26.77-.59,1.04-.99.87-1.3,1.16-3.04-.06-4.22-.08-.01-.16-.02-.25-.02-.21,0-.16-.31,0-.37,1.06-.47,1.98-1.07,2.83-1.77,1.58-1.45,2.88-3.35,3.81-5.13.7-1.33,1.36-2.7,1.81-4.14.44-1.41.64-2.99.65-4.47,0-.79-.1-1.8-.44-2.63Zm-.56,4.9c-.2,2.44-1.38,4.59-2.56,6.67-.39.69-.83,1.33-1.29,1.94-.48.74-1.08,1.41-1.79,1.99-1.72,1.83-3.96,3.32-6.41,3.76-.22.07-.45.13-.71.16-1.15.17-2.25-.09-3.35-.37-.42-.11-.88-.24-1.35-.39-.31-.11-.62-.23-.94-.34-1.19-.48-2.35-1.14-3.05-2.05-.11-.22-.18-.46-.22-.73.05.01.1.03.16.04.23.08.46.14.7.2-.95-.73-1.89-1.46-2.6-2.47-.35-.5-.63-1.01-.88-1.54,0,0-.01-.02-.02-.03-1.08-1.63-1.42-3.78-1.01-5.63.04-.19.12-.38.21-.57.27-1.1.75-2.12,1.07-3.31.59-2.44.53-5.19.62-7.51.16-4.39-1.04-8.88-.46-13.24.18-1.38,3.3-4.79,4.58-1.77.4.94.41,2.09.46,3.09.12,2.07.02,4.15.03,6.22.01,1.91.04,3.86.15,5.78.14.34.3.65.55.85.1.08.2.14.3.2.34-.05.67-.23.95-.46,1-1.29,1.53-3.13,2.14-4.6.88-2.1,1.75-4.21,2.59-6.33.77-1.94,1.38-3.81,3.56-4.7,1.64-.67,2.6.19,2.78,1.72.17,1.42-.86,3.09-1.38,4.38-.77,1.93-1.51,3.88-2.31,5.8-.58,1.4-1.31,2.8-1.46,4.31,0,0,0,0,0,.01.14.2.32.37.53.51.4-.4.86-.75,1.36-.98.2-.11.39-.21.61-.29,1.02-.4,1.95-.34,3-.1.92.21,1.41,1.14,1.49,2.02.22,1.04-.02,2.11-.37,3.16.02-.01.05-.02.07-.04.01-.02.02-.04.04-.05.3-.23.63-.42.99-.59.64-.31,1.22-.37,1.82-.26,1.71.72,1.51,4.11,1.4,5.53Z"/>
              <g>
                <path class="cls-8" d="m46.92,33.85c-1.23-.44-2.65-.12-3.73.56.25-.04.5-.07.75-.09.51.23.74.86.65,1.43-.22,1.36-.87,2.54-1.79,3.58-.07.05-.15.1-.22.16-.6.38-1.22.74-1.57,1.35-.33.21-.66.4-1,.56-.12.06-.37.13-.67.22-.87,1.27-.25,4.49,1.9,3.36,1.28-.67,1.88-1.63,2.85-2.63.58-.6,1.23-1.16,1.81-1.76.24-.34.5-.67.72-1.02.25-.38.52-.95.94-1.16.07-.04.13.04.09.1-.13.26-.29.51-.44.76.28-.25.57-.49.85-.74.05-.19.11-.38.16-.57.05-1.39.32-3.53-1.31-4.11Z"/>
                <path class="cls-18" d="m33.74,29.39c-.02.54-.01,1.08.03,1.6-.02-.54-.03-1.07-.03-1.6Z"/>
                <path class="cls-4" d="m46.26,20.09c-.09-.66-.35-1.1-.64-1.57-.41-.2-.92-.25-1.45-.16-.06.02-.12.04-.19.06-2.18.89-2.79,2.75-3.56,4.7-.84,2.12-1.71,4.22-2.59,6.33-.62,1.48-1.15,3.36-2.18,4.65-.06.07-.11.13-.16.19.17.09.36.14.57.15.2,0,.24.15.2.3-.61.13-1.22.04-1.82-.43-.01,0-.02-.02-.04-.04-1.07-.49-1.06-2.16-1.1-3.16-.11-2.42-.19-4.82-.07-7.24.04-.86.2-2.61-.02-4.08-.03-.2-.07-.39-.11-.59-.3-1.23-.95-2.1-2.32-1.74,0,0-.01,0-.02,0-1.06.6-2.01,1.93-2.11,2.68-.58,4.36.62,8.85.46,13.24-.11,2.91.01,6.5-1.2,9.3.08-.08.16-.16.25-.24.05-.06.11-.12.16-.18.02-.02.04-.03.06-.04.12-.13.37-.35.48-.41.48-.4.97-.78,1.44-1.18.09-.08.18-.16.27-.23h0c.28-.2.54-.41.78-.66.01-.01.02-.03.03-.05.77-.68,1.52-1.38,2.22-2.13.51-.55,1.09-1.25,1.8-1.59,1.34-.65,2.57-.35,4-.61.7-.13,1.36-.34,2.03-.56-.28-.46-.07-1.2.09-1.67.28-.87.64-1.72,1.02-2.56.38-1.08.83-2.14,1.28-3.19.62-1.43,1.29-2.85,1.8-4.32.3-.86.78-2.04.66-2.97Z"/>
                <path class="cls-9" d="m37.46,42.83c.02.09,0,.18-.06.26.33.33.65.67.95,1.02-.14-.8-.05-1.66.32-2.27-.67.24-1.31.57-1.22.99Z"/>
                <path class="cls-30" d="m50.77,37.97c-.47-.03-.94.05-1.45.3-.36.17-.68.36-.99.59-.01.02-.02.04-.04.05-.03.04-.07.06-.11.07-.04.04-.09.07-.13.11-.09.08-.19.2-.3.31-.05.08-.32.34-.4.32-.34.44-.76.85-1.17,1.26-1.04,1.02-1.92,2.22-2.95,3.24-.15.18-.29.35-.42.54-.31.45-.89,1.25-.65,1.84.31.76,1.27,1.03,2.01.85.34-.08.66-.2.96-.35,0,0-.02-.02-.03-.03.68-.11,1.43-.81,1.89-1.14.82-.58,1.59-1.23,2.44-1.75-.61.61-1.21,1.27-1.84,1.88,1.4-.3,2.8-1.32,3.63-2.39.08-.1.2,0,.13.1-.5.72-1.09,1.3-1.85,1.75-.67.39-1.58.94-2.39.91-.54.37-1.07.75-1.58,1.17-1.02.5-2.53.95-3.43.06-.7-.69-.65-1.49-.29-2.27-.3.2-.61.39-.95.54-.44.2-.83.22-1.17.12.09.16.17.33.25.51.97,2.13.66,4.04.27,6.26-.04.24-.45.25-.4-.03.46-2.61.08-5.21-1.53-7.46-.44-.61-1-1.11-1.52-1.63.09-.72.32-1.4.68-2.03,1.6-.64,3.24-1.08,4.48-2.29.03-.05.06-.1.09-.15.02-.03.06-.04.08-.03.02-.03.05-.05.07-.07.73-.81,3.33-4.98-.44-3.76-.75.24-1.54.55-2.34.61-.86.07-1.94-.04-2.75.17-1.89.48-3.15,2.37-4.5,3.59-1.14,1.03-3.08,2.22-4.18,3.59-.08.15-.16.3-.22.46-.07.18-.13.37-.18.55-.36,1.38-.18,3.02.2,4.26.38,1.26.95,2.56,1.82,3.59,1.39,1.37,3.1,2.05,5.29,1.8.29-.03.14.44-.1.46-.46.05-.9.06-1.32.03-.43.16-1.1.04-.97.1-.41-.07-.82-.17-1.22-.29.48.57,1.08,1.11,1.74,1.6.65.38,1.35.68,2.05.92.04-.01.08-.02.12,0,1.3.39,2.67.77,4.04.7.56-.03,1.19,0,1.76-.1-.54-.06-1.1-.18-1.67-.39-.1-.04-.02-.18.06-.17,2.51.16,4.69-.59,6.52-1.92,1.12-.96,2.09-2.23,2.84-3.29,1.05-1.5,1.99-3.06,2.61-4.79,1.01-2.78,2.02-6.68-.59-8.89Z"/>
              </g>
            </g>
            <g class="cls-7">
              <path class="cls-11" d="m53.65,39.14c-.38-.93-1.07-1.64-2.23-1.57-.62.04-1.41.36-1.99.75.23-.64.35-1.36.34-1.92-.02-1.04-.42-1.62-1.19-2.29-.73-.63-2.04-.6-2.92-.49-1.01.12-1.94.73-2.67,1.42-.04,0-.07.01-.11.02-.1.02-.19-.03-.19-.14,0-.03,0-.05,0-.08,0-.02,0-.05,0-.08,0-.02,0-.03.01-.05.03-.32.12-.64.25-.94.03-.4.25-.76.48-1.1-.01,0-.02,0-.03,0,.56-1.47,1.36-2.92,1.92-4.28.79-1.9,1.62-3.82,2.29-5.76.68-2,.63-4.9-2.34-4.54-3.22.39-4.15,3.69-5.06,6.05-.81,2.09-1.65,4.16-2.5,6.23-.4.99-.82,1.96-1.29,2.92-.08.33-.24.58-.48.76-.06.16-.12.33-.19.49-1.35-1.34-.77-5.96-.76-7.31.02-2.33.12-4.65-.09-6.98-.25-2.89-1.88-4.24-4.4-2.53-3.13,2.12-1.68,7.55-1.51,10.62.14,2.42.15,4.82.06,7.24-.1,2.53.04,5.74-1.06,8.12-.47.6-.81,1.28-.9,2.11-.21,1.91.21,3.76,1.17,5.46.51.91,1.35,2.04,2.36,2.8-.38-.07-.78-.1-1.16-.15-.56.25-1.39.37-1.74.91-.09.14-.16.29-.22.43-.19.91.07,1.95.41,2.75,1.04,2.49,4.87,3.93,7.2,4.7,2.61.87,6.53,1.32,9.16.16.41-.26.77-.59,1.04-.99.87-1.3,1.16-3.04-.06-4.22-.08-.01-.16-.02-.25-.02-.21,0-.16-.31,0-.37,1.06-.47,1.98-1.07,2.83-1.77,1.58-1.45,2.88-3.35,3.81-5.13.7-1.33,1.36-2.7,1.81-4.14.44-1.41.64-2.99.65-4.47,0-.79-.1-1.8-.44-2.63Zm-.56,4.9c-.2,2.44-1.38,4.59-2.56,6.67-.39.69-.83,1.33-1.29,1.94-.48.74-1.08,1.41-1.79,1.99-1.72,1.83-3.96,3.32-6.41,3.76-.22.07-.45.13-.71.16-1.15.17-2.25-.09-3.35-.37-.42-.11-.88-.24-1.35-.39-.31-.11-.62-.23-.94-.34-1.19-.48-2.35-1.14-3.05-2.05-.11-.22-.18-.46-.22-.73.05.01.1.03.16.04.23.08.46.14.7.2-.95-.73-1.89-1.46-2.6-2.47-.35-.5-.63-1.01-.88-1.54,0,0-.01-.02-.02-.03-1.08-1.63-1.42-3.78-1.01-5.63.04-.19.12-.38.21-.57.27-1.1.75-2.12,1.07-3.31.59-2.44.53-5.19.62-7.51.16-4.39-1.04-8.88-.46-13.24.18-1.38,3.3-4.79,4.58-1.77.4.94.41,2.09.46,3.09.12,2.07.02,4.15.03,6.22.01,1.91.04,3.86.15,5.78.14.34.3.65.55.85.1.08.2.14.3.2.34-.05.67-.23.95-.46,1-1.29,1.53-3.13,2.14-4.6.88-2.1,1.75-4.21,2.59-6.33.77-1.94,1.38-3.81,3.56-4.7,1.64-.67,2.6.19,2.78,1.72.17,1.42-.86,3.09-1.38,4.38-.77,1.93-1.51,3.88-2.31,5.8-.58,1.4-1.31,2.8-1.46,4.31,0,0,0,0,0,.01.14.2.32.37.53.51.4-.4.86-.75,1.36-.98.2-.11.39-.21.61-.29,1.02-.4,1.95-.34,3-.1.92.21,1.41,1.14,1.49,2.02.22,1.04-.02,2.11-.37,3.16.02-.01.05-.02.07-.04.01-.02.02-.04.04-.05.3-.23.63-.42.99-.59.64-.31,1.22-.37,1.82-.26,1.71.72,1.51,4.11,1.4,5.53Z"/>
              <g>
                <path class="cls-19" d="m47.48,34.35c-1.23-.44-2.65-.12-3.73.56.25-.04.5-.07.76-.09.51.23.74.86.65,1.43-.22,1.36-.87,2.54-1.79,3.58-.07.05-.15.1-.22.16-.6.38-1.22.74-1.57,1.35-.33.21-.66.4-1,.56-.12.06-.37.13-.67.22-.87,1.27-.25,4.49,1.9,3.36,1.28-.67,1.88-1.63,2.85-2.63.58-.6,1.23-1.16,1.81-1.76.24-.34.5-.67.72-1.02.25-.38.52-.95.94-1.16.07-.04.13.04.09.1-.13.26-.29.51-.44.76.28-.25.57-.49.85-.74.05-.19.11-.38.16-.57.05-1.39.32-3.53-1.31-4.11Z"/>
                <path class="cls-25" d="m34.31,29.89c-.02.54-.01,1.08.03,1.6-.02-.54-.03-1.07-.03-1.6Z"/>
                <path class="cls-29" d="m46.83,20.59c-.09-.66-.35-1.1-.64-1.57-.41-.2-.92-.25-1.45-.16-.06.02-.12.04-.19.06-2.18.89-2.79,2.75-3.56,4.7-.84,2.12-1.71,4.22-2.59,6.33-.62,1.48-1.15,3.36-2.18,4.65-.06.07-.11.13-.16.19.17.09.36.14.57.15.2,0,.24.15.2.3-.61.13-1.22.04-1.82-.43-.01,0-.02-.02-.04-.04-1.07-.49-1.06-2.16-1.1-3.16-.11-2.42-.19-4.82-.07-7.24.04-.86.2-2.61-.02-4.08-.03-.2-.07-.39-.11-.59-.3-1.23-.95-2.1-2.32-1.74,0,0-.01,0-.02,0-1.06.6-2.01,1.93-2.11,2.68-.58,4.36.62,8.85.46,13.24-.11,2.91.01,6.5-1.2,9.3.08-.08.16-.16.25-.24.05-.06.11-.12.16-.18.02-.02.04-.03.06-.04.12-.13.37-.35.48-.41.48-.4.97-.78,1.44-1.18.09-.08.18-.16.27-.23h0c.28-.2.54-.41.78-.66.01-.01.02-.03.03-.05.77-.68,1.52-1.38,2.22-2.13.51-.55,1.09-1.25,1.8-1.59,1.34-.65,2.57-.35,4-.61.7-.13,1.36-.34,2.03-.56-.28-.46-.07-1.2.09-1.67.28-.87.64-1.72,1.02-2.56.38-1.08.83-2.14,1.28-3.19.62-1.43,1.29-2.85,1.8-4.32.3-.86.78-2.04.66-2.97Z"/>
                <path class="cls-23" d="m38.02,43.33c.02.09,0,.18-.06.26.33.33.65.67.95,1.02-.14-.8-.05-1.66.32-2.27-.67.24-1.31.57-1.22.99Z"/>
                <path class="cls-20" d="m51.33,38.47c-.47-.03-.94.05-1.45.3-.36.17-.68.36-.99.59-.01.02-.02.04-.04.05-.03.04-.07.06-.11.07-.04.04-.09.07-.13.11-.09.08-.19.2-.3.31-.05.08-.32.34-.4.32-.34.44-.76.85-1.17,1.26-1.04,1.02-1.92,2.22-2.95,3.24-.15.18-.29.35-.42.54-.31.45-.89,1.25-.65,1.84.31.76,1.27,1.03,2.01.85.34-.08.66-.2.96-.35,0,0-.02-.02-.03-.03.68-.11,1.43-.81,1.89-1.14.82-.58,1.59-1.23,2.44-1.75-.61.61-1.21,1.27-1.84,1.88,1.4-.3,2.8-1.32,3.63-2.39.08-.1.2,0,.13.1-.5.72-1.09,1.3-1.85,1.75-.67.39-1.58.94-2.39.91-.54.37-1.07.75-1.58,1.17-1.02.5-2.53.95-3.43.06-.7-.69-.65-1.49-.29-2.27-.3.2-.61.39-.95.54-.44.2-.83.22-1.17.12.09.16.17.33.25.51.97,2.13.66,4.04.27,6.26-.04.24-.45.25-.4-.03.46-2.61.08-5.21-1.53-7.46-.44-.61-1-1.11-1.52-1.63.09-.72.32-1.4.68-2.03,1.6-.64,3.24-1.08,4.48-2.29.03-.05.06-.1.09-.15.02-.03.06-.04.08-.03.02-.03.05-.05.07-.07.73-.81,3.33-4.98-.44-3.76-.75.24-1.54.55-2.34.61-.86.07-1.94-.04-2.75.17-1.89.48-3.15,2.37-4.5,3.59-1.14,1.03-3.08,2.22-4.18,3.59-.08.15-.16.3-.22.46-.07.18-.13.37-.18.55-.36,1.38-.18,3.02.2,4.26.38,1.26.95,2.56,1.82,3.59,1.39,1.37,3.1,2.05,5.29,1.8.29-.03.14.44-.1.46-.46.05-.9.06-1.32.03-.43.16-1.1.04-.97.1-.41-.07-.82-.17-1.22-.29.48.57,1.08,1.11,1.74,1.6.65.38,1.35.68,2.05.92.04-.01.08-.02.12,0,1.3.39,2.67.77,4.04.7.56-.03,1.19,0,1.76-.1-.54-.06-1.1-.18-1.67-.39-.1-.04-.02-.18.06-.17,2.51.16,4.69-.59,6.52-1.92,1.12-.96,2.09-2.23,2.84-3.29,1.05-1.5,1.99-3.06,2.61-4.79,1.01-2.78,2.02-6.68-.59-8.89Z"/>
              </g>
            </g>
            <g>
              <path class="cls-3" d="m51.4,37.14c-.38-.93-1.07-1.64-2.23-1.57-.62.04-1.41.36-1.99.75.23-.64.35-1.36.34-1.92-.02-1.04-.42-1.62-1.19-2.29-.73-.63-2.04-.6-2.92-.49-1.01.12-1.94.73-2.67,1.42-.04,0-.07.01-.11.02-.1.02-.19-.03-.19-.14,0-.03,0-.05,0-.08,0-.02,0-.05,0-.08,0-.02,0-.03.01-.05.03-.32.12-.64.25-.94.03-.4.25-.76.48-1.1-.01,0-.02,0-.03,0,.56-1.47,1.36-2.92,1.92-4.28.79-1.9,1.62-3.82,2.29-5.76.68-2,.63-4.9-2.34-4.54-3.22.39-4.15,3.69-5.06,6.05-.81,2.09-1.65,4.16-2.5,6.23-.4.99-.82,1.96-1.29,2.92-.08.33-.24.58-.48.76-.06.16-.12.33-.19.49-1.35-1.34-.77-5.96-.76-7.31.02-2.33.12-4.65-.09-6.98-.25-2.89-1.88-4.24-4.4-2.53-3.13,2.12-1.68,7.55-1.51,10.62.14,2.42.15,4.82.06,7.24-.1,2.53.04,5.74-1.06,8.12-.47.6-.81,1.28-.9,2.11-.21,1.91.21,3.76,1.17,5.46.51.91,1.35,2.04,2.36,2.8-.38-.07-.78-.1-1.16-.15-.56.25-1.39.37-1.74.91-.09.14-.16.29-.22.43-.19.91.07,1.95.41,2.75,1.04,2.49,4.87,3.93,7.2,4.7,2.61.87,6.53,1.32,9.16.16.41-.26.77-.59,1.04-.99.87-1.3,1.16-3.04-.06-4.22-.08-.01-.16-.02-.25-.02-.21,0-.16-.31,0-.37,1.06-.47,1.98-1.07,2.83-1.77,1.58-1.45,2.88-3.35,3.81-5.13.7-1.33,1.36-2.7,1.81-4.14.44-1.41.64-2.99.65-4.47,0-.79-.1-1.8-.44-2.63Zm-.56,4.9c-.2,2.44-1.38,4.59-2.56,6.67-.39.69-.83,1.33-1.29,1.94-.48.74-1.08,1.41-1.79,1.99-1.72,1.83-3.96,3.32-6.41,3.76-.22.07-.45.13-.71.16-1.15.17-2.25-.09-3.35-.37-.42-.11-.88-.24-1.35-.39-.31-.11-.62-.23-.94-.34-1.19-.48-2.35-1.14-3.05-2.05-.11-.22-.18-.46-.22-.73.05.01.1.03.16.04.23.08.46.14.7.2-.95-.73-1.89-1.46-2.6-2.47-.35-.5-.63-1.01-.88-1.54,0,0-.01-.02-.02-.03-1.08-1.63-1.42-3.78-1.01-5.63.04-.19.12-.38.21-.57.27-1.1.75-2.12,1.07-3.31.59-2.44.53-5.19.62-7.51.16-4.39-1.04-8.88-.46-13.24.18-1.38,3.3-4.79,4.58-1.77.4.94.41,2.09.46,3.09.12,2.07.02,4.15.03,6.22.01,1.91.04,3.86.15,5.78.14.34.3.65.55.85.1.08.2.14.3.2.34-.05.67-.23.95-.46,1-1.29,1.53-3.13,2.14-4.6.88-2.1,1.75-4.21,2.59-6.33.77-1.94,1.38-3.81,3.56-4.7,1.64-.67,2.6.19,2.78,1.72.17,1.42-.86,3.09-1.38,4.38-.77,1.93-1.51,3.88-2.31,5.8-.58,1.4-1.31,2.8-1.46,4.31,0,0,0,0,0,.01.14.2.32.37.53.51.4-.4.86-.75,1.36-.98.2-.11.39-.21.61-.29,1.02-.4,1.95-.34,3-.1.92.21,1.41,1.14,1.49,2.02.22,1.04-.02,2.11-.37,3.16.02-.01.05-.02.07-.04.01-.02.02-.04.04-.05.3-.23.63-.42.99-.59.64-.31,1.22-.37,1.82-.26,1.71.72,1.51,4.11,1.4,5.53Z"/>
              <g>
                <path class="cls-3" d="m45.23,32.35c-1.23-.44-2.65-.12-3.73.56.25-.04.5-.07.76-.09.51.23.74.86.65,1.43-.22,1.36-.87,2.54-1.79,3.58-.07.05-.15.1-.22.16-.6.38-1.22.74-1.57,1.35-.33.21-.66.4-1,.56-.12.06-.37.13-.67.22-.87,1.27-.25,4.49,1.9,3.36,1.28-.67,1.88-1.63,2.85-2.63.58-.6,1.23-1.16,1.81-1.76.24-.34.5-.67.72-1.02.25-.38.52-.95.94-1.16.07-.04.13.04.09.1-.13.26-.29.51-.44.76.28-.25.57-.49.85-.74.05-.19.11-.38.16-.57.05-1.39.32-3.53-1.31-4.11Z"/>
                <path class="cls-3" d="m32.06,27.89c-.02.54-.01,1.08.03,1.6-.02-.54-.03-1.07-.03-1.6Z"/>
                <path class="cls-3" d="m44.58,18.59c-.09-.66-.35-1.1-.64-1.57-.41-.2-.92-.25-1.45-.16-.06.02-.12.04-.19.06-2.18.89-2.79,2.75-3.56,4.7-.84,2.12-1.71,4.22-2.59,6.33-.62,1.48-1.15,3.36-2.18,4.65-.06.07-.11.13-.16.19.17.09.36.14.57.15.2,0,.24.15.2.3-.61.13-1.22.04-1.82-.43-.01,0-.02-.02-.04-.04-1.07-.49-1.06-2.16-1.1-3.16-.11-2.42-.19-4.82-.07-7.24.04-.86.2-2.61-.02-4.08-.03-.2-.07-.39-.11-.59-.3-1.23-.95-2.1-2.32-1.74,0,0-.01,0-.02,0-1.06.6-2.01,1.93-2.11,2.68-.58,4.36.62,8.85.46,13.24-.11,2.91.01,6.5-1.2,9.3.08-.08.16-.16.25-.24.05-.06.11-.12.16-.18.02-.02.04-.03.06-.04.12-.13.37-.35.48-.41.48-.4.97-.78,1.44-1.18.09-.08.18-.16.27-.23h0c.28-.2.54-.41.78-.66.01-.01.02-.03.03-.05.77-.68,1.52-1.38,2.22-2.13.51-.55,1.09-1.25,1.8-1.59,1.34-.65,2.57-.35,4-.61.7-.13,1.36-.34,2.03-.56-.28-.46-.07-1.2.09-1.67.28-.87.64-1.72,1.02-2.56.38-1.08.83-2.14,1.28-3.19.62-1.43,1.29-2.85,1.8-4.32.3-.86.78-2.04.66-2.97Z"/>
                <path class="cls-3" d="m35.77,41.33c.02.09,0,.18-.06.26.33.33.65.67.95,1.02-.14-.8-.05-1.66.32-2.27-.67.24-1.31.57-1.22.99Z"/>
                <path class="cls-3" d="m49.08,36.47c-.47-.03-.94.05-1.45.3-.36.17-.68.36-.99.59-.01.02-.02.04-.04.05-.03.04-.07.06-.11.07-.04.04-.09.07-.13.11-.09.08-.19.2-.3.31-.05.08-.32.34-.4.32-.34.44-.76.85-1.17,1.26-1.04,1.02-1.92,2.22-2.95,3.24-.15.18-.29.35-.42.54-.31.45-.89,1.25-.65,1.84.31.76,1.27,1.03,2.01.85.34-.08.66-.2.96-.35,0,0-.02-.02-.03-.03.68-.11,1.43-.81,1.89-1.14.82-.58,1.59-1.23,2.44-1.75-.61.61-1.21,1.27-1.84,1.88,1.4-.3,2.8-1.32,3.63-2.39.08-.1.2,0,.13.1-.5.72-1.09,1.3-1.85,1.75-.67.39-1.58.94-2.39.91-.54.37-1.07.75-1.58,1.17-1.02.5-2.53.95-3.43.06-.7-.69-.65-1.49-.29-2.27-.3.2-.61.39-.95.54-.44.2-.83.22-1.17.12.09.16.17.33.25.51.97,2.13.66,4.04.27,6.26-.04.24-.45.25-.4-.03.46-2.61.08-5.21-1.53-7.46-.44-.61-1-1.11-1.52-1.63.09-.72.32-1.4.68-2.03,1.6-.64,3.24-1.08,4.48-2.29.03-.05.06-.1.09-.15.02-.03.06-.04.08-.03.02-.03.05-.05.07-.07.73-.81,3.33-4.98-.44-3.76-.75.24-1.54.55-2.34.61-.86.07-1.94-.04-2.75.17-1.89.48-3.15,2.37-4.5,3.59-1.14,1.03-3.08,2.22-4.18,3.59-.08.15-.16.3-.22.46-.07.18-.13.37-.18.55-.36,1.38-.18,3.02.2,4.26.38,1.26.95,2.56,1.82,3.59,1.39,1.37,3.1,2.05,5.29,1.8.29-.03.14.44-.1.46-.46.05-.9.06-1.32.03-.43.16-1.1.04-.97.1-.41-.07-.82-.17-1.22-.29.48.57,1.08,1.11,1.74,1.6.65.38,1.35.68,2.05.92.04-.01.08-.02.12,0,1.3.39,2.67.77,4.04.7.56-.03,1.19,0,1.76-.1-.54-.06-1.1-.18-1.67-.39-.1-.04-.02-.18.06-.17,2.51.16,4.69-.59,6.52-1.92,1.12-.96,2.09-2.23,2.84-3.29,1.05-1.5,1.99-3.06,2.61-4.79,1.01-2.78,2.02-6.68-.59-8.89Z"/>
              </g>
            </g>
          </g>
        </g>
      </g>
    </g>
  </g>
</svg>