<?xml version="1.0" encoding="UTF-8"?>
<svg xmlns="http://www.w3.org/2000/svg" xmlns:xlink="http://www.w3.org/1999/xlink" viewBox="0 0 70 70.04">
  <defs>
    <style>
      .cls-1 {
        fill: url(#linear-gradient-2);
      }

      .cls-2 {
        fill: #fff;
      }

      .cls-3 {
        fill: url(#linear-gradient-17);
      }

      .cls-4 {
        fill: #790c00;
      }

      .cls-5 {
        fill: #9b1b00;
      }

      .cls-6 {
        fill: url(#linear-gradient);
      }

      .cls-6, .cls-7, .cls-8 {
        mix-blend-mode: multiply;
      }

      .cls-9 {
        fill: url(#linear-gradient-15);
      }

      .cls-10 {
        fill: url(#linear-gradient-18);
      }

      .cls-11 {
        fill: url(#linear-gradient-28);
      }

      .cls-12 {
        fill: url(#linear-gradient-14);
      }

      .cls-13 {
        fill: url(#linear-gradient-20);
      }

      .cls-14 {
        fill: url(#linear-gradient-6);
      }

      .cls-15 {
        isolation: isolate;
      }

      .cls-16 {
        fill: url(#radial-gradient-2);
        mix-blend-mode: screen;
        opacity: .9;
      }

      .cls-17 {
        fill: url(#linear-gradient-32);
      }

      .cls-18 {
        fill: url(#linear-gradient-11);
      }

      .cls-7 {
        fill: url(#radial-gradient);
      }

      .cls-19 {
        fill: url(#linear-gradient-10);
      }

      .cls-20 {
        fill: url(#linear-gradient-16);
      }

      .cls-21 {
        fill: url(#linear-gradient-31);
      }

      .cls-22 {
        fill: #c72100;
      }

      .cls-23 {
        fill: url(#linear-gradient-21);
      }

      .cls-24 {
        fill: url(#linear-gradient-25);
      }

      .cls-25 {
        fill: url(#linear-gradient-5);
      }

      .cls-26 {
        fill: url(#linear-gradient-7);
      }

      .cls-8 {
        opacity: .6;
      }

      .cls-27 {
        fill: url(#linear-gradient-24);
      }

      .cls-28 {
        fill: url(#linear-gradient-9);
      }

      .cls-29 {
        fill: url(#linear-gradient-22);
      }

      .cls-30 {
        mask: url(#mask-1);
      }

      .cls-31 {
        mask: url(#mask);
      }

      .cls-32 {
        fill: url(#linear-gradient-3);
      }

      .cls-33 {
        fill: url(#linear-gradient-27);
      }

      .cls-34 {
        fill: url(#linear-gradient-33);
      }

      .cls-35 {
        fill: url(#linear-gradient-29);
      }

      .cls-36 {
        fill: url(#linear-gradient-30);
      }

      .cls-37 {
        fill: url(#linear-gradient-23);
      }

      .cls-38 {
        fill: url(#linear-gradient-19);
      }

      .cls-39 {
        fill: url(#linear-gradient-4);
      }

      .cls-40 {
        fill: url(#linear-gradient-8);
      }

      .cls-41 {
        fill: url(#linear-gradient-12);
      }

      .cls-42 {
        fill: url(#linear-gradient-13);
      }

      .cls-43 {
        fill: url(#linear-gradient-26);
      }
    </style>
    <filter id="luminosity-noclip" x="1.98" y="-8227.35" width="49.33" height="32766" color-interpolation-filters="sRGB" filterUnits="userSpaceOnUse">
      <feFlood flood-color="#fff" result="bg"/>
      <feBlend in="SourceGraphic" in2="bg"/>
    </filter>
    <mask id="mask-1" x="1.98" y="-8227.35" width="49.33" height="32766" maskUnits="userSpaceOnUse"/>
    <radialGradient id="radial-gradient" cx="37.31" cy="37.72" fx="37.31" fy="37.72" r="57.35" gradientUnits="userSpaceOnUse">
      <stop offset=".59" stop-color="#000"/>
      <stop offset=".72" stop-color="#848484"/>
      <stop offset=".84" stop-color="#fff"/>
    </radialGradient>
    <mask id="mask" x="1.98" y="1.89" width="49.33" height="41.67" maskUnits="userSpaceOnUse">
      <g class="cls-30">
        <path class="cls-7" d="m1.98,43.56V1.89h49.33S1.98,1.72,1.98,43.56Z"/>
      </g>
    </mask>
    <radialGradient id="radial-gradient-2" cx="37.31" cy="37.72" fx="37.31" fy="37.72" r="57.35" gradientUnits="userSpaceOnUse">
      <stop offset=".59" stop-color="#cecece"/>
      <stop offset=".84" stop-color="#fff"/>
    </radialGradient>
    <linearGradient id="linear-gradient" x1="25.43" y1="20.81" x2="71.28" y2="66.66" gradientUnits="userSpaceOnUse">
      <stop offset="0" stop-color="#6b6b6b"/>
      <stop offset=".54" stop-color="#c2c2c2"/>
      <stop offset=".56" stop-color="#c6c6c6"/>
      <stop offset=".74" stop-color="#e5e5e5"/>
      <stop offset=".89" stop-color="#f8f8f8"/>
      <stop offset="1" stop-color="#fff"/>
    </linearGradient>
    <linearGradient id="linear-gradient-2" x1="41.4" y1="31.97" x2="46.71" y2="31.97" gradientUnits="userSpaceOnUse">
      <stop offset="0" stop-color="#7e7e7e"/>
      <stop offset="1" stop-color="#cecece"/>
    </linearGradient>
    <linearGradient id="linear-gradient-3" x1="18.62" y1="34.98" x2="58.17" y2="34.98" xlink:href="#linear-gradient-2"/>
    <linearGradient id="linear-gradient-4" x1="41.18" y1="23.67" x2="49.95" y2="23.67" xlink:href="#linear-gradient-2"/>
    <linearGradient id="linear-gradient-5" x1="46.27" y1="26.35" x2="48.41" y2="26.35" xlink:href="#linear-gradient-2"/>
    <linearGradient id="linear-gradient-6" x1="34.22" y1="21.5" x2="40.98" y2="21.5" xlink:href="#linear-gradient-2"/>
    <linearGradient id="linear-gradient-7" x1="23.17" y1="35.18" x2="24.81" y2="35.18" xlink:href="#linear-gradient-2"/>
    <linearGradient id="linear-gradient-8" x1="32.86" y1="24.24" x2="33.07" y2="24.24" xlink:href="#linear-gradient-2"/>
    <linearGradient id="linear-gradient-9" x1="18.99" y1="34.72" x2="56.76" y2="34.72" xlink:href="#linear-gradient-2"/>
    <linearGradient id="linear-gradient-10" x1="41.96" y1="32.47" x2="47.27" y2="32.47" xlink:href="#linear-gradient-2"/>
    <linearGradient id="linear-gradient-11" x1="19.18" y1="35.48" x2="58.73" y2="35.48" xlink:href="#linear-gradient-2"/>
    <linearGradient id="linear-gradient-12" x1="41.74" y1="24.17" x2="50.52" y2="24.17" xlink:href="#linear-gradient-2"/>
    <linearGradient id="linear-gradient-13" x1="46.83" y1="26.85" x2="48.98" y2="26.85" xlink:href="#linear-gradient-2"/>
    <linearGradient id="linear-gradient-14" x1="34.78" y1="22" x2="41.55" y2="22" xlink:href="#linear-gradient-2"/>
    <linearGradient id="linear-gradient-15" x1="23.73" y1="35.68" x2="25.37" y2="35.68" xlink:href="#linear-gradient-2"/>
    <linearGradient id="linear-gradient-16" x1="33.43" y1="24.74" x2="33.63" y2="24.74" xlink:href="#linear-gradient-2"/>
    <linearGradient id="linear-gradient-17" x1="19.55" y1="35.22" x2="57.32" y2="35.22" xlink:href="#linear-gradient-2"/>
    <linearGradient id="linear-gradient-18" x1="42.52" y1="32.97" x2="47.83" y2="32.97" xlink:href="#linear-gradient-2"/>
    <linearGradient id="linear-gradient-19" x1="19.74" y1="35.98" x2="59.3" y2="35.98" xlink:href="#linear-gradient-2"/>
    <linearGradient id="linear-gradient-20" x1="42.3" y1="24.67" x2="51.08" y2="24.67" xlink:href="#linear-gradient-2"/>
    <linearGradient id="linear-gradient-21" x1="47.39" y1="27.35" x2="49.54" y2="27.35" xlink:href="#linear-gradient-2"/>
    <linearGradient id="linear-gradient-22" x1="35.34" y1="22.5" x2="42.11" y2="22.5" xlink:href="#linear-gradient-2"/>
    <linearGradient id="linear-gradient-23" x1="24.3" y1="36.18" x2="25.94" y2="36.18" xlink:href="#linear-gradient-2"/>
    <linearGradient id="linear-gradient-24" x1="33.99" y1="25.24" x2="34.19" y2="25.24" xlink:href="#linear-gradient-2"/>
    <linearGradient id="linear-gradient-25" x1="20.11" y1="35.72" x2="57.88" y2="35.72" xlink:href="#linear-gradient-2"/>
    <linearGradient id="linear-gradient-26" x1="43.08" y1="33.47" x2="48.39" y2="33.47" xlink:href="#linear-gradient-2"/>
    <linearGradient id="linear-gradient-27" x1="20.31" y1="36.48" x2="59.86" y2="36.48" xlink:href="#linear-gradient-2"/>
    <linearGradient id="linear-gradient-28" x1="42.87" y1="25.17" x2="51.64" y2="25.17" xlink:href="#linear-gradient-2"/>
    <linearGradient id="linear-gradient-29" x1="47.96" y1="27.85" x2="50.1" y2="27.85" xlink:href="#linear-gradient-2"/>
    <linearGradient id="linear-gradient-30" x1="35.91" y1="23" x2="42.67" y2="23" xlink:href="#linear-gradient-2"/>
    <linearGradient id="linear-gradient-31" x1="24.86" y1="36.68" x2="26.5" y2="36.68" xlink:href="#linear-gradient-2"/>
    <linearGradient id="linear-gradient-32" x1="34.55" y1="25.74" x2="34.76" y2="25.74" xlink:href="#linear-gradient-2"/>
    <linearGradient id="linear-gradient-33" x1="20.67" y1="36.22" x2="58.44" y2="36.22" xlink:href="#linear-gradient-2"/>
  </defs>
  <g class="cls-15">
    <g id="Calque_2" data-name="Calque 2">
      <g id="Calque_1-2" data-name="Calque 1">
        <g>
          <g>
            <rect class="cls-22" x=".5" y=".46" width="69" height="69"/>
            <path class="cls-5" d="m17.75,69.3l17.25-.14c5.75-.06,11.5-.05,17.25-.07l16.75-.04.04-16.75c.02-5.75,0-11.5.07-17.25l.14-17.25c.08-5.75.13-11.5.25-17.25.11,5.75.16,11.5.25,17.25l.14,17.25c.06,5.75.05,11.5.07,17.25l.05,17.25v.5s-.5,0-.5,0l-17.25-.05c-5.75-.02-11.5-.01-17.25-.07l-17.25-.14c-5.75-.08-11.5-.13-17.25-.24,5.75-.11,11.5-.16,17.25-.24Z"/>
            <g class="cls-31">
              <path class="cls-16" d="m1.98,43.56V1.89h49.33S1.98,1.72,1.98,43.56Z"/>
            </g>
          </g>
          <path class="cls-4" d="m70,70H0V0h70v70Zm-69-1h68V1H1v68Z"/>
        </g>
        <g>
          <path class="cls-6" d="m49.36,15.48c-.87-.36-3.01-.59-4.24,2.06-1.25,2.71-3.58,11.25-4.5,11.75,0,0-3.38-.16-5.59.06-2.22.22-5.06,1.06-5.41,2.09-.34,1.03-1.06,6.53-1.81,6.59s-1.81-1.5-2.5-2.12-2.69-2.75-4.69-2.41c-2,.34-3.47,1.94-1.22,4.47,2.25,2.53,3.12,1.94,4.34,5.31,1.22,3.38,2.91,6.91,5.31,7.72,2.41.81,2.75,1.12,2.38,2.09-.22.58-.7,1.54-1,2.32l13.94,14.02h24.97v-34.4l-19.99-19.56Z"/>
          <g>
            <g class="cls-8">
              <g>
                <path class="cls-1" d="m41.4,30.58c.9.23,1.79.53,2.67.93,1.07.48,1.94,1.1,2.64,1.85-1.03-1.69-3.21-2.46-5.31-2.78Z"/>
                <path class="cls-32" d="m58.08,24.28c-.55-2.5-3.98-.06-4.82.65-1.4,1.18-2.72,2.43-3.99,3.74-.2.2-2.5,2.73-3.13,2.94.01-.03.02-.06.02-.1.13-2.37,1.52-4.38,2.62-6.41.92-1.7,1.73-3.38,2.11-5.28.21-1.06.47-2.76-.44-3.6-.82-.76-2.55-1.32-3.49-.37-1.91,1.94-3,4.61-3.68,7.2-.19.72-1.3,5.49-2.4,6.56-.18-.03-.37-.06-.55-.08-1-3.79.66-8.17,1.31-11.96.29-1.71.39-5.49-2.35-5.31-2.68.17-2.89,3.98-3.26,5.97-.35,1.88-.55,3.79-.77,5.69-.13,1.08-.29,2.14-.49,3.21-.14.74-.28,2.44-.96,2.92-.9-2.02-.58-4.37-.48-6.52.09-1.84.25-3.9-.07-5.73-.33-1.88-2.2-4.81-4.22-2.44-1.84,2.15-1.52,5.02-1.11,7.61.61,3.85.72,7.75,1.17,11.63-.02.44-.05.87-.07,1.31.01-.23-.41,2.21-.44,2.18,0,0-.01,0-.02-.01v.06c0,.08-.08.15-.16.16-.04.03-.09.04-.13,0-.06-.07-.11-.14-.16-.21-.38-.19-.75-.42-1.1-.71-1.35-2.08-3.44-3.91-6.04-3.55-2.73.37-2.93,2.86-1.42,4.63,1.33,1.56,3.1,2.43,4.03,4.33.84,1.71,1.24,3.56,2.17,5.23.74,1.32,1.78,2.47,3.02,3.33.52.36,1.05.59,1.6.75.6,0,1.23.18,1.4.77.07.25-.11.55-.26.72-.68.76-1.38,1.73-.36,2.59.75.63,1.59,1.08,2.48,1.38,1.28.23,2.62.18,3.98.01,2.55-.31,5.97-.69,7.7-2.63,1.13-1.27,2.15-4.55.36-5.9,1.2-1.06,2.17-2.41,2.83-3.99.92-2.21,1.29-5.31.78-8.04.04-.28.11-.56.2-.84.38-1.1,1.32-1.94,2.14-2.71,1.12-1.05,2.45-1.89,3.59-2.93,1.61-1.46,3.36-3.95,2.86-6.24Zm-14.19-1.82c.44-1.67,1.16-3.13,2.15-4.54,1-1.42,3.33-2.88,4.22-.38.42,1.19-.26,3.12-.67,4.25-1.16,3.21-3.82,6.07-3.97,9.57-1.34-.88-2.86-1.43-4.45-1.69,1.28-1.41,2.53-6.48,2.71-7.2Zm-9.28,6.97c.41-1.35.65-2.78.87-4.17.5-3.27.8-6.53,1.56-9.75.31-1.33,1.23-3.03,2.88-2.43,1.53.55,1.38,2.62,1.24,3.87-.2,1.7-.56,3.39-.86,5.07-.45,2.61-1.05,4.92-.4,7.48-1.92-.15-3.89.07-5.67.55.18-.15.31-.34.39-.62Zm22.21-2.25c-1.44,3.32-6.54,5.29-7.79,8.74-.08-.27-.17-.54-.27-.79.75,4,.39,8.94-2.12,12.01-.56.68-1.29,1.34-2.07,1.93.08.4.07.79-.05,1.15.02.04.02.09,0,.16-.67,1.79-3.44,2.97-5.12,3.5-1.34.42-2.69.61-4.1.63-.9,0-1.84.09-2.66-.33-.06-.03-.08-.08-.07-.14,0,0,0,0,0,0,0-.43-.03-.88-.2-1.27,0-.1-.02-.2-.04-.3.24.03.49.06.74.09-.27-.11-.54-.25-.81-.38-.64-.29-1.33-.42-1.99-.65-1.27-.45-2.3-1.21-3.1-2.3-1.8-2.43-2.19-5.44-3.66-8.02-.42-.55-.94-1.01-1.49-1.47-1.08-.9-4.88-3.44-1.86-5.13,2.92-1.63,4.79,1.58,6.63,3.1.01,0,.03.01.04.02.43.53.93.91,1.5,1.2.9.27,1.91.31,2.72.24,1.47-.12,2.71-.05,3.99.23-2.01-.61-4.13-.39-6.03-.99.28-.39.34-1,.44-1.41.15-.59.19-1.18.23-1.76-.07-.56-.15-1.13-.2-1.69-.03-.21-.06-.43-.07-.65-.02.05-.04.11-.06.17-.09-2.48-.13-4.96-.28-7.43-.15-2.53-.99-4.98-.57-7.53.11-.69.43-1.31.79-1.9,1.41-2.29,3.05-.07,3.45,1.18.54,1.69.35,3.81.32,5.57-.04,2.41-.5,4.99.44,7.28-.66.18-1.34.38-1.96.67-.03.03-.05.07-.08.1,2.23-1.11,5.06-1.2,7.45-1.12,2.52.09,6.19.53,7.9,2.71-.03-.11-.06-.21-.1-.32-.02-.05,0-.09.01-.14-.04-.03-.07-.06-.11-.09.13-.07.26-.18.42-.33,1.04-.97,1.98-2.02,2.99-3.01,1.03-1,2.09-1.97,3.19-2.88.69-.57,1.37-1.13,2.15-1.57,2.02-1.14,2.01,1.67,1.48,2.91Z"/>
              </g>
              <g>
                <path class="cls-39" d="m48.43,23.28c.7-1.3,1.51-3.34,1.52-5.15-.08-.6-.26-1.19-.55-1.77-1.08-.61-2.6.48-3.35,1.56-.99,1.41-1.72,2.87-2.15,4.54-.19.72-1.43,5.79-2.71,7.2,1.47.25,2.88.73,4.14,1.5.17-2.86,1.78-5.42,3.11-7.88Z"/>
                <path class="cls-25" d="m46.27,28.52c.37-.96.86-1.89,1.37-2.81.26-.51.52-1.02.77-1.53-.77,1.43-1.61,2.83-2.14,4.34Z"/>
                <path class="cls-14" d="m40.56,19.25c.31-1.74,1.22-5.68-1.22-6.24-.04,0-.06-.03-.08-.05-1.24,0-1.95,1.41-2.22,2.55-.76,3.23-1.06,6.49-1.56,9.75-.21,1.39-.45,2.82-.87,4.17-.08.27-.21.47-.39.62,1.71-.46,3.57-.67,5.41-.56-1.11-3.24.37-7.04.93-10.24Z"/>
                <path class="cls-26" d="m24.81,35.81c-.51-.5-1.05-.95-1.64-1.26.55.34,1.1.78,1.64,1.26Z"/>
                <path class="cls-40" d="m33.03,22.97c0-.51.03-1.05.04-1.6-.11,1.46-.19,2.93-.2,4.39,0,.44,0,.89.01,1.34-.04-1.38.12-2.78.14-4.14Z"/>
                <path class="cls-28" d="m56.54,24.09c-.28-.15-.67-.13-1.2.17-.78.44-1.46,1-2.15,1.57-1.11.91-2.17,1.88-3.19,2.88-1.01.99-1.96,2.04-2.99,3.01-.16.15-.29.27-.42.33.04.03.07.06.11.09-.02.04-.03.09-.01.14.07.2.13.4.19.6.03.24.06.48.09.71-.73-.87-1.69-1.56-2.88-2.1-4.07-1.85-8.37-1.82-12.47,0-.35.16-.63.33-.86.53.19-.41.44-.78.77-1.12.56-.26,1.16-.45,1.76-.62-2.72-4.33,1.99-11.77-2.55-15.06-.47-.05-.98.2-1.45.98-.36.59-.68,1.21-.79,1.9-.42,2.55.42,5,.57,7.53.15,2.48.19,4.96.28,7.43.02-.06.04-.11.06-.17.02.21.04.43.07.65.06.57.13,1.13.2,1.69-.03.58-.07,1.17-.23,1.76-.11.41-.16,1.02-.44,1.41,2.05.65,4.36.32,6.51,1.14,3.05,1.16,4.55,3.66,5.77,6.57.06.15-.12.36-.24.19-1-1.5-1.78-3.28-3.16-4.5-1.53-1.34-3.37-1.84-5.36-2-1.38-.11-2.78-.25-3.97-.79-3.11-.88-5.99-7.07-9.35-3.56,0,0-.02.01-.03.02-.87,1.59,1.93,3.48,2.84,4.24.09.07.17.15.26.22,2,.81,2.84,3.68,3.54,5.46,1.18,3,2.84,5.68,6.2,6.45.1.02.13.1.11.18.47.15.96.24,1.45.35.03.08-.04.21-.14.2-.37-.05-.74-.09-1.1-.13.02.1.03.2.04.3.17.39.2.84.2,1.27.13.06.29.1.48.11.86.06,1.66.08,2.53.03,1.76-.11,3.73-.4,5.31-1.21.99-.51,3.76-1.65,3.66-3.06-1.88,1.23-4.14,1.82-6.55,1.58-.07,0-.12-.05-.15-.1-.16-.09.03-.27,1.23-.47,7.2-1.22,9.94-7.24,9.7-13.37-.03-.47-.07-.93-.1-1.4-.06-.77-.31-1.51-.5-2.25.3.5.54,1.05.73,1.62.15-1.55,1.82-2.81,2.91-3.73,1.31-1.09,2.82-2.07,3.9-3.41,1.1-1.37,1.26-2.72.83-4.28Z"/>
              </g>
            </g>
            <g class="cls-8">
              <g>
                <path class="cls-19" d="m41.96,31.08c.9.23,1.79.53,2.67.93,1.07.48,1.94,1.1,2.64,1.85-1.03-1.69-3.21-2.46-5.31-2.78Z"/>
                <path class="cls-18" d="m58.65,24.78c-.55-2.5-3.98-.06-4.82.65-1.4,1.18-2.72,2.43-3.99,3.74-.2.2-2.5,2.73-3.13,2.94.01-.03.02-.06.02-.1.13-2.37,1.52-4.38,2.62-6.41.92-1.7,1.73-3.38,2.11-5.28.21-1.06.47-2.76-.44-3.6-.82-.76-2.55-1.32-3.49-.37-1.91,1.94-3,4.61-3.68,7.2-.19.72-1.3,5.49-2.4,6.56-.18-.03-.37-.06-.55-.08-1-3.79.66-8.17,1.31-11.96.29-1.71.39-5.49-2.35-5.31-2.68.17-2.89,3.98-3.26,5.97-.35,1.88-.55,3.79-.77,5.69-.13,1.08-.29,2.14-.49,3.21-.14.74-.28,2.44-.96,2.92-.9-2.02-.58-4.37-.48-6.52.09-1.84.25-3.9-.07-5.73-.33-1.88-2.2-4.81-4.22-2.44-1.84,2.15-1.52,5.02-1.11,7.61.61,3.85.72,7.75,1.17,11.63-.02.44-.05.87-.07,1.31.01-.23-.41,2.21-.44,2.18,0,0-.01,0-.02-.01v.06c0,.08-.08.15-.16.16-.04.03-.09.04-.13,0-.06-.07-.11-.14-.17-.21-.38-.19-.75-.42-1.1-.71-1.35-2.08-3.44-3.91-6.04-3.55-2.73.37-2.93,2.86-1.42,4.63,1.33,1.56,3.1,2.43,4.03,4.33.84,1.71,1.24,3.56,2.17,5.23.74,1.32,1.78,2.47,3.02,3.33.52.36,1.05.59,1.6.75.6,0,1.23.18,1.4.77.07.25-.11.55-.26.72-.68.76-1.38,1.73-.36,2.59.75.63,1.59,1.08,2.48,1.38,1.28.23,2.62.18,3.98.01,2.55-.31,5.97-.69,7.7-2.63,1.13-1.27,2.15-4.55.36-5.9,1.2-1.06,2.17-2.41,2.83-3.99.92-2.21,1.29-5.31.78-8.04.04-.28.11-.56.2-.84.38-1.1,1.32-1.94,2.14-2.71,1.12-1.05,2.45-1.89,3.59-2.93,1.61-1.46,3.36-3.95,2.86-6.24Zm-14.19-1.82c.44-1.67,1.16-3.13,2.15-4.54,1-1.42,3.33-2.88,4.22-.38.42,1.19-.26,3.12-.67,4.25-1.16,3.21-3.82,6.07-3.97,9.57-1.34-.88-2.86-1.43-4.45-1.69,1.28-1.41,2.53-6.48,2.71-7.2Zm-9.28,6.97c.41-1.35.65-2.78.87-4.17.5-3.27.8-6.53,1.56-9.75.31-1.33,1.23-3.03,2.88-2.43,1.53.55,1.38,2.62,1.24,3.87-.2,1.7-.56,3.39-.86,5.07-.45,2.61-1.05,4.92-.4,7.48-1.92-.15-3.89.07-5.67.55.18-.15.31-.34.39-.62Zm22.21-2.25c-1.44,3.32-6.54,5.29-7.79,8.74-.08-.27-.17-.54-.27-.79.75,4,.39,8.94-2.12,12.01-.56.68-1.29,1.34-2.07,1.93.08.4.07.79-.05,1.15.02.04.02.09,0,.16-.67,1.79-3.44,2.97-5.12,3.5-1.34.42-2.69.61-4.1.63-.9,0-1.84.09-2.66-.33-.06-.03-.08-.08-.07-.14,0,0,0,0,0,0,0-.43-.03-.88-.2-1.27,0-.1-.02-.2-.04-.3.24.03.49.06.74.09-.27-.11-.54-.25-.81-.38-.64-.29-1.33-.42-1.99-.65-1.27-.45-2.3-1.21-3.1-2.3-1.8-2.43-2.19-5.44-3.66-8.02-.42-.55-.94-1.01-1.49-1.47-1.08-.9-4.88-3.44-1.86-5.13,2.92-1.63,4.79,1.58,6.63,3.1.01,0,.03.01.04.02.43.53.93.91,1.5,1.2.9.27,1.91.31,2.72.24,1.47-.12,2.71-.05,3.99.23-2.01-.61-4.13-.39-6.03-.99.28-.39.34-1,.44-1.41.15-.59.19-1.18.23-1.76-.07-.56-.15-1.13-.2-1.69-.03-.21-.06-.43-.07-.65-.02.05-.04.11-.06.17-.09-2.48-.13-4.96-.28-7.43-.15-2.53-.99-4.98-.57-7.53.11-.69.43-1.31.79-1.9,1.41-2.29,3.05-.07,3.45,1.18.54,1.69.35,3.81.32,5.57-.04,2.41-.5,4.99.44,7.28-.66.18-1.34.38-1.96.67-.03.03-.05.07-.08.1,2.23-1.11,5.06-1.2,7.45-1.12,2.52.09,6.19.53,7.9,2.71-.03-.11-.06-.21-.1-.32-.02-.05,0-.09.01-.14-.04-.03-.07-.06-.11-.09.13-.07.26-.18.42-.33,1.04-.97,1.98-2.02,2.99-3.01,1.03-1,2.09-1.97,3.19-2.88.69-.57,1.37-1.13,2.15-1.57,2.02-1.14,2.01,1.67,1.48,2.91Z"/>
              </g>
              <g>
                <path class="cls-41" d="m48.99,23.78c.7-1.3,1.51-3.34,1.52-5.15-.08-.6-.26-1.19-.55-1.77-1.08-.61-2.6.48-3.35,1.56-.99,1.41-1.72,2.87-2.15,4.54-.19.72-1.43,5.79-2.71,7.2,1.47.25,2.88.73,4.14,1.5.17-2.86,1.78-5.42,3.11-7.88Z"/>
                <path class="cls-42" d="m46.83,29.02c.37-.96.86-1.89,1.37-2.81.26-.51.52-1.02.77-1.53-.77,1.43-1.61,2.83-2.14,4.34Z"/>
                <path class="cls-12" d="m41.12,19.75c.31-1.74,1.22-5.68-1.22-6.24-.04,0-.06-.03-.08-.05-1.24,0-1.95,1.41-2.22,2.55-.76,3.23-1.06,6.49-1.56,9.75-.21,1.39-.45,2.82-.87,4.17-.08.27-.21.47-.39.62,1.71-.46,3.57-.67,5.41-.56-1.11-3.24.37-7.04.93-10.24Z"/>
                <path class="cls-9" d="m25.37,36.31c-.51-.5-1.05-.95-1.64-1.26.55.34,1.1.78,1.64,1.26Z"/>
                <path class="cls-20" d="m33.59,23.47c0-.51.03-1.05.04-1.6-.11,1.46-.19,2.93-.2,4.39,0,.44,0,.89.01,1.34-.04-1.38.12-2.78.14-4.14Z"/>
                <path class="cls-3" d="m57.1,24.59c-.28-.15-.67-.13-1.2.17-.78.44-1.46,1-2.15,1.57-1.11.91-2.17,1.88-3.19,2.88-1.01.99-1.96,2.04-2.99,3.01-.16.15-.29.27-.42.33.04.03.07.06.11.09-.02.04-.03.09-.01.14.07.2.13.4.19.6.03.24.06.48.09.71-.73-.87-1.69-1.56-2.88-2.1-4.07-1.85-8.37-1.82-12.47,0-.35.16-.63.33-.86.53.19-.41.44-.78.77-1.12.56-.26,1.16-.45,1.76-.62-2.72-4.33,1.99-11.77-2.55-15.06-.47-.05-.98.2-1.45.98-.36.59-.68,1.21-.79,1.9-.42,2.55.42,5,.57,7.53.15,2.48.19,4.96.28,7.43.02-.06.04-.11.06-.17.02.21.04.43.07.65.06.57.13,1.13.2,1.69-.03.58-.07,1.17-.23,1.76-.11.41-.16,1.02-.44,1.41,2.05.65,4.36.32,6.51,1.14,3.05,1.16,4.55,3.66,5.77,6.57.06.15-.12.36-.24.19-1-1.5-1.78-3.28-3.16-4.5-1.53-1.34-3.37-1.84-5.36-2-1.38-.11-2.78-.25-3.97-.79-3.11-.88-5.99-7.07-9.35-3.56,0,0-.02.01-.03.02-.87,1.59,1.93,3.48,2.84,4.24.09.07.17.15.26.22,2,.81,2.84,3.68,3.54,5.46,1.18,3,2.84,5.68,6.2,6.45.1.02.13.1.11.18.47.15.96.24,1.45.35.03.08-.04.21-.14.2-.37-.05-.74-.09-1.1-.13.02.1.03.2.04.3.17.39.2.84.2,1.27.13.06.29.1.48.11.86.06,1.66.08,2.53.03,1.76-.11,3.73-.4,5.31-1.21.99-.51,3.76-1.65,3.66-3.06-1.88,1.23-4.14,1.82-6.55,1.58-.07,0-.12-.05-.15-.1-.16-.09.03-.27,1.23-.47,7.2-1.22,9.94-7.24,9.7-13.37-.03-.47-.07-.93-.1-1.4-.06-.77-.31-1.51-.5-2.25.3.5.54,1.05.73,1.62.15-1.55,1.82-2.81,2.91-3.73,1.31-1.09,2.82-2.07,3.9-3.41,1.1-1.37,1.26-2.72.83-4.28Z"/>
              </g>
            </g>
            <g class="cls-8">
              <g>
                <path class="cls-10" d="m42.52,31.58c.9.23,1.79.53,2.67.93,1.07.48,1.94,1.1,2.64,1.85-1.03-1.69-3.21-2.46-5.31-2.78Z"/>
                <path class="cls-38" d="m59.21,25.28c-.55-2.5-3.98-.06-4.82.65-1.4,1.18-2.72,2.43-3.99,3.74-.2.2-2.5,2.73-3.13,2.94.01-.03.02-.06.02-.1.13-2.37,1.52-4.38,2.62-6.41.92-1.7,1.73-3.38,2.11-5.28.21-1.06.47-2.76-.44-3.6-.82-.76-2.55-1.32-3.49-.37-1.91,1.94-3,4.61-3.68,7.2-.19.72-1.3,5.49-2.4,6.56-.18-.03-.37-.06-.55-.08-1-3.79.66-8.17,1.31-11.96.29-1.71.39-5.49-2.35-5.31-2.68.17-2.89,3.98-3.26,5.97-.35,1.88-.55,3.79-.77,5.69-.13,1.08-.29,2.14-.49,3.21-.14.74-.28,2.44-.96,2.92-.9-2.02-.58-4.37-.48-6.52.09-1.84.25-3.9-.07-5.73-.33-1.88-2.2-4.81-4.22-2.44-1.84,2.15-1.52,5.02-1.11,7.61.61,3.85.72,7.75,1.17,11.63-.02.44-.05.87-.07,1.31.01-.23-.41,2.21-.44,2.18,0,0-.01,0-.02-.01v.06c0,.08-.08.15-.16.16-.04.03-.09.04-.13,0-.06-.07-.11-.14-.16-.21-.38-.19-.75-.42-1.1-.71-1.35-2.08-3.44-3.91-6.04-3.55-2.73.37-2.93,2.86-1.42,4.63,1.33,1.56,3.1,2.43,4.03,4.33.84,1.71,1.24,3.56,2.17,5.23.74,1.32,1.78,2.47,3.02,3.33.52.36,1.05.59,1.6.75.6,0,1.23.18,1.4.77.07.25-.11.55-.26.72-.68.76-1.38,1.73-.36,2.59.75.63,1.59,1.08,2.48,1.38,1.28.23,2.62.18,3.98.01,2.55-.31,5.97-.69,7.7-2.63,1.13-1.27,2.15-4.55.36-5.9,1.2-1.06,2.17-2.41,2.83-3.99.92-2.21,1.29-5.31.78-8.04.04-.28.11-.56.2-.84.38-1.1,1.32-1.94,2.14-2.71,1.12-1.05,2.45-1.89,3.59-2.93,1.61-1.46,3.36-3.95,2.86-6.24Zm-14.19-1.82c.44-1.67,1.16-3.13,2.15-4.54,1-1.42,3.33-2.88,4.22-.38.42,1.19-.26,3.12-.67,4.25-1.16,3.21-3.82,6.07-3.97,9.57-1.34-.88-2.86-1.43-4.45-1.69,1.28-1.41,2.53-6.48,2.71-7.2Zm-9.28,6.97c.41-1.35.65-2.78.87-4.17.5-3.27.8-6.53,1.56-9.75.31-1.33,1.23-3.03,2.88-2.43,1.53.55,1.38,2.62,1.24,3.87-.2,1.7-.56,3.39-.86,5.07-.45,2.61-1.05,4.92-.4,7.48-1.92-.15-3.89.07-5.67.55.18-.15.31-.34.39-.62Zm22.21-2.25c-1.44,3.32-6.54,5.29-7.79,8.74-.08-.27-.17-.54-.27-.79.75,4,.39,8.94-2.12,12.01-.56.68-1.29,1.34-2.07,1.93.08.4.07.79-.05,1.15.02.04.02.09,0,.16-.67,1.79-3.44,2.97-5.12,3.5-1.34.42-2.69.61-4.1.63-.9,0-1.84.09-2.66-.33-.06-.03-.08-.08-.07-.14,0,0,0,0,0,0,0-.43-.03-.88-.2-1.27,0-.1-.02-.2-.04-.3.24.03.49.06.74.09-.27-.11-.54-.25-.81-.38-.64-.29-1.33-.42-1.99-.65-1.27-.45-2.3-1.21-3.1-2.3-1.8-2.43-2.19-5.44-3.66-8.02-.42-.55-.94-1.01-1.49-1.47-1.08-.9-4.88-3.44-1.86-5.13,2.92-1.63,4.79,1.58,6.63,3.1.01,0,.03.01.04.02.43.53.93.91,1.5,1.2.9.27,1.91.31,2.72.24,1.47-.12,2.71-.05,3.99.23-2.01-.61-4.13-.39-6.03-.99.28-.39.34-1,.44-1.41.15-.59.19-1.18.23-1.76-.07-.56-.15-1.13-.2-1.69-.03-.21-.06-.43-.07-.65-.02.05-.04.11-.06.17-.09-2.48-.13-4.96-.28-7.43-.15-2.53-.99-4.98-.57-7.53.11-.69.43-1.31.79-1.9,1.41-2.29,3.05-.07,3.45,1.18.54,1.69.35,3.81.32,5.57-.04,2.41-.5,4.99.44,7.28-.66.18-1.34.38-1.96.67-.03.03-.05.07-.08.1,2.23-1.11,5.06-1.2,7.45-1.12,2.52.09,6.19.53,7.9,2.71-.03-.11-.06-.21-.1-.32-.02-.05,0-.09.01-.14-.04-.03-.07-.06-.11-.09.13-.07.26-.18.42-.33,1.04-.97,1.98-2.02,2.99-3.01,1.03-1,2.09-1.97,3.19-2.88.69-.57,1.37-1.13,2.15-1.57,2.02-1.14,2.01,1.67,1.48,2.91Z"/>
              </g>
              <g>
                <path class="cls-13" d="m49.55,24.28c.7-1.3,1.51-3.34,1.52-5.15-.08-.6-.26-1.19-.55-1.77-1.08-.61-2.6.48-3.35,1.56-.99,1.41-1.72,2.87-2.15,4.54-.19.72-1.43,5.79-2.71,7.2,1.47.25,2.88.73,4.14,1.5.17-2.86,1.78-5.42,3.11-7.88Z"/>
                <path class="cls-23" d="m47.39,29.52c.37-.96.86-1.89,1.37-2.81.26-.51.52-1.02.77-1.53-.77,1.43-1.61,2.83-2.14,4.34Z"/>
                <path class="cls-29" d="m41.69,20.25c.31-1.74,1.22-5.68-1.22-6.24-.04,0-.06-.03-.08-.05-1.24,0-1.95,1.41-2.22,2.55-.76,3.23-1.06,6.49-1.56,9.75-.21,1.39-.45,2.82-.87,4.17-.08.27-.21.47-.39.62,1.71-.46,3.57-.67,5.41-.56-1.11-3.24.37-7.04.93-10.24Z"/>
                <path class="cls-37" d="m25.94,36.81c-.51-.5-1.05-.95-1.64-1.26.55.34,1.1.78,1.64,1.26Z"/>
                <path class="cls-27" d="m34.15,23.97c0-.51.03-1.05.04-1.6-.11,1.46-.19,2.93-.2,4.39,0,.44,0,.89.01,1.34-.04-1.38.12-2.78.14-4.14Z"/>
                <path class="cls-24" d="m57.66,25.09c-.28-.15-.67-.13-1.2.17-.78.44-1.46,1-2.15,1.57-1.11.91-2.17,1.88-3.19,2.88-1.01.99-1.96,2.04-2.99,3.01-.16.15-.29.27-.42.33.04.03.07.06.11.09-.02.04-.03.09-.01.14.07.2.13.4.19.6.03.24.06.48.09.71-.73-.87-1.69-1.56-2.88-2.1-4.07-1.85-8.37-1.82-12.47,0-.35.16-.63.33-.86.53.19-.41.44-.78.77-1.12.56-.26,1.16-.45,1.76-.62-2.72-4.33,1.99-11.77-2.55-15.06-.47-.05-.98.2-1.45.98-.36.59-.68,1.21-.79,1.9-.42,2.55.42,5,.57,7.53.15,2.48.19,4.96.28,7.43.02-.06.04-.11.06-.17.02.21.04.43.07.65.06.57.13,1.13.2,1.69-.03.58-.07,1.17-.23,1.76-.11.41-.16,1.02-.44,1.41,2.05.65,4.36.32,6.51,1.14,3.05,1.16,4.55,3.66,5.77,6.57.06.15-.12.36-.24.19-1-1.5-1.78-3.28-3.16-4.5-1.53-1.34-3.37-1.84-5.36-2-1.38-.11-2.78-.25-3.97-.79-3.11-.88-5.99-7.07-9.35-3.56,0,0-.02.01-.03.02-.87,1.59,1.93,3.48,2.84,4.24.09.07.17.15.26.22,2,.81,2.84,3.68,3.54,5.46,1.18,3,2.84,5.68,6.2,6.45.1.02.13.1.11.18.47.15.96.24,1.45.35.03.08-.04.21-.14.2-.37-.05-.74-.09-1.1-.13.02.1.03.2.04.3.17.39.2.84.2,1.27.13.06.29.1.48.11.86.06,1.66.08,2.53.03,1.76-.11,3.73-.4,5.31-1.21.99-.51,3.76-1.65,3.66-3.06-1.88,1.23-4.14,1.82-6.55,1.58-.07,0-.12-.05-.15-.1-.16-.09.03-.27,1.23-.47,7.2-1.22,9.94-7.24,9.7-13.37-.03-.47-.07-.93-.1-1.4-.06-.77-.31-1.51-.5-2.25.3.5.54,1.05.73,1.62.15-1.55,1.82-2.81,2.91-3.73,1.31-1.09,2.82-2.07,3.9-3.41,1.1-1.37,1.26-2.72.83-4.28Z"/>
              </g>
            </g>
            <g class="cls-8">
              <g>
                <path class="cls-43" d="m43.08,32.08c.9.23,1.79.53,2.67.93,1.07.48,1.94,1.1,2.64,1.85-1.03-1.69-3.21-2.46-5.31-2.78Z"/>
                <path class="cls-33" d="m59.77,25.78c-.55-2.5-3.98-.06-4.82.65-1.4,1.18-2.72,2.43-3.99,3.74-.2.2-2.5,2.73-3.13,2.94.01-.03.02-.06.02-.1.13-2.37,1.52-4.38,2.62-6.41.92-1.7,1.73-3.38,2.11-5.28.21-1.06.47-2.76-.44-3.6-.82-.76-2.55-1.32-3.49-.37-1.91,1.94-3,4.61-3.68,7.2-.19.72-1.3,5.49-2.4,6.56-.18-.03-.37-.06-.55-.08-1-3.79.66-8.17,1.31-11.96.29-1.71.39-5.49-2.35-5.31-2.68.17-2.89,3.98-3.26,5.97-.35,1.88-.55,3.79-.77,5.69-.13,1.08-.29,2.14-.49,3.21-.14.74-.28,2.44-.96,2.92-.9-2.02-.58-4.37-.48-6.52.09-1.84.25-3.9-.07-5.73-.33-1.88-2.2-4.81-4.22-2.44-1.84,2.15-1.52,5.02-1.11,7.61.61,3.85.72,7.75,1.17,11.63-.02.44-.05.87-.07,1.31.01-.23-.41,2.21-.44,2.18,0,0-.01,0-.02-.01v.06c0,.08-.08.15-.16.16-.04.03-.09.04-.13,0-.06-.07-.11-.14-.17-.21-.38-.19-.75-.42-1.1-.71-1.35-2.08-3.44-3.91-6.04-3.55-2.73.37-2.93,2.86-1.42,4.63,1.33,1.56,3.1,2.43,4.03,4.33.84,1.71,1.24,3.56,2.17,5.23.74,1.32,1.78,2.47,3.02,3.33.52.36,1.05.59,1.6.75.6,0,1.23.18,1.4.77.07.25-.11.55-.26.72-.68.76-1.38,1.73-.36,2.59.75.63,1.59,1.08,2.48,1.38,1.28.23,2.62.18,3.98.01,2.55-.31,5.97-.69,7.7-2.63,1.13-1.27,2.15-4.55.36-5.9,1.2-1.06,2.17-2.41,2.83-3.99.92-2.21,1.29-5.31.78-8.04.04-.28.11-.56.2-.84.38-1.1,1.32-1.94,2.14-2.71,1.12-1.05,2.45-1.89,3.59-2.93,1.61-1.46,3.36-3.95,2.86-6.24Zm-14.19-1.82c.44-1.67,1.16-3.13,2.15-4.54,1-1.42,3.33-2.88,4.22-.38.42,1.19-.26,3.12-.67,4.25-1.16,3.21-3.82,6.07-3.97,9.57-1.34-.88-2.86-1.43-4.45-1.69,1.28-1.41,2.53-6.48,2.71-7.2Zm-9.28,6.97c.41-1.35.65-2.78.87-4.17.5-3.27.8-6.53,1.56-9.75.31-1.33,1.23-3.03,2.88-2.43,1.53.55,1.38,2.62,1.24,3.87-.2,1.7-.56,3.39-.86,5.07-.45,2.61-1.05,4.92-.4,7.48-1.92-.15-3.89.07-5.67.55.18-.15.31-.34.39-.62Zm22.21-2.25c-1.44,3.32-6.54,5.29-7.79,8.74-.08-.27-.17-.54-.27-.79.75,4,.39,8.94-2.12,12.01-.56.68-1.29,1.34-2.07,1.93.08.4.07.79-.05,1.15.02.04.02.09,0,.16-.67,1.79-3.44,2.97-5.12,3.5-1.34.42-2.69.61-4.1.63-.9,0-1.84.09-2.66-.33-.06-.03-.08-.08-.07-.14,0,0,0,0,0,0,0-.43-.03-.88-.2-1.27,0-.1-.02-.2-.04-.3.24.03.49.06.74.09-.27-.11-.54-.25-.81-.38-.64-.29-1.33-.42-1.99-.65-1.27-.45-2.3-1.21-3.1-2.3-1.8-2.43-2.19-5.44-3.66-8.02-.42-.55-.94-1.01-1.49-1.47-1.08-.9-4.88-3.44-1.86-5.13,2.92-1.63,4.79,1.58,6.63,3.1.01,0,.03.01.04.02.43.53.93.91,1.5,1.2.9.27,1.91.31,2.72.24,1.47-.12,2.71-.05,3.99.23-2.01-.61-4.13-.39-6.03-.99.28-.39.34-1,.44-1.41.15-.59.19-1.18.23-1.76-.07-.56-.15-1.13-.2-1.69-.03-.21-.06-.43-.07-.65-.02.05-.04.11-.06.17-.09-2.48-.13-4.96-.28-7.43-.15-2.53-.99-4.98-.57-7.53.11-.69.43-1.31.79-1.9,1.41-2.29,3.05-.07,3.45,1.18.54,1.69.35,3.81.32,5.57-.04,2.41-.5,4.99.44,7.28-.66.18-1.34.38-1.96.67-.03.03-.05.07-.08.1,2.23-1.11,5.06-1.2,7.45-1.12,2.52.09,6.19.53,7.9,2.71-.03-.11-.06-.21-.1-.32-.02-.05,0-.09.01-.14-.04-.03-.07-.06-.11-.09.13-.07.26-.18.42-.33,1.04-.97,1.98-2.02,2.99-3.01,1.03-1,2.09-1.97,3.19-2.88.69-.57,1.37-1.13,2.15-1.57,2.02-1.14,2.01,1.67,1.48,2.91Z"/>
              </g>
              <g>
                <path class="cls-11" d="m50.12,24.78c.7-1.3,1.51-3.34,1.52-5.15-.08-.6-.26-1.19-.55-1.77-1.08-.61-2.6.48-3.35,1.56-.99,1.41-1.72,2.87-2.15,4.54-.19.72-1.43,5.79-2.71,7.2,1.47.25,2.88.73,4.14,1.5.17-2.86,1.78-5.42,3.11-7.88Z"/>
                <path class="cls-35" d="m47.96,30.02c.37-.96.86-1.89,1.37-2.81.26-.51.52-1.02.77-1.53-.77,1.43-1.61,2.83-2.14,4.34Z"/>
                <path class="cls-36" d="m42.25,20.75c.31-1.74,1.22-5.68-1.22-6.24-.04,0-.06-.03-.08-.05-1.24,0-1.95,1.41-2.22,2.55-.76,3.23-1.06,6.49-1.56,9.75-.21,1.39-.45,2.82-.87,4.17-.08.27-.21.47-.39.62,1.71-.46,3.57-.67,5.41-.56-1.11-3.24.37-7.04.93-10.24Z"/>
                <path class="cls-21" d="m26.5,37.31c-.51-.5-1.05-.95-1.64-1.26.55.34,1.1.78,1.64,1.26Z"/>
                <path class="cls-17" d="m34.71,24.47c0-.51.03-1.05.04-1.6-.11,1.46-.19,2.93-.2,4.39,0,.44,0,.89.01,1.34-.04-1.38.12-2.78.14-4.14Z"/>
                <path class="cls-34" d="m58.22,25.59c-.28-.15-.67-.13-1.2.17-.78.44-1.46,1-2.15,1.57-1.11.91-2.17,1.88-3.19,2.88-1.01.99-1.96,2.04-2.99,3.01-.16.15-.29.27-.42.33.04.03.07.06.11.09-.02.04-.03.09-.01.14.07.2.13.4.19.6.03.24.06.48.09.71-.73-.87-1.69-1.56-2.88-2.1-4.07-1.85-8.37-1.82-12.47,0-.35.16-.63.33-.86.53.19-.41.44-.78.77-1.12.56-.26,1.16-.45,1.76-.62-2.72-4.33,1.99-11.77-2.55-15.06-.47-.05-.98.2-1.45.98-.36.59-.68,1.21-.79,1.9-.42,2.55.42,5,.57,7.53.15,2.48.19,4.96.28,7.43.02-.06.04-.11.06-.17.02.21.04.43.07.65.06.57.13,1.13.2,1.69-.03.58-.07,1.17-.23,1.76-.11.41-.16,1.02-.44,1.41,2.05.65,4.36.32,6.51,1.14,3.05,1.16,4.55,3.66,5.77,6.57.06.15-.12.36-.24.19-1-1.5-1.78-3.28-3.16-4.5-1.53-1.34-3.37-1.84-5.36-2-1.38-.11-2.78-.25-3.97-.79-3.11-.88-5.99-7.07-9.35-3.56,0,0-.02.01-.03.02-.87,1.59,1.93,3.48,2.84,4.24.09.07.17.15.26.22,2,.81,2.84,3.68,3.54,5.46,1.18,3,2.84,5.68,6.2,6.45.1.02.13.1.11.18.47.15.96.24,1.45.35.03.08-.04.21-.14.2-.37-.05-.74-.09-1.1-.13.02.1.03.2.04.3.17.39.2.84.2,1.27.13.06.29.1.48.11.86.06,1.66.08,2.53.03,1.76-.11,3.73-.4,5.31-1.21.99-.51,3.76-1.65,3.66-3.06-1.88,1.23-4.14,1.82-6.55,1.58-.07,0-.12-.05-.15-.1-.16-.09.03-.27,1.23-.47,7.2-1.22,9.94-7.24,9.7-13.37-.03-.47-.07-.93-.1-1.4-.06-.77-.31-1.51-.5-2.25.3.5.54,1.05.73,1.62.15-1.55,1.82-2.81,2.91-3.73,1.31-1.09,2.82-2.07,3.9-3.41,1.1-1.37,1.26-2.72.83-4.28Z"/>
              </g>
            </g>
            <g>
              <g>
                <path class="cls-2" d="m40.83,30.08c.9.23,1.79.53,2.67.93,1.07.48,1.94,1.1,2.64,1.85-1.03-1.69-3.21-2.46-5.31-2.78Z"/>
                <path class="cls-2" d="m57.52,23.78c-.55-2.5-3.98-.06-4.82.65-1.4,1.18-2.72,2.43-3.99,3.74-.2.2-2.5,2.73-3.13,2.94.01-.03.02-.06.02-.1.13-2.37,1.52-4.38,2.62-6.41.92-1.7,1.73-3.38,2.11-5.28.21-1.06.47-2.76-.44-3.6-.82-.76-2.55-1.32-3.49-.37-1.91,1.94-3,4.61-3.68,7.2-.19.72-1.3,5.49-2.4,6.56-.18-.03-.37-.06-.55-.08-1-3.79.66-8.17,1.31-11.96.29-1.71.39-5.49-2.35-5.31-2.68.17-2.89,3.98-3.26,5.97-.35,1.88-.55,3.79-.77,5.69-.13,1.08-.29,2.14-.49,3.21-.14.74-.28,2.44-.96,2.92-.9-2.02-.58-4.37-.48-6.52.09-1.84.25-3.9-.07-5.73-.33-1.88-2.2-4.81-4.22-2.44-1.84,2.15-1.52,5.02-1.11,7.61.61,3.85.72,7.75,1.17,11.63-.02.44-.05.87-.07,1.31.01-.23-.41,2.21-.44,2.18,0,0-.01,0-.02-.01v.06c0,.08-.08.15-.16.16-.04.03-.09.04-.13,0-.06-.07-.11-.14-.17-.21-.38-.19-.75-.42-1.1-.71-1.35-2.08-3.44-3.91-6.04-3.55-2.73.37-2.93,2.86-1.42,4.63,1.33,1.56,3.1,2.43,4.03,4.33.84,1.71,1.24,3.56,2.17,5.23.74,1.32,1.78,2.47,3.02,3.33.52.36,1.05.59,1.6.75.6,0,1.23.18,1.4.77.07.25-.11.55-.26.72-.68.76-1.38,1.73-.36,2.59.75.63,1.59,1.08,2.48,1.38,1.28.23,2.62.18,3.98.01,2.55-.31,5.97-.69,7.7-2.63,1.13-1.27,2.15-4.55.36-5.9,1.2-1.06,2.17-2.41,2.83-3.99.92-2.21,1.29-5.31.78-8.04.04-.28.11-.56.2-.84.38-1.1,1.32-1.94,2.14-2.71,1.12-1.05,2.45-1.89,3.59-2.93,1.61-1.46,3.36-3.95,2.86-6.24Zm-14.19-1.82c.44-1.67,1.16-3.13,2.15-4.54,1-1.42,3.33-2.88,4.22-.38.42,1.19-.26,3.12-.67,4.25-1.16,3.21-3.82,6.07-3.97,9.57-1.34-.88-2.86-1.43-4.45-1.69,1.28-1.41,2.53-6.48,2.71-7.2Zm-9.28,6.97c.41-1.35.65-2.78.87-4.17.5-3.27.8-6.53,1.56-9.75.31-1.33,1.23-3.03,2.88-2.43,1.53.55,1.38,2.62,1.24,3.87-.2,1.7-.56,3.39-.86,5.07-.45,2.61-1.05,4.92-.4,7.48-1.92-.15-3.89.07-5.67.55.18-.15.31-.34.39-.62Zm22.21-2.25c-1.44,3.32-6.54,5.29-7.79,8.74-.08-.27-.17-.54-.27-.79.75,4,.39,8.94-2.12,12.01-.56.68-1.29,1.34-2.07,1.93.08.4.07.79-.05,1.15.02.04.02.09,0,.16-.67,1.79-3.44,2.97-5.12,3.5-1.34.42-2.69.61-4.1.63-.9,0-1.84.09-2.66-.33-.06-.03-.08-.08-.07-.14,0,0,0,0,0,0,0-.43-.03-.88-.2-1.27,0-.1-.02-.2-.04-.3.24.03.49.06.74.09-.27-.11-.54-.25-.81-.38-.64-.29-1.33-.42-1.99-.65-1.27-.45-2.3-1.21-3.1-2.3-1.8-2.43-2.19-5.44-3.66-8.02-.42-.55-.94-1.01-1.49-1.47-1.08-.9-4.88-3.44-1.86-5.13,2.92-1.63,4.79,1.58,6.63,3.1.01,0,.03.01.04.02.43.53.93.91,1.5,1.2.9.27,1.91.31,2.72.24,1.47-.12,2.71-.05,3.99.23-2.01-.61-4.13-.39-6.03-.99.28-.39.34-1,.44-1.41.15-.59.19-1.18.23-1.76-.07-.56-.15-1.13-.2-1.69-.03-.21-.06-.43-.07-.65-.02.05-.04.11-.06.17-.09-2.48-.13-4.96-.28-7.43-.15-2.53-.99-4.98-.57-7.53.11-.69.43-1.31.79-1.9,1.41-2.29,3.05-.07,3.45,1.18.54,1.69.35,3.81.32,5.57-.04,2.41-.5,4.99.44,7.28-.66.18-1.34.38-1.96.67-.03.03-.05.07-.08.1,2.23-1.11,5.06-1.2,7.45-1.12,2.52.09,6.19.53,7.9,2.71-.03-.11-.06-.21-.1-.32-.02-.05,0-.09.01-.14-.04-.03-.07-.06-.11-.09.13-.07.26-.18.42-.33,1.04-.97,1.98-2.02,2.99-3.01,1.03-1,2.09-1.97,3.19-2.88.69-.57,1.37-1.13,2.15-1.57,2.02-1.14,2.01,1.67,1.48,2.91Z"/>
              </g>
              <g>
                <path class="cls-2" d="m47.87,22.78c.7-1.3,1.51-3.34,1.52-5.15-.08-.6-.26-1.19-.55-1.77-1.08-.61-2.6.48-3.35,1.56-.99,1.41-1.72,2.87-2.15,4.54-.19.72-1.43,5.79-2.71,7.2,1.47.25,2.88.73,4.14,1.5.17-2.86,1.78-5.42,3.11-7.88Z"/>
                <path class="cls-2" d="m45.71,28.02c.37-.96.86-1.89,1.37-2.81.26-.51.52-1.02.77-1.53-.77,1.43-1.61,2.83-2.14,4.34Z"/>
                <path class="cls-2" d="m40,18.75c.31-1.74,1.22-5.68-1.22-6.24-.04,0-.06-.03-.08-.05-1.24,0-1.95,1.41-2.22,2.55-.76,3.23-1.06,6.49-1.56,9.75-.21,1.39-.45,2.82-.87,4.17-.08.27-.21.47-.39.62,1.71-.46,3.57-.67,5.41-.56-1.11-3.24.37-7.04.93-10.24Z"/>
                <path class="cls-2" d="m24.25,35.31c-.51-.5-1.05-.95-1.64-1.26.55.34,1.1.78,1.64,1.26Z"/>
                <path class="cls-2" d="m32.46,22.47c0-.51.03-1.05.04-1.6-.11,1.46-.19,2.93-.2,4.39,0,.44,0,.89.01,1.34-.04-1.38.12-2.78.14-4.14Z"/>
                <path class="cls-2" d="m55.97,23.59c-.28-.15-.67-.13-1.2.17-.78.44-1.46,1-2.15,1.57-1.11.91-2.17,1.88-3.19,2.88-1.01.99-1.96,2.04-2.99,3.01-.16.15-.29.27-.42.33.04.03.07.06.11.09-.02.04-.03.09-.01.14.07.2.13.4.19.6.03.24.06.48.09.71-.73-.87-1.69-1.56-2.88-2.1-4.07-1.85-8.37-1.82-12.47,0-.35.16-.63.33-.86.53.19-.41.44-.78.77-1.12.56-.26,1.16-.45,1.76-.62-2.72-4.33,1.99-11.77-2.55-15.06-.47-.05-.98.2-1.45.98-.36.59-.68,1.21-.79,1.9-.42,2.55.42,5,.57,7.53.15,2.48.19,4.96.28,7.43.02-.06.04-.11.06-.17.02.21.04.43.07.65.06.57.13,1.13.2,1.69-.03.58-.07,1.17-.23,1.76-.11.41-.16,1.02-.44,1.41,2.05.65,4.36.32,6.51,1.14,3.05,1.16,4.55,3.66,5.77,6.57.06.15-.12.36-.24.19-1-1.5-1.78-3.28-3.16-4.5-1.53-1.34-3.37-1.84-5.36-2-1.38-.11-2.78-.25-3.97-.79-3.11-.88-5.99-7.07-9.35-3.56,0,0-.02.01-.03.02-.87,1.59,1.93,3.48,2.84,4.24.09.07.17.15.26.22,2,.81,2.84,3.68,3.54,5.46,1.18,3,2.84,5.68,6.2,6.45.1.02.13.1.11.18.47.15.96.24,1.45.35.03.08-.04.21-.14.2-.37-.05-.74-.09-1.1-.13.02.1.03.2.04.3.17.39.2.84.2,1.27.13.06.29.1.48.11.86.06,1.66.08,2.53.03,1.76-.11,3.73-.4,5.31-1.21.99-.51,3.76-1.65,3.66-3.06-1.88,1.23-4.14,1.82-6.55,1.58-.07,0-.12-.05-.15-.1-.16-.09.03-.27,1.23-.47,7.2-1.22,9.94-7.24,9.7-13.37-.03-.47-.07-.93-.1-1.4-.06-.77-.31-1.51-.5-2.25.3.5.54,1.05.73,1.62.15-1.55,1.82-2.81,2.91-3.73,1.31-1.09,2.82-2.07,3.9-3.41,1.1-1.37,1.26-2.72.83-4.28Z"/>
              </g>
            </g>
          </g>
        </g>
      </g>
    </g>
  </g>
</svg>