<?xml version="1.0" encoding="UTF-8"?>
<svg xmlns="http://www.w3.org/2000/svg" xmlns:xlink="http://www.w3.org/1999/xlink" viewBox="0 0 70 70">
  <defs>
    <style>
      .cls-1 {
        fill: url(#linear-gradient-2);
      }

      .cls-2 {
        fill: #fff;
      }

      .cls-3 {
        fill: url(#linear-gradient-17);
      }

      .cls-4 {
        fill: #1063b0;
      }

      .cls-5 {
        fill: url(#linear-gradient);
      }

      .cls-5, .cls-6, .cls-7 {
        mix-blend-mode: multiply;
      }

      .cls-8 {
        fill: url(#linear-gradient-15);
      }

      .cls-9 {
        fill: url(#linear-gradient-18);
      }

      .cls-10 {
        fill: url(#linear-gradient-28);
      }

      .cls-11 {
        fill: url(#linear-gradient-14);
      }

      .cls-12 {
        fill: url(#linear-gradient-20);
      }

      .cls-13 {
        fill: url(#linear-gradient-6);
      }

      .cls-14 {
        isolation: isolate;
      }

      .cls-15 {
        fill: url(#radial-gradient-2);
        mix-blend-mode: screen;
        opacity: .9;
      }

      .cls-16 {
        fill: url(#linear-gradient-11);
      }

      .cls-6 {
        fill: url(#radial-gradient);
      }

      .cls-17 {
        fill: url(#linear-gradient-10);
      }

      .cls-18 {
        fill: url(#linear-gradient-16);
      }

      .cls-19 {
        fill: #446cb1;
      }

      .cls-20 {
        fill: url(#linear-gradient-21);
      }

      .cls-21 {
        fill: url(#linear-gradient-25);
      }

      .cls-22 {
        fill: url(#linear-gradient-5);
      }

      .cls-23 {
        fill: url(#linear-gradient-7);
      }

      .cls-7 {
        opacity: .6;
      }

      .cls-24 {
        fill: url(#linear-gradient-24);
      }

      .cls-25 {
        fill: url(#linear-gradient-9);
      }

      .cls-26 {
        fill: url(#linear-gradient-22);
      }

      .cls-27 {
        mask: url(#mask-1);
      }

      .cls-28 {
        mask: url(#mask);
      }

      .cls-29 {
        fill: url(#linear-gradient-3);
      }

      .cls-30 {
        fill: url(#linear-gradient-27);
      }

      .cls-31 {
        fill: #35b5e9;
      }

      .cls-32 {
        fill: url(#linear-gradient-29);
      }

      .cls-33 {
        fill: url(#linear-gradient-23);
      }

      .cls-34 {
        fill: url(#linear-gradient-19);
      }

      .cls-35 {
        fill: url(#linear-gradient-4);
      }

      .cls-36 {
        fill: url(#linear-gradient-8);
      }

      .cls-37 {
        fill: url(#linear-gradient-12);
      }

      .cls-38 {
        fill: url(#linear-gradient-13);
      }

      .cls-39 {
        fill: url(#linear-gradient-26);
      }
    </style>
    <filter id="luminosity-noclip" x="2.02" y="-8227.32" width="49.33" height="32766" color-interpolation-filters="sRGB" filterUnits="userSpaceOnUse">
      <feFlood flood-color="#fff" result="bg"/>
      <feBlend in="SourceGraphic" in2="bg"/>
    </filter>
    <mask id="mask-1" x="2.02" y="-8227.32" width="49.33" height="32766" maskUnits="userSpaceOnUse"/>
    <radialGradient id="radial-gradient" cx="37.35" cy="37.81" fx="37.35" fy="37.81" r="57.35" gradientUnits="userSpaceOnUse">
      <stop offset=".59" stop-color="#000"/>
      <stop offset=".72" stop-color="#848484"/>
      <stop offset=".84" stop-color="#fff"/>
    </radialGradient>
    <mask id="mask" x="2.02" y="1.97" width="49.33" height="41.67" maskUnits="userSpaceOnUse">
      <g class="cls-27">
        <path class="cls-6" d="m2.02,43.64V1.97h49.33S2.02,1.81,2.02,43.64Z"/>
      </g>
    </mask>
    <radialGradient id="radial-gradient-2" cx="37.35" cy="37.81" fx="37.35" fy="37.81" r="57.35" gradientUnits="userSpaceOnUse">
      <stop offset=".59" stop-color="#cecece"/>
      <stop offset=".84" stop-color="#fff"/>
    </radialGradient>
    <linearGradient id="linear-gradient" x1="24.48" y1="21.82" x2="70.33" y2="67.67" gradientUnits="userSpaceOnUse">
      <stop offset="0" stop-color="#6b6b6b"/>
      <stop offset=".54" stop-color="#c2c2c2"/>
      <stop offset=".56" stop-color="#c6c6c6"/>
      <stop offset=".74" stop-color="#e5e5e5"/>
      <stop offset=".89" stop-color="#f8f8f8"/>
      <stop offset="1" stop-color="#fff"/>
    </linearGradient>
    <linearGradient id="linear-gradient-2" x1="22.62" y1="36.48" x2="54.4" y2="36.48" gradientUnits="userSpaceOnUse">
      <stop offset="0" stop-color="#7e7e7e"/>
      <stop offset="1" stop-color="#cecece"/>
    </linearGradient>
    <linearGradient id="linear-gradient-3" x1="39.99" y1="29.56" x2="45.05" y2="29.56" xlink:href="#linear-gradient-2"/>
    <linearGradient id="linear-gradient-4" x1="43.79" y1="31.65" x2="45.44" y2="31.65" xlink:href="#linear-gradient-2"/>
    <linearGradient id="linear-gradient-5" x1="44.1" y1="21.89" x2="49.7" y2="21.89" xlink:href="#linear-gradient-2"/>
    <linearGradient id="linear-gradient-6" x1="38.84" y1="20.98" x2="42.98" y2="20.98" xlink:href="#linear-gradient-2"/>
    <linearGradient id="linear-gradient-7" x1="31.11" y1="27.38" x2="40.15" y2="27.38" xlink:href="#linear-gradient-2"/>
    <linearGradient id="linear-gradient-8" x1="23.53" y1="36.03" x2="52.96" y2="36.03" xlink:href="#linear-gradient-2"/>
    <linearGradient id="linear-gradient-9" x1="23.18" y1="36.98" x2="54.97" y2="36.98" xlink:href="#linear-gradient-2"/>
    <linearGradient id="linear-gradient-10" x1="40.55" y1="30.06" x2="45.62" y2="30.06" xlink:href="#linear-gradient-2"/>
    <linearGradient id="linear-gradient-11" x1="44.35" y1="32.15" x2="46" y2="32.15" xlink:href="#linear-gradient-2"/>
    <linearGradient id="linear-gradient-12" x1="44.66" y1="22.39" x2="50.27" y2="22.39" xlink:href="#linear-gradient-2"/>
    <linearGradient id="linear-gradient-13" x1="39.4" y1="21.48" x2="43.54" y2="21.48" xlink:href="#linear-gradient-2"/>
    <linearGradient id="linear-gradient-14" x1="31.67" y1="27.88" x2="40.71" y2="27.88" xlink:href="#linear-gradient-2"/>
    <linearGradient id="linear-gradient-15" x1="24.09" y1="36.53" x2="53.52" y2="36.53" xlink:href="#linear-gradient-2"/>
    <linearGradient id="linear-gradient-16" x1="23.74" y1="37.48" x2="55.53" y2="37.48" xlink:href="#linear-gradient-2"/>
    <linearGradient id="linear-gradient-17" x1="41.11" y1="30.56" x2="46.18" y2="30.56" xlink:href="#linear-gradient-2"/>
    <linearGradient id="linear-gradient-18" x1="44.91" y1="32.65" x2="46.56" y2="32.65" xlink:href="#linear-gradient-2"/>
    <linearGradient id="linear-gradient-19" x1="45.22" y1="22.89" x2="50.83" y2="22.89" xlink:href="#linear-gradient-2"/>
    <linearGradient id="linear-gradient-20" x1="39.96" y1="21.98" x2="44.1" y2="21.98" xlink:href="#linear-gradient-2"/>
    <linearGradient id="linear-gradient-21" x1="32.23" y1="28.38" x2="41.28" y2="28.38" xlink:href="#linear-gradient-2"/>
    <linearGradient id="linear-gradient-22" x1="24.65" y1="37.03" x2="54.08" y2="37.03" xlink:href="#linear-gradient-2"/>
    <linearGradient id="linear-gradient-23" x1="24.3" y1="37.98" x2="56.09" y2="37.98" xlink:href="#linear-gradient-2"/>
    <linearGradient id="linear-gradient-24" x1="41.68" y1="31.06" x2="46.74" y2="31.06" xlink:href="#linear-gradient-2"/>
    <linearGradient id="linear-gradient-25" x1="45.47" y1="33.15" x2="47.12" y2="33.15" xlink:href="#linear-gradient-2"/>
    <linearGradient id="linear-gradient-26" x1="45.78" y1="23.39" x2="51.39" y2="23.39" xlink:href="#linear-gradient-2"/>
    <linearGradient id="linear-gradient-27" x1="40.53" y1="22.48" x2="44.66" y2="22.48" xlink:href="#linear-gradient-2"/>
    <linearGradient id="linear-gradient-28" x1="32.79" y1="28.88" x2="41.84" y2="28.88" xlink:href="#linear-gradient-2"/>
    <linearGradient id="linear-gradient-29" x1="25.22" y1="37.53" x2="54.64" y2="37.53" xlink:href="#linear-gradient-2"/>
  </defs>
  <g class="cls-14">
    <g id="Calque_2" data-name="Calque 2">
      <g id="Calque_1-2" data-name="Calque 1">
        <g>
          <g>
            <rect class="cls-31" x=".5" y=".54" width="69" height="69"/>
            <path class="cls-4" d="m69.83,69.46l-.04-17.25c-.02-5.75,0-11.5-.07-17.25l-.14-17.25c-.08-5.75-.13-11.5-.25-17.25-.11,5.75-.16,11.5-.25,17.25l-.14,17.25c-.06,5.75-.05,11.5-.07,17.25l-.04,16.75-16.75.04c-5.75.02-11.5.01-17.25.07l-17.25.14c-5.75.08-11.5.13-17.25.24,5.75.11,11.5.16,17.25.24l17.25.14c5.75.06,11.5.05,17.25.07l17.25.05h.5s0-.5,0-.5Z"/>
            <g class="cls-28">
              <path class="cls-15" d="m2.02,43.64V1.97h49.33S2.02,1.81,2.02,43.64Z"/>
            </g>
          </g>
          <path class="cls-19" d="m70,70H0V0h70v70Zm-69-1h68V1H1v68Z"/>
        </g>
        <g>
          <path class="cls-5" d="m49.46,19.22c-.11-.03-.22-.08-.35-.14-1.94-.97-3.38-1.75-5.88.28,0,0-1.66-1.03-2.51-1.02-.85.01-2.69,2-2.69,2,0,0-1.81-1.24-2.89-1.24s-3.51,2.16-4.77,1.98c-1.26-.18-3.07-1.23-4.37,1.25s-3.83,7.03-3.53,9.95c.3,2.92,1.36,8.2,1.73,9.41s2.09,3.81,3.36,4.94l.66.86-1.09.62s-1.53.91-.27,3.94c.02.04.03.07.04.11l17.16,17.26h25.35v-30.65l-19.97-19.54Z"/>
          <g>
            <g class="cls-7">
              <path class="cls-1" d="m51.85,26.75c-.23-.22-.63-.6-1.14-1.07.06-.05.1-.12.11-.19.17-1.16.75-2.41.49-3.6-.28-1.27-1.15-2.1-2.18-2.84-.76-.54-2.04-1.21-3.01-.95-.99.27-1.57,1.02-2.38,1.59-.63-.56-1.42-.99-2.13-1.12-1.3-.23-2.18,1.15-2.98,2.03-.32-.32-.69-.62-1.12-.9-.75-.48-1.82-.68-2.67-.35-1.39.54-2.97,2.48-4.57,1.84-.05-.02-.09-.01-.13,0-1.48-.84-2.69-.81-3.58,1.03-1.37,2.82-3.53,5.51-3.88,8.7-.2,1.81.4,3.89.63,5.69.21,1.69.4,3.32.83,4.96.76,2.92,2.26,4.72,4.38,6.45-1.74.13-2.28,2.2-1.67,3.73,2.21,3.13,6.99,3.45,10.51,2.98,3.19-.43,7.15-1,9.5-3.43,1.26-1.89,1.11-4.25-1.39-4.84-.02,0-.04,0-.05,0,0,0,0,0,0-.01,2.61-1.16,4.86-2.81,6.14-5.72,1.19-2.7,2.23-5.64,2.78-8.54.47-2.51-.7-3.84-2.45-5.45Zm-23.44,21.85c.13-.03.26-.04.42-.05.03.17.06.35.1.52-.18-.15-.35-.3-.52-.47Zm24.12-12.39c-.73,2.23-1.56,4.39-2.94,6.31-.76,1.05-1.78,1.79-2.89,2.39-.3.22-.6.42-.92.62-.57.36-.84.74-1.09,1.25-.04.22-.07.49-.06.76.07.05.11.16.03.28,0,0,0,.01-.01.02,0,0,0,.02,0,.03-.02.01-.03.03-.05.04-1.55,2.46-4.97,3.29-7.71,3.43-1.6.08-3.22-.06-4.79-.36-.98-.18-2.29-.42-2.79-1.4-.05-.1.01-.24.1-.31,0-.19-.03-.39-.06-.58.13.09.25.19.38.29.03.02.06.03.1.03-.21-.35-.39-.7-.61-1.04,0,0-.01,0-.02-.02,0,0,0-.01,0-.02-.02-.03-.04-.07-.07-.1-.03-.02-.06-.02-.1-.02-1.21-.99-2.35-1.99-3.14-3.4-1.39-2.47-1.68-5.18-1.93-7.94-.19-2.17-.7-4.61-.23-6.75.5-2.27,2.15-4.51,3.14-6.59.67-1.4,1.44-2.17,3.02-1.21.06.03.11.08.16.11.77.02,1.57.37,2.3.86-.38-.38-.8-.73-1.24-1.06.68,0,1.33-.32,1.99-.7.88-.52,1.58-1.11,2.68-1.11.53,0,1.01.23,1.45.57.78.21,1.56.5,2.2.99-.17-.26-.36-.52-.58-.76.84-.71,1.57-1.73,2.8-1.41.17.04.33.12.48.21.88.08,1.67.54,2.43,1.03-.12-.21-.27-.42-.45-.62.38-.14.69-.34,1.05-.58,1.27-.89,2.54-.12,3.62.71,1,.77,1.55,1.61,1.56,2.9,0,.72-.24,1.37-.21,2.06-.61-.55-1.33-1.18-2.09-1.79.85,1.19,1.68,2.4,2.58,3.55.91.76,1.79,1.57,2.46,2.48,1.35,1.83.08,4.92-.54,6.83Z"/>
              <path class="cls-29" d="m40.39,31c-.14.45-.64,1.52-.26,1.94.52.59,1.29.41,1.96.3,1.01-.16,1.65-.82,2.23-1.58.26-.51.43-1.07.63-1.73.02-.05.06-.1.11-.14-1.76-.77-3.27-1.93-4.2-3.75-.05-.09-.1-.19-.14-.28.04.35.07.71.09,1.08.08,1.23-.04,2.63-.42,3.97.02.05.03.11,0,.19Z"/>
              <path class="cls-35" d="m43.79,33.37c.55-.13,1.12-.25,1.65-.41-.44-.98.14-2.05-.07-3.03,0,0-.01,0-.02,0,.25,1.24-.48,2.56-1.56,3.45Z"/>
              <path class="cls-22" d="m49.61,24.69c.45-2.04-.82-4.34-2.51-5.48-.63-.21-1.29-.19-1.95.27-.35.25-.67.44-1.05.58.21.23.39.47.52.72.04.09.05.19.04.28,1.7.88,3.53,2.37,4.96,3.63Z"/>
              <path class="cls-13" d="m40.56,21.09c.56-.77,1.42-.91,2.42-.68-.38-.43-.79-.83-1.33-.97-1.23-.32-1.96.7-2.8,1.41.48.53.84,1.12,1.12,1.75.06-.51.25-1.02.6-1.5Z"/>
              <path class="cls-23" d="m34.96,29.24c-.04.8-.19,1.59-.35,2.38-.18.53-.41,1.03-.66,1.53-.06.93.29,1.65,1.7,1.56,2.04-.13,3.15-2.62,4.11-4.15,0,0,0,0,.01-.01.76-2.21.36-6.01-.89-7.96-.65-1-1.73-2.54-3.1-2.54-1.09,0-1.8.59-2.68,1.11-.66.38-1.31.71-1.99.7,2.4,1.76,4,4.38,3.86,7.39Z"/>
              <path class="cls-36" d="m44.39,45.96c.1-.04.2-.08.3-.12.63-.49,1.33-.87,2.03-1.27,1.13-.65,2-1.45,2.69-2.56,1.1-1.77,1.97-3.79,2.66-5.76.71-2.03,1.43-4.69.24-6.69-.86-1.44-2.23-2.48-3.2-3.84-.19-.15-.38-.3-.56-.45-1.62-1.3-3.14-2.95-5.14-3.67-.96-.35-3.45-1.09-2.66,1.92.11.52.29,1.01.53,1.49.3.56.63,1.16,1.04,1.67.31.45.66.87,1.05,1.28.87.91,1.98,1.52,2.94,2.31-.2-.06-.4-.12-.59-.2.08.34.11.68.1,1.05,0,.37.01.71.11,1.08.06.23.1.39.08.58.38-.15.73-.32,1.02-.54-.2.36-.48.68-.8.96-.5.26-1.04.44-1.56.64-1.39.53-2.75,1.09-4.05,1.81-1.52.85-3.13,1.84-3.93,3.45-.35.44-.66.92-.9,1.45-.22.46-.34.93-.41,1.42-.07.33-.11.67-.14.99-.06.66-.08,1.36-.04,2.07-.03-.02-.05-.05-.06-.09-.77-2.86.15-6.63,2.53-8.49.94-.74,1.98-1.41,3.06-1.97-.61-.08-1.16-.37-1.57-.94-.4.58-.89,1.1-1.46,1.51-.19.14-.4.26-.61.37-.05.08-.12.15-.2.18-.18.05-.36.09-.55.13-.24.07-.47.12-.71.15-.02-.01-.04-.02-.07-.02-1.95.11-3.91.4-5.79.93-.9.25-2.16.67-2.9,1.42.41-.56.99-1.08,1.61-1.48-.68-.32-1.22-.89-1.35-1.73-.17-1.04.03-2,.37-2.94.03-.65.15-1.33.34-2.01-.33-1.27-.61-3.09.43-3.79.14-.1.23.08.12.19-.67.65-.53,1.78-.3,2.8.3-.9.67-1.74,1-2.44-.17.81-.36,1.61-.5,2.42-.31.79-.56,1.58-.7,2.43-.19,1.13-.4,3.11.61,3.97.42.35.92.49,1.43.46.33-.09.66-.17,1-.25.3-.14.57-.32.8-.54.69-.67,1.25-1.68,1.64-2.71.11-.19.22-.37.32-.56.24-1.28.58-2.68.41-3.99-.2-1.5-.95-2.56-1.76-3.75-.65-.94-1.47-1.74-2.44-2.33-1.59-.96-2.36-.2-3.02,1.21-.99,2.08-2.64,4.33-3.14,6.59-.47,2.14.04,4.59.23,6.75.24,2.76.54,5.47,1.93,7.94.79,1.41,1.93,2.41,3.14,3.4.04,0,.07,0,.1.02.02.03.05.07.07.1,0,0,0,.01,0,.02,0,0,.01.01.02.02.22.33.41.69.61,1.04-.03,0-.07,0-.1-.03-.13-.1-.26-.19-.38-.29.04.25.07.5.07.74,2.08,1.39,4.79,1.47,7.32,1.29,1.71-.13,3.36-.48,4.98-1.07.86-.31,1.54-.74,2.19-1.21.04-.49.1-.98.17-1.47-1.74.65-3.58,1.15-5.37,1.69,1.99-.7,3.92-1.57,5.69-2.71Z"/>
            </g>
            <g class="cls-7">
              <path class="cls-25" d="m52.41,27.25c-.23-.22-.63-.6-1.14-1.07.06-.05.1-.12.11-.19.17-1.16.75-2.41.49-3.6-.28-1.27-1.15-2.1-2.18-2.84-.76-.54-2.04-1.21-3.01-.95-.99.27-1.57,1.02-2.38,1.59-.63-.56-1.42-.99-2.13-1.12-1.3-.23-2.18,1.15-2.98,2.03-.32-.32-.69-.62-1.12-.9-.75-.48-1.82-.68-2.67-.35-1.39.54-2.97,2.48-4.57,1.84-.05-.02-.09-.01-.13,0-1.48-.84-2.69-.81-3.58,1.03-1.37,2.82-3.53,5.51-3.88,8.7-.2,1.81.4,3.89.63,5.69.21,1.69.4,3.32.83,4.96.76,2.92,2.26,4.72,4.38,6.45-1.74.13-2.28,2.2-1.67,3.73,2.21,3.13,6.99,3.45,10.51,2.98,3.19-.43,7.15-1,9.5-3.43,1.26-1.89,1.11-4.25-1.39-4.84-.02,0-.04,0-.05,0,0,0,0,0,0-.01,2.61-1.16,4.86-2.81,6.14-5.72,1.19-2.7,2.23-5.64,2.78-8.54.47-2.51-.7-3.84-2.45-5.45Zm-23.44,21.85c.13-.03.26-.04.42-.05.03.17.06.35.1.52-.18-.15-.35-.3-.52-.47Zm24.12-12.39c-.73,2.23-1.56,4.39-2.94,6.31-.76,1.05-1.78,1.79-2.89,2.39-.3.22-.6.42-.92.62-.57.36-.84.74-1.09,1.25-.04.22-.07.49-.06.76.07.05.11.16.03.28,0,0,0,.01-.01.02,0,0,0,.02,0,.03-.02.01-.03.03-.05.04-1.55,2.46-4.97,3.29-7.71,3.43-1.6.08-3.22-.06-4.79-.36-.98-.18-2.29-.42-2.79-1.4-.05-.1.01-.24.1-.31,0-.19-.03-.39-.06-.58.12.09.25.19.38.29.03.02.06.03.1.03-.21-.35-.39-.7-.61-1.04,0,0-.01,0-.02-.02,0,0,0-.01,0-.02-.02-.03-.04-.07-.07-.1-.03-.02-.06-.02-.1-.02-1.21-.99-2.35-1.99-3.14-3.4-1.39-2.47-1.68-5.18-1.93-7.94-.19-2.17-.7-4.61-.23-6.75.5-2.27,2.15-4.51,3.14-6.59.67-1.4,1.44-2.17,3.02-1.21.06.03.11.08.16.11.77.02,1.57.37,2.3.86-.38-.38-.8-.73-1.24-1.06.68,0,1.33-.32,1.99-.7.88-.52,1.58-1.11,2.68-1.11.53,0,1.01.23,1.45.57.78.21,1.56.5,2.2.99-.17-.26-.36-.52-.58-.76.84-.71,1.57-1.73,2.8-1.41.17.04.33.12.48.21.88.08,1.67.54,2.43,1.03-.12-.21-.27-.42-.45-.62.38-.14.69-.34,1.05-.58,1.27-.89,2.54-.12,3.62.71,1,.77,1.55,1.61,1.56,2.9,0,.72-.24,1.37-.21,2.06-.61-.55-1.33-1.18-2.09-1.79.85,1.19,1.68,2.4,2.58,3.55.91.76,1.79,1.57,2.46,2.48,1.35,1.83.08,4.92-.54,6.83Z"/>
              <path class="cls-17" d="m40.95,31.5c-.14.45-.64,1.52-.26,1.94.52.59,1.29.41,1.96.3,1.01-.16,1.65-.82,2.23-1.58.26-.51.43-1.07.63-1.73.02-.05.06-.1.11-.14-1.76-.77-3.27-1.93-4.2-3.75-.05-.09-.1-.19-.14-.28.04.35.07.71.09,1.08.08,1.23-.04,2.63-.42,3.97.02.05.03.11,0,.19Z"/>
              <path class="cls-16" d="m44.35,33.87c.55-.13,1.12-.25,1.65-.41-.44-.98.14-2.05-.07-3.03,0,0-.01,0-.02,0,.25,1.24-.48,2.56-1.56,3.45Z"/>
              <path class="cls-37" d="m50.17,25.19c.45-2.04-.82-4.34-2.51-5.48-.63-.21-1.29-.19-1.95.27-.35.25-.67.44-1.05.58.21.23.39.47.52.72.04.09.05.19.04.28,1.7.88,3.53,2.37,4.96,3.63Z"/>
              <path class="cls-38" d="m41.12,21.59c.56-.77,1.42-.91,2.42-.68-.38-.43-.79-.83-1.33-.97-1.23-.32-1.96.7-2.8,1.41.48.53.84,1.12,1.12,1.75.06-.51.25-1.02.6-1.5Z"/>
              <path class="cls-11" d="m35.53,29.74c-.04.8-.19,1.59-.35,2.38-.18.53-.41,1.03-.66,1.53-.06.93.29,1.65,1.7,1.56,2.04-.13,3.15-2.62,4.11-4.15,0,0,0,0,.01-.01.76-2.21.36-6.01-.89-7.96-.65-1-1.73-2.54-3.1-2.54-1.09,0-1.8.59-2.68,1.11-.66.38-1.31.71-1.99.7,2.4,1.76,4,4.38,3.86,7.39Z"/>
              <path class="cls-8" d="m44.96,46.46c.1-.04.2-.08.3-.12.63-.49,1.33-.87,2.03-1.27,1.13-.65,2-1.45,2.69-2.56,1.1-1.77,1.97-3.79,2.66-5.76.71-2.03,1.43-4.69.24-6.69-.86-1.44-2.23-2.48-3.2-3.84-.19-.15-.38-.3-.56-.45-1.62-1.3-3.14-2.95-5.14-3.67-.96-.35-3.45-1.09-2.66,1.92.11.52.29,1.01.53,1.49.3.56.63,1.16,1.04,1.67.31.45.66.87,1.05,1.28.87.91,1.98,1.52,2.94,2.31-.2-.06-.4-.12-.59-.2.08.34.11.68.1,1.05,0,.37.01.71.11,1.08.06.23.1.39.08.58.38-.15.73-.32,1.02-.54-.2.36-.48.68-.8.96-.5.26-1.04.44-1.56.64-1.39.53-2.75,1.09-4.05,1.81-1.52.85-3.13,1.84-3.93,3.45-.35.44-.65.92-.9,1.45-.22.46-.34.93-.41,1.42-.07.33-.11.67-.14.99-.06.66-.08,1.36-.04,2.07-.03-.02-.05-.05-.06-.09-.77-2.86.15-6.63,2.53-8.49.94-.74,1.98-1.41,3.06-1.97-.61-.08-1.16-.37-1.57-.94-.4.58-.89,1.1-1.46,1.51-.19.14-.4.26-.61.37-.05.08-.12.15-.2.18-.18.05-.36.09-.55.13-.24.07-.47.12-.71.15-.02-.01-.04-.02-.07-.02-1.95.11-3.91.4-5.79.93-.9.25-2.16.67-2.9,1.42.41-.56.99-1.08,1.61-1.48-.68-.32-1.22-.89-1.35-1.73-.17-1.04.03-2,.37-2.94.03-.65.15-1.33.34-2.01-.33-1.27-.61-3.09.43-3.79.14-.1.23.08.12.19-.67.65-.53,1.78-.3,2.8.3-.9.67-1.74,1-2.44-.17.81-.36,1.61-.5,2.42-.31.79-.56,1.58-.7,2.43-.19,1.13-.4,3.11.61,3.97.42.35.92.49,1.43.46.33-.09.66-.17,1-.25.3-.14.57-.32.8-.54.69-.67,1.25-1.68,1.64-2.71.11-.19.22-.37.32-.56.24-1.28.58-2.68.41-3.99-.2-1.5-.95-2.56-1.76-3.75-.65-.94-1.47-1.74-2.44-2.33-1.59-.96-2.36-.2-3.02,1.21-.99,2.08-2.64,4.33-3.14,6.59-.47,2.14.04,4.59.23,6.75.24,2.76.54,5.47,1.93,7.94.79,1.41,1.93,2.41,3.14,3.4.04,0,.07,0,.1.02.02.03.05.07.07.1,0,0,0,.01,0,.02,0,0,.01.01.02.02.22.33.41.69.61,1.04-.03,0-.07,0-.1-.03-.13-.1-.26-.19-.38-.29.04.25.07.5.07.74,2.08,1.39,4.79,1.47,7.32,1.29,1.71-.13,3.36-.48,4.98-1.07.86-.31,1.54-.74,2.19-1.21.04-.49.1-.98.17-1.47-1.74.65-3.58,1.15-5.37,1.69,1.99-.7,3.92-1.57,5.69-2.71Z"/>
            </g>
            <g class="cls-7">
              <path class="cls-18" d="m52.97,27.75c-.23-.22-.63-.6-1.14-1.07.06-.05.1-.12.11-.19.17-1.16.75-2.41.49-3.6-.28-1.27-1.15-2.1-2.18-2.84-.76-.54-2.04-1.21-3.01-.95-.99.27-1.57,1.02-2.38,1.59-.63-.56-1.42-.99-2.13-1.12-1.3-.23-2.18,1.15-2.98,2.03-.32-.32-.69-.62-1.12-.9-.75-.48-1.82-.68-2.67-.35-1.39.54-2.97,2.48-4.57,1.84-.05-.02-.09-.01-.13,0-1.48-.84-2.69-.81-3.58,1.03-1.37,2.82-3.53,5.51-3.88,8.7-.2,1.81.4,3.89.63,5.69.21,1.69.4,3.32.83,4.96.76,2.92,2.26,4.72,4.38,6.45-1.74.13-2.28,2.2-1.67,3.73,2.21,3.13,6.99,3.45,10.51,2.98,3.19-.43,7.15-1,9.5-3.43,1.26-1.89,1.11-4.25-1.39-4.84-.02,0-.04,0-.05,0,0,0,0,0,0-.01,2.61-1.16,4.86-2.81,6.14-5.72,1.19-2.7,2.23-5.64,2.78-8.54.47-2.51-.7-3.84-2.45-5.45Zm-23.44,21.85c.13-.03.26-.04.42-.05.03.17.06.35.1.52-.18-.15-.35-.3-.52-.47Zm24.12-12.39c-.73,2.23-1.56,4.39-2.94,6.31-.76,1.05-1.78,1.79-2.89,2.39-.3.22-.6.42-.92.62-.57.36-.84.74-1.09,1.25-.04.22-.07.49-.06.76.07.05.11.16.03.28,0,0,0,.01-.01.02,0,0,0,.02,0,.03-.02.01-.03.03-.05.04-1.55,2.46-4.97,3.29-7.71,3.43-1.6.08-3.22-.06-4.79-.36-.98-.18-2.29-.42-2.79-1.4-.05-.1.01-.24.1-.31,0-.19-.03-.39-.06-.58.13.09.25.19.38.29.03.02.06.03.1.03-.21-.35-.39-.7-.61-1.04,0,0-.01,0-.02-.02,0,0,0-.01,0-.02-.02-.03-.04-.07-.07-.1-.03-.02-.06-.02-.1-.02-1.21-.99-2.35-1.99-3.14-3.4-1.39-2.47-1.68-5.18-1.93-7.94-.19-2.17-.7-4.61-.23-6.75.5-2.27,2.15-4.51,3.14-6.59.67-1.4,1.44-2.17,3.02-1.21.06.03.11.08.16.11.77.02,1.57.37,2.3.86-.38-.38-.8-.73-1.24-1.06.68,0,1.33-.32,1.99-.7.88-.52,1.58-1.11,2.68-1.11.53,0,1.01.23,1.45.57.78.21,1.56.5,2.2.99-.17-.26-.36-.52-.58-.76.84-.71,1.57-1.73,2.8-1.41.17.04.33.12.48.21.88.08,1.67.54,2.43,1.03-.12-.21-.27-.42-.45-.62.38-.14.69-.34,1.05-.58,1.27-.89,2.54-.12,3.62.71,1,.77,1.55,1.61,1.56,2.9,0,.72-.24,1.37-.21,2.06-.61-.55-1.33-1.18-2.09-1.79.85,1.19,1.68,2.4,2.58,3.55.91.76,1.79,1.57,2.46,2.48,1.35,1.83.08,4.92-.54,6.83Z"/>
              <path class="cls-3" d="m41.51,32c-.14.45-.64,1.52-.26,1.94.52.59,1.29.41,1.96.3,1.01-.16,1.65-.82,2.23-1.58.26-.51.43-1.07.63-1.73.02-.05.06-.1.11-.14-1.76-.77-3.27-1.93-4.2-3.75-.05-.09-.1-.19-.14-.28.04.35.07.71.09,1.08.08,1.23-.04,2.63-.42,3.97.02.05.03.11,0,.19Z"/>
              <path class="cls-9" d="m44.91,34.37c.55-.13,1.12-.25,1.65-.41-.44-.98.14-2.05-.07-3.03,0,0-.01,0-.02,0,.25,1.24-.48,2.56-1.56,3.45Z"/>
              <path class="cls-34" d="m50.74,25.69c.45-2.04-.82-4.34-2.51-5.48-.63-.21-1.29-.19-1.95.27-.35.25-.67.44-1.05.58.21.23.39.47.52.72.04.09.05.19.04.28,1.7.88,3.53,2.37,4.96,3.63Z"/>
              <path class="cls-12" d="m41.68,22.09c.56-.77,1.42-.91,2.42-.68-.38-.43-.79-.83-1.33-.97-1.23-.32-1.96.7-2.8,1.41.48.53.84,1.12,1.12,1.75.06-.51.25-1.02.6-1.5Z"/>
              <path class="cls-20" d="m36.09,30.24c-.04.8-.19,1.59-.35,2.38-.18.53-.41,1.03-.66,1.53-.06.93.29,1.65,1.7,1.56,2.04-.13,3.15-2.62,4.11-4.15,0,0,0,0,.01-.01.76-2.21.36-6.01-.89-7.96-.65-1-1.73-2.54-3.1-2.54-1.09,0-1.8.59-2.68,1.11-.66.38-1.31.71-1.99.7,2.4,1.76,4,4.38,3.86,7.39Z"/>
              <path class="cls-26" d="m45.52,46.96c.1-.04.2-.08.3-.12.63-.49,1.33-.87,2.03-1.27,1.13-.65,2-1.45,2.69-2.56,1.1-1.77,1.97-3.79,2.66-5.76.71-2.03,1.43-4.69.24-6.69-.86-1.44-2.23-2.48-3.2-3.84-.19-.15-.38-.3-.56-.45-1.62-1.3-3.14-2.95-5.14-3.67-.96-.35-3.45-1.09-2.66,1.92.11.52.29,1.01.53,1.49.3.56.63,1.16,1.04,1.67.31.45.66.87,1.05,1.28.87.91,1.98,1.52,2.94,2.31-.2-.06-.4-.12-.59-.2.08.34.11.68.1,1.05,0,.37.01.71.11,1.08.06.23.1.39.08.58.38-.15.73-.32,1.02-.54-.2.36-.48.68-.8.96-.5.26-1.04.44-1.56.64-1.39.53-2.75,1.09-4.05,1.81-1.52.85-3.13,1.84-3.93,3.45-.35.44-.66.92-.9,1.45-.22.46-.34.93-.41,1.42-.07.33-.11.67-.14.99-.06.66-.08,1.36-.04,2.07-.03-.02-.05-.05-.06-.09-.77-2.86.15-6.63,2.53-8.49.94-.74,1.98-1.41,3.06-1.97-.61-.08-1.16-.37-1.57-.94-.4.58-.89,1.1-1.46,1.51-.19.14-.4.26-.61.37-.05.08-.12.15-.2.18-.18.05-.36.09-.55.13-.24.07-.47.12-.71.15-.02-.01-.04-.02-.07-.02-1.95.11-3.91.4-5.79.93-.9.25-2.16.67-2.9,1.42.41-.56.99-1.08,1.61-1.48-.68-.32-1.22-.89-1.35-1.73-.17-1.04.03-2,.37-2.94.03-.65.15-1.33.34-2.01-.33-1.27-.61-3.09.43-3.79.14-.1.23.08.12.19-.67.65-.53,1.78-.3,2.8.3-.9.67-1.74,1-2.44-.17.81-.36,1.61-.5,2.42-.31.79-.56,1.58-.7,2.43-.19,1.13-.4,3.11.61,3.97.42.35.92.49,1.43.46.33-.09.66-.17,1-.25.3-.14.57-.32.8-.54.69-.67,1.25-1.68,1.64-2.71.11-.19.22-.37.32-.56.24-1.28.58-2.68.41-3.99-.2-1.5-.95-2.56-1.76-3.75-.65-.94-1.47-1.74-2.44-2.33-1.59-.96-2.36-.2-3.02,1.21-.99,2.08-2.64,4.33-3.14,6.59-.47,2.14.04,4.59.23,6.75.24,2.76.54,5.47,1.93,7.94.79,1.41,1.93,2.41,3.14,3.4.04,0,.07,0,.1.02.02.03.05.07.07.1,0,0,0,.01,0,.02,0,0,.01.01.02.02.22.33.41.69.61,1.04-.03,0-.07,0-.1-.03-.13-.1-.26-.19-.38-.29.04.25.07.5.07.74,2.08,1.39,4.79,1.47,7.32,1.29,1.71-.13,3.36-.48,4.98-1.07.86-.31,1.54-.74,2.19-1.21.04-.49.1-.98.17-1.47-1.74.65-3.58,1.15-5.37,1.69,1.99-.7,3.92-1.57,5.69-2.71Z"/>
            </g>
            <g class="cls-7">
              <path class="cls-33" d="m53.53,28.25c-.23-.22-.63-.6-1.14-1.07.06-.05.1-.12.11-.19.17-1.16.75-2.41.49-3.6-.28-1.27-1.15-2.1-2.18-2.84-.76-.54-2.04-1.21-3.01-.95-.99.27-1.57,1.02-2.38,1.59-.63-.56-1.42-.99-2.13-1.12-1.3-.23-2.18,1.15-2.98,2.03-.32-.32-.69-.62-1.12-.9-.75-.48-1.82-.68-2.67-.35-1.39.54-2.97,2.48-4.57,1.84-.05-.02-.09-.01-.13,0-1.48-.84-2.69-.81-3.58,1.03-1.37,2.82-3.53,5.51-3.88,8.7-.2,1.81.4,3.89.63,5.69.21,1.69.4,3.32.83,4.96.76,2.92,2.26,4.72,4.38,6.45-1.74.13-2.28,2.2-1.67,3.73,2.21,3.13,6.99,3.45,10.51,2.98,3.19-.43,7.15-1,9.5-3.43,1.26-1.89,1.11-4.25-1.39-4.84-.02,0-.04,0-.05,0,0,0,0,0,0-.01,2.61-1.16,4.86-2.81,6.14-5.72,1.19-2.7,2.23-5.64,2.78-8.54.47-2.51-.7-3.84-2.45-5.45Zm-23.44,21.85c.13-.03.26-.04.42-.05.03.17.06.35.1.52-.18-.15-.35-.3-.52-.47Zm24.12-12.39c-.73,2.23-1.56,4.39-2.94,6.31-.76,1.05-1.78,1.79-2.89,2.39-.3.22-.6.42-.92.62-.57.36-.84.74-1.09,1.25-.04.22-.07.49-.06.76.07.05.11.16.03.28,0,0,0,.01-.01.02,0,0,0,.02,0,.03-.02.01-.03.03-.05.04-1.55,2.46-4.97,3.29-7.71,3.43-1.6.08-3.22-.06-4.79-.36-.98-.18-2.29-.42-2.79-1.4-.05-.1.01-.24.1-.31,0-.19-.03-.39-.06-.58.12.09.25.19.38.29.03.02.06.03.1.03-.21-.35-.39-.7-.61-1.04,0,0-.01,0-.02-.02,0,0,0-.01,0-.02-.02-.03-.04-.07-.07-.1-.03-.02-.06-.02-.1-.02-1.21-.99-2.35-1.99-3.14-3.4-1.39-2.47-1.68-5.18-1.93-7.94-.19-2.17-.7-4.61-.23-6.75.5-2.27,2.15-4.51,3.14-6.59.67-1.4,1.44-2.17,3.02-1.21.06.03.11.08.16.11.77.02,1.57.37,2.3.86-.38-.38-.8-.73-1.24-1.06.68,0,1.33-.32,1.99-.7.88-.52,1.58-1.11,2.68-1.11.53,0,1.01.23,1.45.57.78.21,1.56.5,2.2.99-.17-.26-.36-.52-.58-.76.84-.71,1.57-1.73,2.8-1.41.17.04.33.12.48.21.88.08,1.67.54,2.43,1.03-.12-.21-.27-.42-.45-.62.38-.14.69-.34,1.05-.58,1.27-.89,2.54-.12,3.62.71,1,.77,1.55,1.61,1.56,2.9,0,.72-.24,1.37-.21,2.06-.61-.55-1.33-1.18-2.09-1.79.85,1.19,1.68,2.4,2.58,3.55.91.76,1.79,1.57,2.46,2.48,1.35,1.83.08,4.92-.54,6.83Z"/>
              <path class="cls-24" d="m42.07,32.5c-.14.45-.64,1.52-.26,1.94.52.59,1.29.41,1.96.3,1.01-.16,1.65-.82,2.23-1.58.26-.51.43-1.07.63-1.73.02-.05.06-.1.11-.14-1.76-.77-3.27-1.93-4.2-3.75-.05-.09-.1-.19-.14-.28.04.35.07.71.09,1.08.08,1.23-.04,2.63-.42,3.97.02.05.03.11,0,.19Z"/>
              <path class="cls-21" d="m45.47,34.87c.55-.13,1.12-.25,1.65-.41-.44-.98.14-2.05-.07-3.03,0,0-.01,0-.02,0,.25,1.24-.48,2.56-1.56,3.45Z"/>
              <path class="cls-39" d="m51.3,26.19c.45-2.04-.82-4.34-2.51-5.48-.63-.21-1.29-.19-1.95.27-.35.25-.67.44-1.05.58.21.23.39.47.52.72.04.09.05.19.04.28,1.7.88,3.53,2.37,4.96,3.63Z"/>
              <path class="cls-30" d="m42.24,22.59c.56-.77,1.42-.91,2.42-.68-.38-.43-.79-.83-1.33-.97-1.23-.32-1.96.7-2.8,1.41.48.53.84,1.12,1.12,1.75.06-.51.25-1.02.6-1.5Z"/>
              <path class="cls-10" d="m36.65,30.74c-.04.8-.19,1.59-.35,2.38-.18.53-.41,1.03-.66,1.53-.06.93.29,1.65,1.7,1.56,2.04-.13,3.15-2.62,4.11-4.15,0,0,0,0,.01-.01.76-2.21.36-6.01-.89-7.96-.65-1-1.73-2.54-3.1-2.54-1.09,0-1.8.59-2.68,1.11-.66.38-1.31.71-1.99.7,2.4,1.76,4,4.38,3.86,7.39Z"/>
              <path class="cls-32" d="m46.08,47.46c.1-.04.2-.08.3-.12.63-.49,1.33-.87,2.03-1.27,1.13-.65,2-1.45,2.69-2.56,1.1-1.77,1.97-3.79,2.66-5.76.71-2.03,1.43-4.69.24-6.69-.86-1.44-2.23-2.48-3.2-3.84-.19-.15-.38-.3-.56-.45-1.62-1.3-3.14-2.95-5.14-3.67-.96-.35-3.45-1.09-2.66,1.92.11.52.29,1.01.53,1.49.3.56.63,1.16,1.04,1.67.31.45.66.87,1.05,1.28.87.91,1.98,1.52,2.94,2.31-.2-.06-.4-.12-.59-.2.08.34.11.68.1,1.05,0,.37.01.71.11,1.08.06.23.1.39.08.58.38-.15.73-.32,1.02-.54-.2.36-.48.68-.8.96-.5.26-1.04.44-1.56.64-1.39.53-2.75,1.09-4.05,1.81-1.52.85-3.13,1.84-3.93,3.45-.35.44-.65.92-.9,1.45-.22.46-.34.93-.41,1.42-.07.33-.11.67-.14.99-.06.66-.08,1.36-.04,2.07-.03-.02-.05-.05-.06-.09-.77-2.86.15-6.63,2.53-8.49.94-.74,1.98-1.41,3.06-1.97-.61-.08-1.16-.37-1.57-.94-.4.58-.89,1.1-1.46,1.51-.19.14-.4.26-.61.37-.05.08-.12.15-.2.18-.18.05-.36.09-.55.13-.24.07-.47.12-.71.15-.02-.01-.04-.02-.07-.02-1.95.11-3.91.4-5.79.93-.9.25-2.16.67-2.9,1.42.41-.56.99-1.08,1.61-1.48-.68-.32-1.22-.89-1.35-1.73-.17-1.04.03-2,.37-2.94.03-.65.15-1.33.34-2.01-.33-1.27-.61-3.09.43-3.79.14-.1.23.08.12.19-.67.65-.53,1.78-.3,2.8.3-.9.67-1.74,1-2.44-.17.81-.36,1.61-.5,2.42-.31.79-.56,1.58-.7,2.43-.19,1.13-.4,3.11.61,3.97.42.35.92.49,1.43.46.33-.09.66-.17,1-.25.3-.14.57-.32.8-.54.69-.67,1.25-1.68,1.64-2.71.11-.19.22-.37.32-.56.24-1.28.58-2.68.41-3.99-.2-1.5-.95-2.56-1.76-3.75-.65-.94-1.47-1.74-2.44-2.33-1.59-.96-2.36-.2-3.02,1.21-.99,2.08-2.64,4.33-3.14,6.59-.47,2.14.04,4.59.23,6.75.24,2.76.54,5.47,1.93,7.94.79,1.41,1.93,2.41,3.14,3.4.04,0,.07,0,.1.02.02.03.05.07.07.1,0,0,0,.01,0,.02,0,0,.01.01.02.02.22.33.41.69.61,1.04-.03,0-.07,0-.1-.03-.13-.1-.26-.19-.38-.29.04.25.07.5.07.74,2.08,1.39,4.79,1.47,7.32,1.29,1.71-.13,3.36-.48,4.98-1.07.86-.31,1.54-.74,2.19-1.21.04-.49.1-.98.17-1.47-1.74.65-3.58,1.15-5.37,1.69,1.99-.7,3.92-1.57,5.69-2.71Z"/>
            </g>
            <g>
              <path class="cls-2" d="m51.28,26.25c-.23-.22-.63-.6-1.14-1.07.06-.05.1-.12.11-.19.17-1.16.75-2.41.49-3.6-.28-1.27-1.15-2.1-2.18-2.84-.76-.54-2.04-1.21-3.01-.95-.99.27-1.57,1.02-2.38,1.59-.63-.56-1.42-.99-2.13-1.12-1.3-.23-2.18,1.15-2.98,2.03-.32-.32-.69-.62-1.12-.9-.75-.48-1.82-.68-2.67-.35-1.39.54-2.97,2.48-4.57,1.84-.05-.02-.09-.01-.13,0-1.48-.84-2.69-.81-3.58,1.03-1.37,2.82-3.53,5.51-3.88,8.7-.2,1.81.4,3.89.63,5.69.21,1.69.4,3.32.83,4.96.76,2.92,2.26,4.72,4.38,6.45-1.74.13-2.28,2.2-1.67,3.73,2.21,3.13,6.99,3.45,10.51,2.98,3.19-.43,7.15-1,9.5-3.43,1.26-1.89,1.11-4.25-1.39-4.84-.02,0-.04,0-.05,0,0,0,0,0,0-.01,2.61-1.16,4.86-2.81,6.14-5.72,1.19-2.7,2.23-5.64,2.78-8.54.47-2.51-.7-3.84-2.45-5.45Zm-23.44,21.85c.13-.03.26-.04.42-.05.03.17.06.35.1.52-.18-.15-.35-.3-.52-.47Zm24.12-12.39c-.73,2.23-1.56,4.39-2.94,6.31-.76,1.05-1.78,1.79-2.89,2.39-.3.22-.6.42-.92.62-.57.36-.84.74-1.09,1.25-.04.22-.07.49-.06.76.07.05.11.16.03.28,0,0,0,.01-.01.02,0,0,0,.02,0,.03-.02.01-.03.03-.05.04-1.55,2.46-4.97,3.29-7.71,3.43-1.6.08-3.22-.06-4.79-.36-.98-.18-2.29-.42-2.79-1.4-.05-.1.01-.24.1-.31,0-.19-.03-.39-.06-.58.12.09.25.19.38.29.03.02.06.03.1.03-.21-.35-.39-.7-.61-1.04,0,0-.01,0-.02-.02,0,0,0-.01,0-.02-.02-.03-.04-.07-.07-.1-.03-.02-.06-.02-.1-.02-1.21-.99-2.35-1.99-3.14-3.4-1.39-2.47-1.68-5.18-1.93-7.94-.19-2.17-.7-4.61-.23-6.75.5-2.27,2.15-4.51,3.14-6.59.67-1.4,1.44-2.17,3.02-1.21.06.03.11.08.16.11.77.02,1.57.37,2.3.86-.38-.38-.8-.73-1.24-1.06.68,0,1.33-.32,1.99-.7.88-.52,1.58-1.11,2.68-1.11.53,0,1.01.23,1.45.57.78.21,1.56.5,2.2.99-.17-.26-.36-.52-.58-.76.84-.71,1.57-1.73,2.8-1.41.17.04.33.12.48.21.88.08,1.67.54,2.43,1.03-.12-.21-.27-.42-.45-.62.38-.14.69-.34,1.05-.58,1.27-.89,2.54-.12,3.62.71,1,.77,1.55,1.61,1.56,2.9,0,.72-.24,1.37-.21,2.06-.61-.55-1.33-1.18-2.09-1.79.85,1.19,1.68,2.4,2.58,3.55.91.76,1.79,1.57,2.46,2.48,1.35,1.83.08,4.92-.54,6.83Z"/>
              <path class="cls-2" d="m39.82,30.5c-.14.45-.64,1.52-.26,1.94.52.59,1.29.41,1.96.3,1.01-.16,1.65-.82,2.23-1.58.26-.51.43-1.07.63-1.73.02-.05.06-.1.11-.14-1.76-.77-3.27-1.93-4.2-3.75-.05-.09-.1-.19-.14-.28.04.35.07.71.09,1.08.08,1.23-.04,2.63-.42,3.97.02.05.03.11,0,.19Z"/>
              <path class="cls-2" d="m43.22,32.87c.55-.13,1.12-.25,1.65-.41-.44-.98.14-2.05-.07-3.03,0,0-.01,0-.02,0,.25,1.24-.48,2.56-1.56,3.45Z"/>
              <path class="cls-2" d="m49.05,24.19c.45-2.04-.82-4.34-2.51-5.48-.63-.21-1.29-.19-1.95.27-.35.25-.67.44-1.05.58.21.23.39.47.52.72.04.09.05.19.04.28,1.7.88,3.53,2.37,4.96,3.63Z"/>
              <path class="cls-2" d="m39.99,20.59c.56-.77,1.42-.91,2.42-.68-.38-.43-.79-.83-1.33-.97-1.23-.32-1.96.7-2.8,1.41.48.53.84,1.12,1.12,1.75.06-.51.25-1.02.6-1.5Z"/>
              <path class="cls-2" d="m34.4,28.74c-.04.8-.19,1.59-.35,2.38-.18.53-.41,1.03-.66,1.53-.06.93.29,1.65,1.7,1.56,2.04-.13,3.15-2.62,4.11-4.15,0,0,0,0,.01-.01.76-2.21.36-6.01-.89-7.96-.65-1-1.73-2.54-3.1-2.54-1.09,0-1.8.59-2.68,1.11-.66.38-1.31.71-1.99.7,2.4,1.76,4,4.38,3.86,7.39Z"/>
              <path class="cls-2" d="m43.83,45.46c.1-.04.2-.08.3-.12.63-.49,1.33-.87,2.03-1.27,1.13-.65,2-1.45,2.69-2.56,1.1-1.77,1.97-3.79,2.66-5.76.71-2.03,1.43-4.69.24-6.69-.86-1.44-2.23-2.48-3.2-3.84-.19-.15-.38-.3-.56-.45-1.62-1.3-3.14-2.95-5.14-3.67-.96-.35-3.45-1.09-2.66,1.92.11.52.29,1.01.53,1.49.3.56.63,1.16,1.04,1.67.31.45.66.87,1.05,1.28.87.91,1.98,1.52,2.94,2.31-.2-.06-.4-.12-.59-.2.08.34.11.68.1,1.05,0,.37.01.71.11,1.08.06.23.1.39.08.58.38-.15.73-.32,1.02-.54-.2.36-.48.68-.8.96-.5.26-1.04.44-1.56.64-1.39.53-2.75,1.09-4.05,1.81-1.52.85-3.13,1.84-3.93,3.45-.35.44-.65.92-.9,1.45-.22.46-.34.93-.41,1.42-.07.33-.11.67-.14.99-.06.66-.08,1.36-.04,2.07-.03-.02-.05-.05-.06-.09-.77-2.86.15-6.63,2.53-8.49.94-.74,1.98-1.41,3.06-1.97-.61-.08-1.16-.37-1.57-.94-.4.58-.89,1.1-1.46,1.51-.19.14-.4.26-.61.37-.05.08-.12.15-.2.18-.18.05-.36.09-.55.13-.24.07-.47.12-.71.15-.02-.01-.04-.02-.07-.02-1.95.11-3.91.4-5.79.93-.9.25-2.16.66-2.9,1.42.41-.56.99-1.08,1.61-1.48-.68-.32-1.22-.89-1.35-1.73-.17-1.04.03-2,.37-2.94.03-.65.15-1.33.34-2.01-.33-1.27-.61-3.09.43-3.79.14-.1.23.08.12.19-.67.65-.53,1.78-.3,2.8.3-.9.67-1.74,1-2.44-.17.81-.36,1.61-.5,2.42-.31.79-.56,1.58-.7,2.43-.19,1.13-.4,3.11.61,3.97.42.35.92.49,1.43.46.33-.09.66-.17,1-.25.3-.14.57-.32.8-.54.69-.67,1.25-1.68,1.64-2.71.11-.19.22-.37.32-.56.24-1.28.58-2.68.41-3.99-.2-1.5-.95-2.56-1.76-3.75-.65-.94-1.47-1.74-2.44-2.33-1.59-.96-2.36-.2-3.02,1.21-.99,2.08-2.64,4.33-3.14,6.59-.47,2.14.04,4.59.23,6.75.24,2.76.54,5.47,1.93,7.94.79,1.41,1.93,2.41,3.14,3.4.04,0,.07,0,.1.02.02.03.05.07.07.1,0,0,0,.01,0,.02,0,0,.01.01.02.02.22.33.41.69.61,1.04-.03,0-.07,0-.1-.03-.13-.1-.26-.19-.38-.29.04.25.07.5.07.74,2.08,1.39,4.79,1.47,7.32,1.29,1.71-.13,3.36-.48,4.98-1.07.86-.31,1.54-.74,2.19-1.21.04-.49.1-.98.17-1.47-1.74.65-3.58,1.15-5.37,1.69,1.99-.7,3.92-1.57,5.69-2.71Z"/>
            </g>
          </g>
        </g>
      </g>
    </g>
  </g>
</svg>