<?xml version="1.0" encoding="UTF-8"?>
<svg xmlns="http://www.w3.org/2000/svg" xmlns:xlink="http://www.w3.org/1999/xlink" viewBox="0 0 70 70">
  <defs>
    <style>
      .cls-1 {
        fill: url(#linear-gradient-2);
      }

      .cls-2 {
        fill: #fff;
      }

      .cls-3 {
        fill: url(#linear-gradient);
      }

      .cls-3, .cls-4, .cls-5 {
        mix-blend-mode: multiply;
      }

      .cls-6 {
        fill: url(#linear-gradient-6);
      }

      .cls-7 {
        isolation: isolate;
      }

      .cls-8 {
        fill: url(#radial-gradient-2);
        mix-blend-mode: screen;
        opacity: .9;
      }

      .cls-9 {
        fill: url(#linear-gradient-11);
      }

      .cls-10 {
        fill: #f66daf;
      }

      .cls-4 {
        fill: url(#radial-gradient);
      }

      .cls-11 {
        fill: url(#linear-gradient-10);
      }

      .cls-12 {
        fill: #c7538d;
      }

      .cls-13 {
        fill: url(#linear-gradient-5);
      }

      .cls-14 {
        fill: #5affff;
      }

      .cls-15 {
        fill: url(#linear-gradient-7);
      }

      .cls-5 {
        opacity: .6;
      }

      .cls-16 {
        fill: url(#linear-gradient-9);
      }

      .cls-17 {
        mask: url(#mask-1);
      }

      .cls-18 {
        mask: url(#mask);
      }

      .cls-19 {
        fill: url(#linear-gradient-3);
      }

      .cls-20 {
        fill: url(#linear-gradient-4);
      }

      .cls-21 {
        fill: url(#linear-gradient-8);
      }

      .cls-22 {
        fill: #b7327b;
      }

      .cls-23 {
        fill: url(#linear-gradient-12);
      }

      .cls-24 {
        fill: url(#linear-gradient-13);
      }
    </style>
    <filter id="luminosity-noclip" x="2.36" y="-8226.92" width="49.33" height="32766" color-interpolation-filters="sRGB" filterUnits="userSpaceOnUse">
      <feFlood flood-color="#fff" result="bg"/>
      <feBlend in="SourceGraphic" in2="bg"/>
    </filter>
    <mask id="mask-1" x="2.36" y="-8226.92" width="49.33" height="32766" maskUnits="userSpaceOnUse"/>
    <radialGradient id="radial-gradient" cx="37.69" cy="38.07" fx="37.69" fy="38.07" r="57.35" gradientUnits="userSpaceOnUse">
      <stop offset=".56" stop-color="#000"/>
      <stop offset=".59" stop-color="#040404"/>
      <stop offset=".63" stop-color="#121212"/>
      <stop offset=".66" stop-color="#282828"/>
      <stop offset=".7" stop-color="#484848"/>
      <stop offset=".74" stop-color="#707070"/>
      <stop offset=".78" stop-color="#a2a2a2"/>
      <stop offset=".82" stop-color="#dbdbdb"/>
      <stop offset=".84" stop-color="#fff"/>
    </radialGradient>
    <mask id="mask" x="2.36" y="2.24" width="49.33" height="41.67" maskUnits="userSpaceOnUse">
      <g class="cls-17">
        <path class="cls-4" d="m2.36,43.9V2.24h49.33S2.36,2.07,2.36,43.9Z"/>
      </g>
    </mask>
    <radialGradient id="radial-gradient-2" cx="37.69" cy="38.07" fx="37.69" fy="38.07" r="57.35" gradientUnits="userSpaceOnUse">
      <stop offset=".56" stop-color="#cecece"/>
      <stop offset=".64" stop-color="#d2d2d2"/>
      <stop offset=".72" stop-color="#e0e0e0"/>
      <stop offset=".81" stop-color="#f6f6f6"/>
      <stop offset=".84" stop-color="#fff"/>
    </radialGradient>
    <linearGradient id="linear-gradient" x1="27.64" y1="18.46" x2="73.49" y2="64.31" gradientUnits="userSpaceOnUse">
      <stop offset="0" stop-color="#6b6b6b"/>
      <stop offset=".54" stop-color="#c2c2c2"/>
      <stop offset=".56" stop-color="#c6c6c6"/>
      <stop offset=".74" stop-color="#e5e5e5"/>
      <stop offset=".89" stop-color="#f8f8f8"/>
      <stop offset="1" stop-color="#fff"/>
    </linearGradient>
    <linearGradient id="linear-gradient-2" x1="22.75" y1="36.89" x2="55" y2="36.89" gradientUnits="userSpaceOnUse">
      <stop offset="0" stop-color="#7e7e7e"/>
      <stop offset="1" stop-color="#cecece"/>
    </linearGradient>
    <linearGradient id="linear-gradient-3" x1="24" y1="37.03" x2="48.98" y2="37.03" xlink:href="#linear-gradient-2"/>
    <linearGradient id="linear-gradient-4" x1="25.42" y1="21.62" x2="26.15" y2="21.62" xlink:href="#linear-gradient-2"/>
    <linearGradient id="linear-gradient-5" x1="23.32" y1="37.39" x2="55.56" y2="37.39" xlink:href="#linear-gradient-2"/>
    <linearGradient id="linear-gradient-6" x1="24.57" y1="37.53" x2="49.54" y2="37.53" xlink:href="#linear-gradient-2"/>
    <linearGradient id="linear-gradient-7" x1="25.99" y1="22.12" x2="26.71" y2="22.12" xlink:href="#linear-gradient-2"/>
    <linearGradient id="linear-gradient-8" x1="23.88" y1="37.89" x2="56.13" y2="37.89" xlink:href="#linear-gradient-2"/>
    <linearGradient id="linear-gradient-9" x1="25.13" y1="38.03" x2="50.1" y2="38.03" xlink:href="#linear-gradient-2"/>
    <linearGradient id="linear-gradient-10" x1="26.55" y1="22.62" x2="27.28" y2="22.62" xlink:href="#linear-gradient-2"/>
    <linearGradient id="linear-gradient-11" x1="24.44" y1="38.39" x2="56.69" y2="38.39" xlink:href="#linear-gradient-2"/>
    <linearGradient id="linear-gradient-12" x1="25.69" y1="38.53" x2="50.67" y2="38.53" xlink:href="#linear-gradient-2"/>
    <linearGradient id="linear-gradient-13" x1="27.11" y1="23.12" x2="27.84" y2="23.12" xlink:href="#linear-gradient-2"/>
  </defs>
  <g class="cls-7">
    <g id="Calque_2" data-name="Calque 2">
      <g id="Layer_1" data-name="Layer 1">
        <g>
          <g>
            <rect class="cls-10" x=".5" y=".5" width="69" height="69"/>
            <path class="cls-12" d="m70,69.5l-.05-17.25c-.02-5.75,0-11.5-.07-17.25l-.14-17.25c-.08-5.75-.13-11.5-.25-17.25-.11,5.75-.16,11.5-.25,17.25l-.14,17.25c-.06,5.75-.05,11.5-.07,17.25l-.04,16.75-16.75.04c-5.75.02-11.5.01-17.25.07l-17.25.14c-5.75.08-11.5.13-17.25.24,5.75.11,11.5.16,17.25.24l17.25.14c5.75.06,11.5.05,17.25.07l17.25.05h.5s0-.5,0-.5Z"/>
            <g class="cls-18">
              <path class="cls-8" d="m2.36,43.9V2.24h49.33S2.36,2.07,2.36,43.9Z"/>
            </g>
          </g>
          <path class="cls-22" d="m70,70H0V0h70v70Zm-69-1h68V1H1v68Z"/>
        </g>
        <g>
          <path class="cls-3" d="m51.65,18.03c-.27.14-.57.2-.9.12-1.33-.33-4.33.67-5.29.25-.96-.42-1.73-2.17-8.67-1.95-6.94.22-9.91,1.31-11.16,2.88s-1.16,3-1.16,3.38-2.38,3.06-1.47,4.56c.91,1.5.44,1.28-.06,2.41s-.34,2.41.12,3.06c.47.66.41.94.12,2.25-.22,1.01-.15,1.99.23,3.01l1.16,1.13s0,.02,0,.03c0,.03,0,.05,0,.06h0c0,.59.14.95.29,1.15.03.03.06.05.09.08l.16.17,28.61,28.77h15.52v-34.11l-17.62-17.24Z"/>
          <g>
            <g class="cls-5">
              <path class="cls-1" d="m22.76,31.46c-.05.83.09,1.48.39,2.25.12.31.2.64.26.97-1.62,6.01,5.62,6.02,11.82,5.96.16,0,.72,1.06.82,1.23,1.77,2.87,1.73,6.17,1.91,9.41.16,2.81,1.38,3.54,2.61,5.04.52.4,1.45.83,2.3.93.66.03,1.3-.15,1.7-.77.24-.38.42-.81.55-1.27.23-3.1-.45-6.3-.18-9.41,0-.75.03-1.49.09-2.24.1-.62.22-1.23.33-1.85.48-1.16.95-2.33,1.33-3.51.01-.04.02-.09.04-.13.21.73.55,1.19,1.56,1.38,1.25.23,2.6-.49,3.55-1.22,2.46-1.88,2.94-6.53,3.13-9.33.22-3.22-.46-7.84-2.62-10.38-1.33-1.56-4.89-1.66-6.15.06-.71-.99-1.81-1.41-2.95-1.68-1.14-.22-2.41-.21-3.55-.27-1.45-.08-2.91-.12-4.36-.07-2.16.07-4.27.51-6.36,1.03-1.9.7-3.57,1.84-4.1,3.62-.18.6-.24,1.2-.25,1.81-.54.92-1.18,1.93-1.43,2.89-.13.5-.31,1.15-.12,1.66.25.68.36,1.29.31,1.91-.33.62-.58,1.28-.62,1.99Zm1.58-3.5s-.02.03-.03.04c0-.03-.01-.05-.02-.08-.03-.02-.05-.04-.08-.07-.37-.2-.44-.86-.4-1.19.14-1.19.91-2.36,1.83-3.17-.64-1.42.18-3,1.38-3.89.09-.07.19-.07.25-.02.3-.2.51-.55.87-.67.72-.42,1.7-.77,2.54-.99,1.37-.37,4.55-.59,4.82-.63.67.04,1.61.17,2.27.14,3.03-.14,3.93.09,5.83.6,2.08.45,3.53,2.51,4.11,4.5.03.04.06.09.09.13,0-.01,0-.03-.01-.04.42.5.79,1,1.08,1.69.52,1.22.55,2.51.56,3.82,0,.5,0,1.04-.04,1.6-.03.38-.07.76-.11,1.13-.19,1.46-.58,2.93-1.39,3.98-.05.04-.11.08-.17.12-.12.2-.3.38-.48.53.02-.06.03-.12.04-.18-.09.15-.19.3-.28.45-.4.7-.78,1.42-1.21,2.09-.65,1.78-1.22,3.55-1.6,5.4-.09.54-.13,1.07-.15,1.61-.25,1.45-.32,2.93-.16,4.35.09.83.68,4.18.47,6.54-.44.64-1.38.61-2.33.28-1.08-.38-1.8-1.27-2.3-2.25-.74-1.46-1.04-2.72-1.2-4.11,0-1.52.06-3.03-.14-4.54-.13-.99-.4-1.87-.77-2.69v-.02s-.01,0-.01,0c-.07-.15-.15-.28-.22-.42-.11-.17-.22-.35-.34-.5-.51-.62-1.16-1.06-1.83-1.47-.04,0-.08,0-.12.01-2.11.16-4.48.04-6.49-.42-1.21-.27-2.91-.78-3.61-1.94-.65-.75-.61-1.82-.63-2.81-.02-.02-.04-.06-.04-.11,0-.1.01-.18.02-.27v-.02s-.01-.05-.02-.08c.02-.04.03-.08.05-.11.09-.39.31-.7.61-.99-.26-.04-.5-.11-.72-.21h0s0,0,0,0c-.01,0-.03-.01-.04-.02-.07-.03-.13-.07-.17-.11-.26-.2-.42-.5-.38-.95.08-1.01.38-2.03.95-2.87.04-.06.06-.13.1-.19.3-.47.67-.76,1.1-1.03-.48.14-1.11.28-1.47.08Z"/>
              <path class="cls-19" d="m25.78,28.16c-.92.52-1.31,1.81-1.57,2.77-.27.97-.43,1.8.46,2.29.11.03.23.07.35.1.15.04.12.24.05.34-.64.93-.66,2.7,0,3.63.34.49.78.88,1.24,1.25.53.22,1.06.43,1.62.56.82.19,1.62.31,2.44.38,1.11.25,2.3.28,3.44.32,1.69-.24,3.61.42,5.02,1.29.06.03-.02.14-.07.11-.62-.34-1.31-.48-2.03-.55,1.32.86,2.1,1.98,2.23,3.67.05.73.05,1.47.03,2.2.01.29.02.59.02.88.03,3.55.87,8.11,4.05,8.63,1.96-.07.65-4.51.54-5.62-.19-1.93-.11-3.57.04-5.52.13-1.76.45-3.58,1.05-5.23.2-.54.46-1.03.74-1.5.34-1.03.84-2,1.38-2.94.55-1.46.93-2.96,1.15-4.5.08-.56.25-1.16.36-1.75-.08,1.88-.37,3.69-.8,5.5.84-1.99,1.48-3.94,1.47-6.18,0-1.11-.08-2.23-.3-3.3-.22-.64-.49-1.25-.81-1.86.13.55.24,1.1.3,1.6.07.63.12,1.26.14,1.87h0c-.06-.03-.11-.03-.16-.01-.05-1.91-.54-3.89-1.49-5.5-.93-1.05-1.98-1.99-3.28-2.52-2.61-.68-5.24-.6-7.94-.42-1.72.12-3.44.29-5.13.57-.74.26-1.45.58-2.1.98-.47.98-.32,2.14-.34,3.35-.02,1.08-.27,2.25-.01,3.31.12.48.32,1.11.21,1.62-.22.97-1,1.22-.86,2.42.16,1.36.76,2.95.11,4.22-.13.26-.34.47-.55.67-.03,0-.05.01-.08.01.46-2.23-.99-4.49-.05-6.7.2-.48.54-.97.55-1.51,0-.65-.27-1.02-.53-1.6-.31-.7.45-1.82.53-2.57.04-.3-.03-.62-.11-.93,0-.67,0-1.33.22-1.98-.9.63-1.4,1.62-1.35,2.74.02.31.1.71,0,1.01-.15.4-.38.6-.66.87-.26.34-.57.74-.82,1.15-.29.72-.25,1.5.11,2.24.55-.02,1.05-.44,1.6-.24,0,0,0,0,0,0-.09.05-.17.1-.26.15,0,.09-.04.2-.14.25Z"/>
              <path class="cls-20" d="m25.8,21.06c.11-.21.23-.4.36-.58-.51.67-.81,1.48-.71,2.29.06-.57.07-1.16.35-1.7Z"/>
            </g>
            <g class="cls-5">
              <path class="cls-13" d="m23.33,31.96c-.05.83.09,1.48.39,2.25.12.31.2.64.26.97-1.62,6.01,5.62,6.02,11.82,5.96.16,0,.72,1.06.82,1.23,1.77,2.87,1.73,6.17,1.91,9.41.16,2.81,1.38,3.54,2.61,5.04.52.4,1.45.83,2.3.93.66.03,1.3-.15,1.7-.77.24-.38.42-.81.55-1.27.23-3.1-.45-6.3-.18-9.41,0-.75.03-1.49.09-2.24.1-.62.22-1.23.33-1.85.48-1.16.95-2.33,1.33-3.51.01-.04.02-.09.04-.13.21.73.55,1.19,1.56,1.38,1.25.23,2.6-.49,3.55-1.22,2.46-1.88,2.94-6.53,3.13-9.33.22-3.22-.46-7.84-2.62-10.38-1.33-1.56-4.89-1.66-6.15.06-.71-.99-1.81-1.41-2.95-1.68-1.14-.22-2.41-.21-3.55-.27-1.45-.08-2.91-.12-4.36-.07-2.16.07-4.27.51-6.36,1.03-1.9.7-3.57,1.84-4.1,3.62-.18.6-.24,1.2-.25,1.81-.54.92-1.18,1.93-1.43,2.89-.13.5-.31,1.15-.12,1.66.25.68.36,1.29.31,1.91-.33.62-.58,1.28-.62,1.99Zm1.58-3.5s-.02.03-.03.04c0-.03-.01-.05-.02-.08-.03-.02-.05-.04-.08-.07-.37-.2-.44-.86-.4-1.19.14-1.19.91-2.36,1.83-3.17-.64-1.42.18-3,1.38-3.89.09-.07.19-.07.25-.02.3-.2.51-.55.87-.67.72-.42,1.7-.77,2.54-.99,1.37-.37,4.55-.59,4.82-.63.67.04,1.61.17,2.27.14,3.03-.14,3.93.09,5.83.6,2.08.45,3.53,2.51,4.11,4.5.03.04.06.09.09.13,0-.01,0-.03-.01-.04.42.5.79,1,1.08,1.69.52,1.22.55,2.51.56,3.82,0,.5,0,1.04-.04,1.6-.03.38-.07.76-.11,1.13-.19,1.46-.58,2.93-1.39,3.98-.05.04-.11.08-.17.12-.12.2-.3.38-.48.53.02-.06.03-.12.04-.18-.09.15-.19.3-.28.45-.4.7-.78,1.42-1.21,2.09-.65,1.78-1.22,3.55-1.6,5.4-.09.54-.13,1.07-.15,1.61-.25,1.45-.32,2.93-.16,4.35.09.83.68,4.18.47,6.54-.44.64-1.38.61-2.33.28-1.08-.38-1.8-1.27-2.3-2.25-.74-1.46-1.04-2.72-1.2-4.11,0-1.52.06-3.03-.14-4.54-.13-.99-.4-1.87-.77-2.69v-.02s-.01,0-.01,0c-.07-.15-.15-.28-.22-.42-.11-.17-.22-.35-.34-.5-.51-.62-1.16-1.06-1.83-1.47-.04,0-.08,0-.12.01-2.11.16-4.48.04-6.49-.42-1.21-.27-2.91-.78-3.61-1.94-.65-.75-.61-1.82-.63-2.81-.02-.02-.04-.06-.04-.11,0-.1.01-.18.02-.27v-.02s-.01-.05-.02-.08c.01-.04.03-.08.05-.11.09-.39.31-.7.61-.99-.26-.04-.5-.11-.72-.21h0s0,0,0,0c-.01,0-.03-.01-.04-.02-.07-.03-.13-.07-.17-.11-.26-.2-.42-.5-.38-.95.08-1.01.38-2.03.95-2.87.04-.06.06-.13.1-.19.3-.47.67-.76,1.1-1.03-.48.14-1.11.28-1.47.08Z"/>
              <path class="cls-6" d="m26.34,28.66c-.92.52-1.31,1.81-1.57,2.77-.27.97-.43,1.8.46,2.29.11.03.23.07.35.1.15.04.12.24.05.34-.64.93-.66,2.7,0,3.63.34.49.78.88,1.24,1.25.53.22,1.06.43,1.62.56.82.19,1.62.31,2.44.38,1.11.25,2.3.28,3.44.32,1.69-.24,3.61.42,5.02,1.29.06.03-.02.14-.07.11-.62-.34-1.31-.48-2.03-.55,1.32.86,2.1,1.98,2.23,3.67.05.73.05,1.47.03,2.2.01.29.02.59.02.88.03,3.55.87,8.11,4.05,8.63,1.96-.07.65-4.51.54-5.62-.19-1.93-.11-3.57.04-5.52.13-1.76.45-3.58,1.05-5.23.2-.54.46-1.03.74-1.5.34-1.03.84-2,1.38-2.94.55-1.46.93-2.96,1.15-4.5.08-.56.25-1.16.35-1.75-.08,1.88-.37,3.69-.8,5.5.84-1.99,1.48-3.94,1.47-6.18,0-1.11-.08-2.23-.3-3.3-.22-.64-.49-1.25-.81-1.86.13.55.24,1.1.3,1.6.07.63.12,1.26.14,1.87h0c-.06-.03-.11-.03-.16-.01-.05-1.91-.54-3.89-1.49-5.5-.93-1.05-1.98-1.99-3.28-2.52-2.61-.68-5.24-.6-7.94-.42-1.72.12-3.44.29-5.13.57-.74.26-1.45.58-2.1.98-.47.98-.32,2.14-.34,3.35-.02,1.08-.27,2.25-.01,3.31.12.48.32,1.11.21,1.62-.22.97-1,1.22-.86,2.42.16,1.36.76,2.95.11,4.22-.13.26-.34.47-.55.67-.03,0-.05.01-.08.01.46-2.23-.99-4.49-.05-6.7.2-.48.54-.97.55-1.51,0-.65-.27-1.02-.53-1.6-.31-.7.45-1.82.53-2.57.04-.3-.03-.62-.11-.93,0-.67,0-1.33.22-1.98-.9.63-1.4,1.62-1.35,2.74.02.31.1.71,0,1.01-.15.4-.38.6-.66.87-.26.34-.57.74-.82,1.15-.29.72-.25,1.5.11,2.24.55-.02,1.05-.44,1.6-.24,0,0,0,0,0,0-.09.05-.17.1-.26.15,0,.09-.04.2-.14.25Z"/>
              <path class="cls-15" d="m26.36,21.56c.11-.21.23-.4.36-.58-.51.67-.81,1.48-.71,2.29.06-.57.07-1.16.35-1.7Z"/>
            </g>
            <g class="cls-5">
              <path class="cls-21" d="m23.89,32.46c-.05.83.09,1.48.39,2.25.12.31.2.64.26.97-1.62,6.01,5.62,6.02,11.82,5.96.16,0,.72,1.06.82,1.23,1.77,2.87,1.73,6.17,1.91,9.41.16,2.81,1.38,3.54,2.61,5.04.52.4,1.45.83,2.3.93.66.03,1.3-.15,1.7-.77.24-.38.42-.81.55-1.27.23-3.1-.45-6.3-.18-9.41,0-.75.03-1.49.09-2.24.1-.62.22-1.23.33-1.85.48-1.16.95-2.33,1.33-3.51.01-.04.02-.09.04-.13.21.73.55,1.19,1.56,1.38,1.25.23,2.6-.49,3.55-1.22,2.46-1.88,2.94-6.53,3.13-9.33.22-3.22-.46-7.84-2.62-10.38-1.33-1.56-4.89-1.66-6.15.06-.71-.99-1.81-1.41-2.95-1.68-1.14-.22-2.41-.21-3.55-.27-1.45-.08-2.91-.12-4.36-.07-2.16.07-4.27.51-6.36,1.03-1.9.7-3.57,1.84-4.1,3.62-.18.6-.24,1.2-.25,1.81-.54.92-1.18,1.93-1.43,2.89-.13.5-.31,1.15-.12,1.66.25.68.36,1.29.31,1.91-.33.62-.58,1.28-.62,1.99Zm1.58-3.5s-.02.03-.03.04c0-.03-.01-.05-.02-.08-.03-.02-.05-.04-.08-.07-.37-.2-.44-.86-.4-1.19.14-1.19.91-2.36,1.83-3.17-.64-1.42.18-3,1.38-3.89.09-.07.19-.07.25-.02.3-.2.51-.55.87-.67.72-.42,1.7-.77,2.54-.99,1.37-.37,4.55-.59,4.82-.63.67.04,1.61.17,2.27.14,3.03-.14,3.93.09,5.83.6,2.08.45,3.53,2.51,4.11,4.5.03.04.06.09.09.13,0-.01,0-.03-.01-.04.42.5.79,1,1.08,1.69.52,1.22.55,2.51.56,3.82,0,.5,0,1.04-.04,1.6-.03.38-.07.76-.11,1.13-.19,1.46-.58,2.93-1.39,3.98-.05.04-.11.08-.17.12-.12.2-.3.38-.48.53.02-.06.03-.12.04-.18-.09.15-.19.3-.28.45-.4.7-.78,1.42-1.21,2.09-.65,1.78-1.22,3.55-1.6,5.4-.09.54-.13,1.07-.15,1.61-.25,1.45-.32,2.93-.16,4.35.09.83.68,4.18.47,6.54-.44.64-1.38.61-2.33.28-1.08-.38-1.8-1.27-2.3-2.25-.74-1.46-1.04-2.72-1.2-4.11,0-1.52.06-3.03-.14-4.54-.13-.99-.4-1.87-.77-2.69v-.02s-.01,0-.01,0c-.07-.15-.15-.28-.22-.42-.11-.17-.22-.35-.34-.5-.51-.62-1.16-1.06-1.83-1.47-.04,0-.08,0-.12.01-2.11.16-4.48.04-6.49-.42-1.21-.27-2.91-.78-3.61-1.94-.65-.75-.61-1.82-.63-2.81-.02-.02-.04-.06-.04-.11,0-.1.01-.18.02-.27v-.02s-.01-.05-.02-.08c.02-.04.03-.08.05-.11.09-.39.31-.7.61-.99-.26-.04-.5-.11-.72-.21h0s0,0,0,0c-.01,0-.03-.01-.04-.02-.07-.03-.13-.07-.17-.11-.26-.2-.42-.5-.38-.95.08-1.01.38-2.03.95-2.87.04-.06.06-.13.1-.19.3-.47.67-.76,1.1-1.03-.48.14-1.11.28-1.47.08Z"/>
              <path class="cls-16" d="m26.91,29.16c-.92.52-1.31,1.81-1.57,2.77-.27.97-.43,1.8.46,2.29.11.03.23.07.35.1.15.04.12.24.05.34-.64.93-.66,2.7,0,3.63.34.49.78.88,1.24,1.25.53.22,1.06.43,1.62.56.82.19,1.62.31,2.44.38,1.11.25,2.3.28,3.44.32,1.69-.24,3.61.42,5.02,1.29.06.03-.02.14-.07.11-.62-.34-1.31-.48-2.03-.55,1.32.86,2.1,1.98,2.23,3.67.05.73.05,1.47.03,2.2.01.29.02.59.02.88.03,3.55.87,8.11,4.05,8.63,1.96-.07.65-4.51.54-5.62-.19-1.93-.11-3.57.04-5.52.13-1.76.45-3.58,1.05-5.23.2-.54.46-1.03.74-1.5.34-1.03.84-2,1.38-2.94.55-1.46.93-2.96,1.15-4.5.08-.56.25-1.16.36-1.75-.08,1.88-.37,3.69-.8,5.5.84-1.99,1.48-3.94,1.47-6.18,0-1.11-.08-2.23-.3-3.3-.22-.64-.49-1.25-.81-1.86.13.55.24,1.1.3,1.6.07.63.12,1.26.14,1.87h0c-.06-.03-.11-.03-.16-.01-.05-1.91-.54-3.89-1.49-5.5-.93-1.05-1.98-1.99-3.28-2.52-2.61-.68-5.24-.6-7.94-.42-1.72.12-3.44.29-5.13.57-.74.26-1.45.58-2.1.98-.47.98-.32,2.14-.34,3.35-.02,1.08-.27,2.25-.01,3.31.12.48.32,1.11.21,1.62-.22.97-1,1.22-.86,2.42.16,1.36.76,2.95.11,4.22-.13.26-.34.47-.55.67-.03,0-.05.01-.08.01.46-2.23-.99-4.49-.05-6.7.2-.48.54-.97.55-1.51,0-.65-.27-1.02-.53-1.6-.31-.7.45-1.82.53-2.57.04-.3-.03-.62-.11-.93,0-.67,0-1.33.22-1.98-.9.63-1.4,1.62-1.35,2.74.02.31.1.71,0,1.01-.15.4-.38.6-.66.87-.26.34-.57.74-.82,1.15-.29.72-.25,1.5.11,2.24.55-.02,1.05-.44,1.6-.24,0,0,0,0,0,0-.09.05-.17.1-.26.15,0,.09-.04.2-.14.25Z"/>
              <path class="cls-11" d="m26.92,22.06c.11-.21.23-.4.36-.58-.51.67-.81,1.48-.71,2.29.06-.57.07-1.16.35-1.7Z"/>
            </g>
            <g class="cls-5">
              <path class="cls-9" d="m24.45,32.96c-.05.83.09,1.48.39,2.25.12.31.2.64.26.97-1.62,6.01,5.62,6.02,11.82,5.96.16,0,.72,1.06.82,1.23,1.77,2.87,1.73,6.17,1.91,9.41.16,2.81,1.38,3.54,2.61,5.04.52.4,1.45.83,2.3.93.66.03,1.3-.15,1.7-.77.24-.38.42-.81.55-1.27.23-3.1-.45-6.3-.18-9.41,0-.75.03-1.49.09-2.24.1-.62.22-1.23.33-1.85.48-1.16.95-2.33,1.33-3.51.01-.04.02-.09.04-.13.21.73.55,1.19,1.56,1.38,1.25.23,2.6-.49,3.55-1.22,2.46-1.88,2.94-6.53,3.13-9.33.22-3.22-.46-7.84-2.62-10.38-1.33-1.56-4.89-1.66-6.15.06-.71-.99-1.81-1.41-2.95-1.68-1.14-.22-2.41-.21-3.55-.27-1.45-.08-2.91-.12-4.36-.07-2.16.07-4.27.51-6.36,1.03-1.9.7-3.57,1.84-4.1,3.62-.18.6-.24,1.2-.25,1.81-.54.92-1.18,1.93-1.43,2.89-.13.5-.31,1.15-.12,1.66.25.68.36,1.29.31,1.91-.33.62-.58,1.28-.62,1.99Zm1.58-3.5s-.02.03-.03.04c0-.03-.01-.05-.02-.08-.03-.02-.05-.04-.08-.07-.37-.2-.44-.86-.4-1.19.14-1.19.91-2.36,1.83-3.17-.64-1.42.18-3,1.38-3.89.09-.07.19-.07.25-.02.3-.2.51-.55.87-.67.72-.42,1.7-.77,2.54-.99,1.37-.37,4.55-.59,4.82-.63.67.04,1.61.17,2.27.14,3.03-.14,3.93.09,5.83.6,2.08.45,3.53,2.51,4.11,4.5.03.04.06.09.09.13,0-.01,0-.03-.01-.04.42.5.79,1,1.08,1.69.52,1.22.55,2.51.56,3.82,0,.5,0,1.04-.04,1.6-.03.38-.07.76-.11,1.13-.19,1.46-.58,2.93-1.39,3.98-.05.04-.11.08-.17.12-.12.2-.3.38-.48.53.02-.06.03-.12.04-.18-.09.15-.19.3-.28.45-.4.7-.78,1.42-1.21,2.09-.65,1.78-1.22,3.55-1.6,5.4-.09.54-.13,1.07-.15,1.61-.25,1.45-.32,2.93-.16,4.35.09.83.68,4.18.47,6.54-.44.64-1.38.61-2.33.28-1.08-.38-1.8-1.27-2.3-2.25-.74-1.46-1.04-2.72-1.2-4.11,0-1.52.06-3.03-.14-4.54-.13-.99-.4-1.87-.77-2.69v-.02s-.01,0-.01,0c-.07-.15-.15-.28-.22-.42-.11-.17-.22-.35-.34-.5-.51-.62-1.16-1.06-1.83-1.47-.04,0-.08,0-.12.01-2.11.16-4.48.04-6.49-.42-1.21-.27-2.91-.78-3.61-1.94-.65-.75-.61-1.82-.63-2.81-.02-.02-.04-.06-.04-.11,0-.1.01-.18.02-.27v-.02s-.01-.05-.02-.08c.01-.04.03-.08.05-.11.09-.39.31-.7.61-.99-.26-.04-.5-.11-.72-.21h0s0,0,0,0c-.01,0-.03-.01-.04-.02-.07-.03-.13-.07-.17-.11-.26-.2-.42-.5-.38-.95.08-1.01.38-2.03.95-2.87.04-.06.06-.13.1-.19.3-.47.67-.76,1.1-1.03-.48.14-1.11.28-1.47.08Z"/>
              <path class="cls-23" d="m27.47,29.66c-.92.52-1.31,1.81-1.57,2.77-.27.97-.43,1.8.46,2.29.11.03.23.07.35.1.15.04.12.24.05.34-.64.93-.66,2.7,0,3.63.34.49.78.88,1.24,1.25.53.22,1.06.43,1.62.56.82.19,1.62.31,2.44.38,1.11.25,2.3.28,3.44.32,1.69-.24,3.61.42,5.02,1.29.06.03-.02.14-.07.11-.62-.34-1.31-.48-2.03-.55,1.32.86,2.1,1.98,2.23,3.67.05.73.05,1.47.03,2.2.01.29.02.59.02.88.03,3.55.87,8.11,4.05,8.63,1.96-.07.65-4.51.54-5.62-.19-1.93-.11-3.57.04-5.52.13-1.76.45-3.58,1.05-5.23.2-.54.46-1.03.74-1.5.34-1.03.84-2,1.38-2.94.55-1.46.93-2.96,1.15-4.5.08-.56.25-1.16.35-1.75-.08,1.88-.37,3.69-.8,5.5.84-1.99,1.48-3.94,1.47-6.18,0-1.11-.08-2.23-.3-3.3-.22-.64-.49-1.25-.81-1.86.13.55.24,1.1.3,1.6.07.63.12,1.26.14,1.87h0c-.06-.03-.11-.03-.16-.01-.05-1.91-.54-3.89-1.49-5.5-.93-1.05-1.98-1.99-3.28-2.52-2.61-.68-5.24-.6-7.94-.42-1.72.12-3.44.29-5.13.57-.74.26-1.45.58-2.1.98-.47.98-.32,2.14-.34,3.35-.02,1.08-.27,2.25-.01,3.31.12.48.32,1.11.21,1.62-.22.97-1,1.22-.86,2.42.16,1.36.76,2.95.11,4.22-.13.26-.34.47-.55.67-.03,0-.05.01-.08.01.46-2.23-.99-4.49-.05-6.7.2-.48.54-.97.55-1.51,0-.65-.27-1.02-.53-1.6-.31-.7.45-1.82.53-2.57.04-.3-.03-.62-.11-.93,0-.67,0-1.33.22-1.98-.9.63-1.4,1.62-1.35,2.74.02.31.1.71,0,1.01-.15.4-.38.6-.66.87-.26.34-.57.74-.82,1.15-.29.72-.25,1.5.11,2.24.55-.02,1.05-.44,1.6-.24,0,0,0,0,0,0-.09.05-.17.1-.26.15,0,.09-.04.2-.14.25Z"/>
              <path class="cls-24" d="m27.48,22.56c.11-.21.23-.4.36-.58-.51.67-.81,1.48-.71,2.29.06-.57.07-1.16.35-1.7Z"/>
            </g>
            <g>
              <path class="cls-2" d="m22.2,30.96c-.05.83.09,1.48.39,2.25.12.31.2.64.26.97-1.62,6.01,5.62,6.02,11.82,5.96.16,0,.72,1.06.82,1.23,1.77,2.87,1.73,6.17,1.91,9.41.16,2.81,1.38,3.54,2.61,5.04.52.4,1.45.83,2.3.93.66.03,1.3-.15,1.7-.77.24-.38.42-.81.55-1.27.23-3.1-.45-6.3-.18-9.41,0-.75.03-1.49.09-2.24.1-.62.22-1.23.33-1.85.48-1.16.95-2.33,1.33-3.51.01-.04.02-.09.04-.13.21.73.55,1.19,1.56,1.38,1.25.23,2.6-.49,3.55-1.22,2.46-1.88,2.94-6.53,3.13-9.33.22-3.22-.46-7.84-2.62-10.38-1.33-1.56-4.89-1.66-6.15.06-.71-.99-1.81-1.41-2.95-1.68-1.14-.22-2.41-.21-3.55-.27-1.45-.08-2.91-.12-4.36-.07-2.16.07-4.27.51-6.36,1.03-1.9.7-3.57,1.84-4.1,3.62-.18.6-.24,1.2-.25,1.81-.54.92-1.18,1.93-1.43,2.89-.13.5-.31,1.15-.12,1.66.25.68.36,1.29.31,1.91-.33.62-.58,1.28-.62,1.99Zm1.58-3.5s-.02.03-.03.04c0-.03-.01-.05-.02-.08-.03-.02-.05-.04-.08-.07-.37-.2-.44-.86-.4-1.19.14-1.19.91-2.36,1.83-3.17-.64-1.42.18-3,1.38-3.89.09-.07.19-.07.25-.02.3-.2.51-.55.87-.67.72-.42,1.7-.77,2.54-.99,1.37-.37,4.55-.59,4.82-.63.67.04,1.61.17,2.27.14,3.03-.14,3.93.09,5.83.6,2.08.45,3.53,2.51,4.11,4.5.03.04.06.09.09.13,0-.01,0-.03-.01-.04.42.5.79,1,1.08,1.69.52,1.22.55,2.51.56,3.82,0,.5,0,1.04-.04,1.6-.03.38-.07.76-.11,1.13-.19,1.46-.58,2.93-1.39,3.98-.05.04-.11.08-.17.12-.12.2-.3.38-.48.53.02-.06.03-.12.04-.18-.09.15-.19.3-.28.45-.4.7-.78,1.42-1.21,2.09-.65,1.78-1.22,3.55-1.6,5.4-.09.54-.13,1.07-.15,1.61-.25,1.45-.32,2.93-.16,4.35.09.83.68,4.18.47,6.54-.44.64-1.38.61-2.33.28-1.08-.38-1.8-1.27-2.3-2.25-.74-1.46-1.04-2.72-1.2-4.11,0-1.52.06-3.03-.14-4.54-.13-.99-.4-1.87-.77-2.69v-.02s-.01,0-.01,0c-.07-.15-.15-.28-.22-.42-.11-.17-.22-.35-.34-.5-.51-.62-1.16-1.06-1.83-1.47-.04,0-.08,0-.12.01-2.11.16-4.48.04-6.49-.42-1.21-.27-2.91-.78-3.61-1.94-.65-.75-.61-1.82-.63-2.81-.02-.02-.04-.06-.04-.11,0-.1.01-.18.02-.27v-.02s-.01-.05-.02-.08c.01-.04.03-.08.05-.11.09-.39.31-.7.61-.99-.26-.04-.5-.11-.72-.21h0s0,0,0,0c-.01,0-.03-.01-.04-.02-.07-.03-.13-.07-.17-.11-.26-.2-.42-.5-.38-.95.08-1.01.38-2.03.95-2.87.04-.06.06-.13.1-.19.3-.47.67-.76,1.1-1.03-.48.14-1.11.28-1.47.08Z"/>
              <path class="cls-2" d="m25.22,27.66c-.92.52-1.31,1.81-1.57,2.77-.27.97-.43,1.8.46,2.29.11.03.23.07.35.1.15.04.12.24.05.34-.64.93-.66,2.7,0,3.63.34.49.78.88,1.24,1.25.53.22,1.06.43,1.62.56.82.19,1.62.31,2.44.38,1.11.25,2.3.28,3.44.32,1.69-.24,3.61.42,5.02,1.29.06.03-.02.14-.07.11-.62-.34-1.31-.48-2.03-.55,1.32.86,2.1,1.98,2.23,3.67.05.73.05,1.47.03,2.2.01.29.02.59.02.88.03,3.55.87,8.11,4.05,8.63,1.96-.07.65-4.51.54-5.62-.19-1.93-.11-3.57.04-5.52.13-1.76.45-3.58,1.05-5.23.2-.54.46-1.03.74-1.5.34-1.03.84-2,1.38-2.94.55-1.46.93-2.96,1.15-4.5.08-.56.25-1.16.35-1.75-.08,1.88-.37,3.69-.8,5.5.84-1.99,1.48-3.94,1.47-6.18,0-1.11-.08-2.23-.3-3.3-.22-.64-.49-1.25-.81-1.86.13.55.24,1.1.3,1.6.07.63.12,1.26.14,1.87h0c-.06-.03-.11-.03-.16-.01-.05-1.91-.54-3.89-1.49-5.5-.93-1.05-1.98-1.99-3.28-2.52-2.61-.68-5.24-.6-7.94-.42-1.72.12-3.44.29-5.13.57-.74.26-1.45.58-2.1.98-.47.98-.32,2.14-.34,3.35-.02,1.08-.27,2.25-.01,3.31.12.48.32,1.11.21,1.62-.22.97-1,1.22-.86,2.42.16,1.36.76,2.95.11,4.22-.13.26-.34.47-.55.67-.03,0-.05.01-.08.01.46-2.23-.99-4.49-.05-6.7.2-.48.54-.97.55-1.51,0-.65-.27-1.02-.53-1.6-.31-.7.45-1.82.53-2.57.04-.3-.03-.62-.11-.93,0-.67,0-1.33.22-1.98-.9.63-1.4,1.62-1.35,2.74.02.31.1.71,0,1.01-.15.4-.38.6-.66.87-.26.34-.57.74-.82,1.15-.29.72-.25,1.5.11,2.24.55-.02,1.05-.44,1.6-.24,0,0,0,0,0,0-.09.05-.17.1-.26.15,0,.09-.04.2-.14.25Z"/>
              <path class="cls-14" d="m25.23,20.56c.11-.21.23-.4.36-.58-.51.67-.81,1.48-.71,2.29.06-.57.07-1.16.35-1.7Z"/>
            </g>
          </g>
        </g>
      </g>
    </g>
  </g>
</svg>