<?xml version="1.0" encoding="UTF-8"?>
<svg xmlns="http://www.w3.org/2000/svg" xmlns:xlink="http://www.w3.org/1999/xlink" viewBox="0 0 70.06 70.06">
  <defs>
    <style>
      .cls-1 {
        fill: url(#linear-gradient-2);
      }

      .cls-2 {
        fill: #fff;
      }

      .cls-3 {
        fill: url(#linear-gradient);
      }

      .cls-3, .cls-4, .cls-5 {
        mix-blend-mode: multiply;
      }

      .cls-6 {
        fill: #d38400;
      }

      .cls-7 {
        fill: #d7833a;
      }

      .cls-8 {
        fill: #ffb600;
      }

      .cls-9 {
        fill: url(#linear-gradient-6);
      }

      .cls-10 {
        isolation: isolate;
      }

      .cls-11 {
        fill: url(#radial-gradient-2);
        mix-blend-mode: screen;
        opacity: .9;
      }

      .cls-12 {
        fill: url(#linear-gradient-11);
      }

      .cls-4 {
        fill: url(#radial-gradient);
      }

      .cls-13 {
        fill: url(#linear-gradient-10);
      }

      .cls-14 {
        fill: url(#linear-gradient-5);
      }

      .cls-15 {
        fill: #5affff;
      }

      .cls-16 {
        fill: url(#linear-gradient-7);
      }

      .cls-5 {
        opacity: .6;
      }

      .cls-17 {
        fill: url(#linear-gradient-9);
      }

      .cls-18 {
        mask: url(#mask-1);
      }

      .cls-19 {
        mask: url(#mask);
      }

      .cls-20 {
        fill: url(#linear-gradient-3);
      }

      .cls-21 {
        fill: url(#linear-gradient-4);
      }

      .cls-22 {
        fill: url(#linear-gradient-8);
      }

      .cls-23 {
        fill: url(#linear-gradient-12);
      }

      .cls-24 {
        fill: url(#linear-gradient-13);
      }
    </style>
    <filter id="luminosity-noclip" x="1.98" y="-8226.94" width="49.33" height="32766" color-interpolation-filters="sRGB" filterUnits="userSpaceOnUse">
      <feFlood flood-color="#fff" result="bg"/>
      <feBlend in="SourceGraphic" in2="bg"/>
    </filter>
    <mask id="mask-1" x="1.98" y="-8226.94" width="49.33" height="32766" maskUnits="userSpaceOnUse"/>
    <radialGradient id="radial-gradient" cx="37.31" cy="38.07" fx="37.31" fy="38.07" r="57.35" gradientUnits="userSpaceOnUse">
      <stop offset=".56" stop-color="#000"/>
      <stop offset=".59" stop-color="#040404"/>
      <stop offset=".63" stop-color="#121212"/>
      <stop offset=".66" stop-color="#282828"/>
      <stop offset=".7" stop-color="#484848"/>
      <stop offset=".74" stop-color="#707070"/>
      <stop offset=".78" stop-color="#a2a2a2"/>
      <stop offset=".82" stop-color="#dbdbdb"/>
      <stop offset=".84" stop-color="#fff"/>
    </radialGradient>
    <mask id="mask" x="1.98" y="2.24" width="49.33" height="41.67" maskUnits="userSpaceOnUse">
      <g class="cls-18">
        <path class="cls-4" d="m1.98,43.9V2.24h49.33S1.98,2.07,1.98,43.9Z"/>
      </g>
    </mask>
    <radialGradient id="radial-gradient-2" cx="37.31" cy="38.07" fx="37.31" fy="38.07" r="57.35" gradientUnits="userSpaceOnUse">
      <stop offset=".56" stop-color="#cecece"/>
      <stop offset=".64" stop-color="#d2d2d2"/>
      <stop offset=".72" stop-color="#e0e0e0"/>
      <stop offset=".81" stop-color="#f6f6f6"/>
      <stop offset=".84" stop-color="#fff"/>
    </radialGradient>
    <linearGradient id="linear-gradient" x1="15.65" y1="23.55" x2="64.98" y2="72.89" gradientUnits="userSpaceOnUse">
      <stop offset="0" stop-color="#6b6b6b"/>
      <stop offset=".54" stop-color="#c2c2c2"/>
      <stop offset=".56" stop-color="#c6c6c6"/>
      <stop offset=".74" stop-color="#e5e5e5"/>
      <stop offset=".89" stop-color="#f8f8f8"/>
      <stop offset="1" stop-color="#fff"/>
    </linearGradient>
    <linearGradient id="linear-gradient-2" x1="19.64" y1="36.92" x2="51.89" y2="36.92" gradientUnits="userSpaceOnUse">
      <stop offset="0" stop-color="#7e7e7e"/>
      <stop offset="1" stop-color="#cecece"/>
    </linearGradient>
    <linearGradient id="linear-gradient-3" x1="25.66" y1="36.78" x2="50.64" y2="36.78" xlink:href="#linear-gradient-2"/>
    <linearGradient id="linear-gradient-4" x1="48.49" y1="52.19" x2="49.22" y2="52.19" xlink:href="#linear-gradient-2"/>
    <linearGradient id="linear-gradient-5" x1="20.2" y1="37.42" x2="52.45" y2="37.42" xlink:href="#linear-gradient-2"/>
    <linearGradient id="linear-gradient-6" x1="26.23" y1="37.28" x2="51.2" y2="37.28" xlink:href="#linear-gradient-2"/>
    <linearGradient id="linear-gradient-7" x1="49.05" y1="52.69" x2="49.78" y2="52.69" xlink:href="#linear-gradient-2"/>
    <linearGradient id="linear-gradient-8" x1="20.76" y1="37.92" x2="53.01" y2="37.92" xlink:href="#linear-gradient-2"/>
    <linearGradient id="linear-gradient-9" x1="26.79" y1="37.78" x2="51.76" y2="37.78" xlink:href="#linear-gradient-2"/>
    <linearGradient id="linear-gradient-10" x1="49.61" y1="53.19" x2="50.34" y2="53.19" xlink:href="#linear-gradient-2"/>
    <linearGradient id="linear-gradient-11" x1="21.33" y1="38.42" x2="53.57" y2="38.42" xlink:href="#linear-gradient-2"/>
    <linearGradient id="linear-gradient-12" x1="27.35" y1="38.28" x2="52.33" y2="38.28" xlink:href="#linear-gradient-2"/>
    <linearGradient id="linear-gradient-13" x1="50.18" y1="53.69" x2="50.9" y2="53.69" xlink:href="#linear-gradient-2"/>
  </defs>
  <g class="cls-10">
    <g id="Calque_2" data-name="Calque 2">
      <g id="Layer_1" data-name="Layer 1">
        <g>
          <g>
            <rect class="cls-8" x=".5" y=".5" width="69" height="69"/>
            <path class="cls-6" d="m69.32,17.81l-.14,17.25c-.06,5.75-.05,11.5-.07,17.25l-.04,16.75-16.75.04c-5.75.02-11.5,0-17.25.07l-17.25.14c-5.75.08-11.5.13-17.25.25,5.75.11,11.5.16,17.25.25l17.25.14c5.75.06,11.5.05,17.25.07l17.25.05h.5s0-.5,0-.5l-.04-17.25c-.02-5.75-.01-11.5-.07-17.25l-.14-17.25c-.08-5.75-.13-11.5-.24-17.25-.11,5.75-.16,11.5-.24,17.25Z"/>
            <g class="cls-19">
              <path class="cls-11" d="m1.98,43.9V2.24h49.33S1.98,2.07,1.98,43.9Z"/>
            </g>
          </g>
          <path class="cls-7" d="m70,70H0V0h70v70Zm-69-1h68V1H1v68Z"/>
        </g>
        <g>
          <path class="cls-3" d="m33.64,17.21c-4.07-1.91-4.44.52-4.36,2.17.08,1.67.42,4.5.29,8.08s-.96,5.5-1.58,7.21c-.62,1.71-1.08.62-3.04.12s-4.88,3.54-5.42,8.71,1.71,8.62,2.17,10.29c.07.24.02.46-.1.68l14.84,14.93h32.94v-17.17L33.64,17.21Z"/>
          <g>
            <g class="cls-5">
              <path class="cls-1" d="m51.88,42.35c.04-.83-.09-1.48-.39-2.25-.12-.31-.2-.64-.26-.97,1.62-6.01-5.62-6.02-11.82-5.96-.16,0-.72-1.06-.82-1.23-1.77-2.87-1.73-6.16-1.91-9.41-.16-2.81-1.38-3.54-2.61-5.04-.52-.4-1.45-.83-2.3-.93-.66-.03-1.3.15-1.7.77-.24.38-.42.81-.54,1.27-.24,3.1.44,6.3.18,9.41,0,.75-.03,1.49-.09,2.24-.1.62-.22,1.23-.33,1.85-.48,1.16-.95,2.33-1.33,3.51-.01.04-.02.09-.04.13-.21-.73-.55-1.19-1.56-1.38-1.25-.23-2.6.49-3.55,1.21-2.46,1.88-2.94,6.53-3.13,9.33-.22,3.22.46,7.84,2.62,10.38,1.33,1.56,4.89,1.66,6.15-.07.71.99,1.81,1.41,2.95,1.69,1.14.22,2.41.21,3.55.27,1.45.08,2.91.12,4.36.07,2.16-.07,4.27-.51,6.36-1.03,1.9-.7,3.57-1.84,4.1-3.61.18-.6.24-1.2.25-1.81.54-.92,1.18-1.93,1.43-2.89.13-.5.31-1.15.12-1.66-.25-.69-.36-1.29-.31-1.92.33-.62.58-1.28.62-1.99Zm-1.58,3.5s.02-.03.03-.04c0,.03.01.05.02.08.03.02.05.04.08.07.36.2.44.86.4,1.19-.14,1.19-.91,2.36-1.83,3.17.64,1.42-.18,3-1.38,3.89-.09.07-.19.07-.25.02-.3.2-.51.55-.87.67-.72.42-1.7.77-2.54.99-1.37.37-4.55.59-4.82.63-.67-.04-1.61-.17-2.27-.14-3.03.14-3.93-.09-5.82-.61-2.08-.45-3.53-2.51-4.11-4.5-.03-.04-.06-.08-.09-.13,0,.01,0,.03.01.04-.42-.5-.79-1-1.08-1.69-.52-1.23-.55-2.51-.56-3.82,0-.49,0-1.04.04-1.6.03-.38.07-.76.11-1.13.19-1.46.58-2.93,1.39-3.98.05-.04.11-.08.16-.12.12-.2.3-.38.48-.53-.02.06-.03.12-.04.18.09-.15.19-.3.28-.45.4-.7.78-1.42,1.21-2.09.65-1.78,1.22-3.55,1.6-5.4.09-.53.13-1.07.15-1.61.25-1.45.32-2.93.16-4.35-.09-.83-.68-4.18-.47-6.54.44-.64,1.38-.61,2.33-.28,1.08.38,1.8,1.27,2.3,2.25.74,1.46,1.04,2.72,1.2,4.11,0,1.52-.06,3.03.14,4.54.13.99.4,1.87.77,2.69v.02s.01,0,.01,0c.07.15.15.28.22.42.11.17.22.35.34.5.51.62,1.16,1.06,1.83,1.47.04,0,.07,0,.11-.01,2.11-.16,4.48-.04,6.49.42,1.21.27,2.91.78,3.61,1.94.65.75.61,1.82.63,2.82.02.02.04.06.04.11,0,.1-.01.18-.02.27,0,0,0,.01,0,.02,0,.03,0,.05.02.07-.01.04-.03.08-.05.11-.09.39-.31.7-.61,1,.26.04.5.11.72.21h0s0,0,0,0c.01,0,.03.01.04.02.07.03.13.07.17.11.26.2.42.5.38.95-.08,1.01-.38,2.03-.95,2.87-.04.06-.06.13-.1.19-.3.47-.67.76-1.1,1.03.49-.14,1.11-.28,1.47-.08Z"/>
              <path class="cls-20" d="m48.86,45.65c.92-.52,1.31-1.81,1.57-2.77.26-.97.43-1.8-.46-2.29-.11-.03-.23-.07-.35-.1-.15-.04-.12-.24-.05-.34.64-.93.66-2.7,0-3.63-.34-.49-.78-.88-1.24-1.25-.53-.22-1.06-.43-1.62-.56-.82-.19-1.62-.31-2.44-.38-1.11-.25-2.29-.28-3.44-.32-1.69.24-3.61-.42-5.02-1.29-.06-.03.02-.14.07-.11.62.34,1.31.48,2.03.55-1.32-.86-2.1-1.98-2.23-3.67-.06-.73-.05-1.47-.03-2.2-.01-.29-.02-.59-.02-.88-.03-3.55-.87-8.11-4.05-8.63-1.96.07-.65,4.51-.54,5.62.19,1.93.11,3.58-.04,5.52-.13,1.76-.45,3.58-1.05,5.23-.2.54-.46,1.03-.74,1.51-.34,1.03-.84,2-1.38,2.94-.55,1.46-.93,2.96-1.15,4.5-.08.56-.25,1.16-.36,1.75.08-1.88.37-3.69.8-5.5-.84,1.99-1.48,3.94-1.47,6.18,0,1.11.08,2.23.3,3.3.22.64.49,1.25.81,1.86-.13-.55-.24-1.09-.29-1.6-.07-.63-.12-1.26-.14-1.87h0c.06.03.11.03.16.01.05,1.91.54,3.89,1.49,5.5.93,1.05,1.98,1.99,3.28,2.52,2.62.68,5.24.6,7.94.42,1.73-.12,3.44-.29,5.13-.57.74-.27,1.45-.58,2.1-.98.47-.98.32-2.14.34-3.35.02-1.08.27-2.25.01-3.31-.12-.48-.33-1.11-.21-1.62.23-.97,1-1.22.86-2.42-.16-1.36-.76-2.95-.11-4.22.13-.26.33-.47.55-.67.03,0,.05-.01.08-.01-.46,2.23.99,4.49.05,6.7-.2.48-.55.97-.55,1.51,0,.65.27,1.02.53,1.6.31.7-.45,1.82-.53,2.57-.04.3.03.62.11.93,0,.67.01,1.33-.22,1.98.9-.63,1.41-1.62,1.35-2.75-.02-.31-.1-.71,0-1.01.15-.4.38-.6.66-.87.26-.34.57-.74.82-1.15.29-.72.25-1.5-.11-2.24-.55.02-1.04.44-1.6.24,0,0,0,0,0,0,.09-.05.17-.1.26-.15,0-.09.04-.2.14-.25Z"/>
              <path class="cls-21" d="m48.85,52.75c-.11.21-.23.4-.36.58.51-.67.81-1.48.71-2.29-.06.57-.07,1.16-.35,1.71Z"/>
            </g>
            <g class="cls-5">
              <path class="cls-14" d="m52.44,42.85c.04-.83-.09-1.48-.39-2.25-.12-.31-.2-.64-.26-.97,1.62-6.01-5.62-6.02-11.82-5.96-.16,0-.72-1.06-.82-1.23-1.77-2.87-1.73-6.16-1.91-9.41-.16-2.81-1.38-3.54-2.61-5.04-.52-.4-1.45-.83-2.3-.93-.66-.03-1.3.15-1.7.77-.24.38-.42.81-.54,1.27-.24,3.1.44,6.3.18,9.41,0,.75-.03,1.49-.09,2.24-.1.62-.22,1.23-.33,1.85-.48,1.16-.95,2.33-1.33,3.51-.01.04-.02.09-.04.13-.21-.73-.55-1.19-1.56-1.38-1.25-.23-2.6.49-3.55,1.21-2.46,1.88-2.94,6.53-3.13,9.33-.22,3.22.46,7.84,2.62,10.38,1.33,1.56,4.89,1.66,6.15-.07.71.99,1.81,1.41,2.95,1.69,1.14.22,2.41.21,3.55.27,1.45.08,2.91.12,4.36.07,2.16-.07,4.27-.51,6.36-1.03,1.9-.7,3.57-1.84,4.1-3.61.18-.6.24-1.2.25-1.81.54-.92,1.18-1.93,1.43-2.89.13-.5.31-1.15.12-1.66-.25-.69-.36-1.29-.31-1.92.33-.62.58-1.28.62-1.99Zm-1.58,3.5s.02-.03.03-.04c0,.03.01.05.02.08.03.02.05.04.08.07.36.2.44.86.4,1.19-.14,1.19-.91,2.36-1.83,3.17.64,1.42-.18,3-1.38,3.89-.09.07-.19.07-.25.02-.3.2-.51.55-.87.67-.72.42-1.7.77-2.54.99-1.37.37-4.55.59-4.82.63-.67-.04-1.61-.17-2.27-.14-3.03.14-3.93-.09-5.82-.61-2.08-.45-3.53-2.51-4.11-4.5-.03-.04-.06-.08-.09-.13,0,.01,0,.03.01.04-.42-.5-.79-1-1.08-1.69-.52-1.23-.55-2.51-.56-3.82,0-.49,0-1.04.04-1.6.03-.38.07-.76.11-1.13.19-1.46.58-2.93,1.39-3.98.05-.04.11-.08.16-.12.12-.2.3-.38.48-.53-.02.06-.03.12-.04.18.09-.15.19-.3.28-.45.4-.7.78-1.42,1.21-2.09.65-1.78,1.22-3.55,1.6-5.4.09-.53.13-1.07.15-1.61.25-1.45.32-2.93.16-4.35-.09-.83-.68-4.18-.47-6.54.44-.64,1.38-.61,2.33-.28,1.08.38,1.8,1.27,2.3,2.25.74,1.46,1.04,2.72,1.2,4.11,0,1.52-.06,3.03.14,4.54.13.99.4,1.87.77,2.69v.02s.01,0,.01,0c.07.15.15.28.22.42.11.17.22.35.34.5.51.62,1.16,1.06,1.83,1.47.04,0,.07,0,.11-.01,2.11-.16,4.48-.04,6.49.42,1.21.27,2.91.78,3.61,1.94.65.75.61,1.82.63,2.82.02.02.04.06.04.11,0,.1-.01.18-.02.27,0,0,0,.01,0,.02,0,.03,0,.05.02.07-.01.04-.03.08-.05.11-.09.39-.31.7-.61,1,.26.04.5.11.72.21h0s0,0,0,0c.01,0,.03.01.04.02.07.03.13.07.17.11.26.2.41.5.38.95-.08,1.01-.38,2.03-.95,2.87-.04.06-.06.13-.1.19-.3.47-.67.76-1.1,1.03.49-.14,1.11-.28,1.47-.08Z"/>
              <path class="cls-9" d="m49.42,46.15c.92-.52,1.31-1.81,1.57-2.77.26-.97.43-1.8-.46-2.29-.11-.03-.23-.07-.35-.1-.15-.04-.12-.24-.05-.34.64-.93.66-2.7,0-3.63-.34-.49-.78-.88-1.24-1.25-.53-.22-1.06-.43-1.62-.56-.82-.19-1.62-.31-2.44-.38-1.11-.25-2.29-.28-3.44-.32-1.69.24-3.61-.42-5.02-1.29-.06-.03.02-.14.07-.11.62.34,1.31.48,2.03.55-1.32-.86-2.1-1.98-2.23-3.67-.06-.73-.05-1.47-.03-2.2-.01-.29-.02-.59-.02-.88-.03-3.55-.87-8.11-4.05-8.63-1.96.07-.65,4.51-.54,5.62.19,1.93.11,3.58-.04,5.52-.13,1.76-.45,3.58-1.05,5.23-.2.54-.46,1.03-.74,1.51-.34,1.03-.84,2-1.38,2.94-.55,1.46-.93,2.96-1.15,4.5-.08.56-.25,1.16-.36,1.75.08-1.88.37-3.69.8-5.5-.84,1.99-1.48,3.94-1.47,6.18,0,1.11.08,2.23.3,3.3.22.64.49,1.25.81,1.86-.13-.55-.24-1.09-.29-1.6-.07-.63-.12-1.26-.14-1.87h0c.06.03.11.03.16.01.05,1.91.54,3.89,1.49,5.5.93,1.05,1.98,1.99,3.28,2.52,2.62.68,5.24.6,7.94.42,1.73-.12,3.44-.29,5.13-.57.74-.27,1.45-.58,2.1-.98.47-.98.32-2.14.34-3.35.02-1.08.27-2.25.01-3.31-.12-.48-.33-1.11-.21-1.62.23-.97,1-1.22.86-2.42-.16-1.36-.76-2.95-.11-4.22.13-.26.33-.47.55-.67.03,0,.05-.01.08-.01-.46,2.23.99,4.49.05,6.7-.2.48-.55.97-.55,1.51,0,.65.27,1.02.53,1.6.31.7-.45,1.82-.53,2.57-.04.3.03.62.11.93,0,.67.01,1.33-.22,1.98.9-.63,1.41-1.62,1.35-2.75-.02-.31-.1-.71,0-1.01.15-.4.38-.6.66-.87.26-.34.57-.74.82-1.15.29-.72.25-1.5-.11-2.24-.55.02-1.04.44-1.6.24,0,0,0,0,0,0,.09-.05.17-.1.26-.15,0-.09.04-.2.14-.25Z"/>
              <path class="cls-16" d="m49.41,53.25c-.11.21-.23.4-.36.58.51-.67.81-1.48.71-2.29-.06.57-.07,1.16-.35,1.71Z"/>
            </g>
            <g class="cls-5">
              <path class="cls-22" d="m53,43.35c.04-.83-.09-1.48-.39-2.25-.12-.31-.2-.64-.26-.97,1.62-6.01-5.62-6.02-11.82-5.96-.16,0-.72-1.06-.82-1.23-1.77-2.87-1.73-6.16-1.91-9.41-.16-2.81-1.38-3.54-2.61-5.04-.52-.4-1.45-.83-2.3-.93-.66-.03-1.3.15-1.7.77-.24.38-.42.81-.54,1.27-.24,3.1.44,6.3.18,9.41,0,.75-.03,1.49-.09,2.24-.1.62-.22,1.23-.33,1.85-.48,1.16-.95,2.33-1.33,3.51-.01.04-.02.09-.04.13-.21-.73-.55-1.19-1.56-1.38-1.25-.23-2.6.49-3.55,1.21-2.46,1.88-2.94,6.53-3.13,9.33-.22,3.22.46,7.84,2.62,10.38,1.33,1.56,4.89,1.66,6.15-.07.71.99,1.81,1.41,2.95,1.69,1.14.22,2.41.21,3.55.27,1.45.08,2.91.12,4.36.07,2.16-.07,4.27-.51,6.36-1.03,1.9-.7,3.57-1.84,4.1-3.61.18-.6.24-1.2.25-1.81.54-.92,1.18-1.93,1.43-2.89.13-.5.31-1.15.12-1.66-.25-.69-.36-1.29-.31-1.92.33-.62.58-1.28.62-1.99Zm-1.58,3.5s.02-.03.03-.04c0,.03.01.05.02.08.03.02.05.04.08.07.36.2.44.86.4,1.19-.14,1.19-.91,2.36-1.83,3.17.64,1.42-.18,3-1.38,3.89-.09.07-.19.07-.25.02-.3.2-.51.55-.87.67-.72.42-1.7.77-2.54.99-1.37.37-4.55.59-4.82.63-.67-.04-1.61-.17-2.27-.14-3.03.14-3.93-.09-5.82-.61-2.08-.45-3.53-2.51-4.11-4.5-.03-.04-.06-.08-.09-.13,0,.01,0,.03.01.04-.42-.5-.79-1-1.08-1.69-.52-1.23-.55-2.51-.56-3.82,0-.49,0-1.04.04-1.6.03-.38.07-.76.11-1.13.19-1.46.58-2.93,1.39-3.98.05-.04.11-.08.16-.12.12-.2.3-.38.48-.53-.02.06-.03.12-.04.18.09-.15.19-.3.28-.45.4-.7.78-1.42,1.21-2.09.65-1.78,1.22-3.55,1.6-5.4.09-.53.13-1.07.15-1.61.25-1.45.32-2.93.16-4.35-.09-.83-.68-4.18-.47-6.54.44-.64,1.38-.61,2.33-.28,1.08.38,1.8,1.27,2.3,2.25.74,1.46,1.04,2.72,1.2,4.11,0,1.52-.06,3.03.14,4.54.13.99.4,1.87.77,2.69v.02s.01,0,.01,0c.07.15.15.28.22.42.11.17.22.35.34.5.51.62,1.16,1.06,1.83,1.47.04,0,.07,0,.11-.01,2.11-.16,4.48-.04,6.49.42,1.21.27,2.91.78,3.61,1.94.65.75.61,1.82.63,2.82.02.02.04.06.04.11,0,.1-.01.18-.02.27,0,0,0,.01,0,.02,0,.03,0,.05.02.07-.01.04-.03.08-.05.11-.09.39-.31.7-.61,1,.26.04.5.11.72.21h0s0,0,0,0c.01,0,.03.01.04.02.07.03.13.07.17.11.26.2.42.5.38.95-.08,1.01-.38,2.03-.95,2.87-.04.06-.06.13-.1.19-.3.47-.67.76-1.1,1.03.49-.14,1.11-.28,1.47-.08Z"/>
              <path class="cls-17" d="m49.99,46.65c.92-.52,1.31-1.81,1.57-2.77.26-.97.43-1.8-.46-2.29-.11-.03-.23-.07-.35-.1-.15-.04-.12-.24-.05-.34.64-.93.66-2.7,0-3.63-.34-.49-.78-.88-1.24-1.25-.53-.22-1.06-.43-1.62-.56-.82-.19-1.62-.31-2.44-.38-1.11-.25-2.29-.28-3.44-.32-1.69.24-3.61-.42-5.02-1.29-.06-.03.02-.14.07-.11.62.34,1.31.48,2.03.55-1.32-.86-2.1-1.98-2.23-3.67-.06-.73-.05-1.47-.03-2.2-.01-.29-.02-.59-.02-.88-.03-3.55-.87-8.11-4.05-8.63-1.96.07-.65,4.51-.54,5.62.19,1.93.11,3.58-.04,5.52-.13,1.76-.45,3.58-1.05,5.23-.2.54-.46,1.03-.74,1.51-.34,1.03-.84,2-1.38,2.94-.55,1.46-.93,2.96-1.15,4.5-.08.56-.25,1.16-.36,1.75.08-1.88.37-3.69.8-5.5-.84,1.99-1.48,3.94-1.47,6.18,0,1.11.08,2.23.3,3.3.22.64.49,1.25.81,1.86-.13-.55-.24-1.09-.29-1.6-.07-.63-.12-1.26-.14-1.87h0c.06.03.11.03.16.01.05,1.91.54,3.89,1.49,5.5.93,1.05,1.98,1.99,3.28,2.52,2.62.68,5.24.6,7.94.42,1.73-.12,3.44-.29,5.13-.57.74-.27,1.45-.58,2.1-.98.47-.98.32-2.14.34-3.35.02-1.08.27-2.25.01-3.31-.12-.48-.33-1.11-.21-1.62.23-.97,1-1.22.86-2.42-.16-1.36-.76-2.95-.11-4.22.13-.26.33-.47.55-.67.03,0,.05-.01.08-.01-.46,2.23.99,4.49.05,6.7-.2.48-.55.97-.55,1.51,0,.65.27,1.02.53,1.6.31.7-.45,1.82-.53,2.57-.04.3.03.62.11.93,0,.67.01,1.33-.22,1.98.9-.63,1.41-1.62,1.35-2.75-.02-.31-.1-.71,0-1.01.15-.4.38-.6.66-.87.26-.34.57-.74.82-1.15.29-.72.25-1.5-.11-2.24-.55.02-1.04.44-1.6.24,0,0,0,0,0,0,.09-.05.17-.1.26-.15,0-.09.04-.2.14-.25Z"/>
              <path class="cls-13" d="m49.97,53.75c-.11.21-.23.4-.36.58.51-.67.81-1.48.71-2.29-.06.57-.07,1.16-.35,1.71Z"/>
            </g>
            <g class="cls-5">
              <path class="cls-12" d="m53.57,43.85c.04-.83-.09-1.48-.39-2.25-.12-.31-.2-.64-.26-.97,1.62-6.01-5.62-6.02-11.82-5.96-.16,0-.72-1.06-.82-1.23-1.77-2.87-1.73-6.16-1.91-9.41-.16-2.81-1.38-3.54-2.61-5.04-.52-.4-1.45-.83-2.3-.93-.66-.03-1.3.15-1.7.77-.24.38-.42.81-.54,1.27-.24,3.1.44,6.3.18,9.41,0,.75-.03,1.49-.09,2.24-.1.62-.22,1.23-.33,1.85-.48,1.16-.95,2.33-1.33,3.51-.01.04-.02.09-.04.13-.21-.73-.55-1.19-1.56-1.38-1.25-.23-2.6.49-3.55,1.21-2.46,1.88-2.94,6.53-3.13,9.33-.22,3.22.46,7.84,2.62,10.38,1.33,1.56,4.89,1.66,6.15-.07.71.99,1.81,1.41,2.95,1.69,1.14.22,2.41.21,3.55.27,1.45.08,2.91.12,4.36.07,2.16-.07,4.27-.51,6.36-1.03,1.9-.7,3.57-1.84,4.1-3.61.18-.6.24-1.2.25-1.81.54-.92,1.18-1.93,1.43-2.89.13-.5.31-1.15.12-1.66-.25-.69-.36-1.29-.31-1.92.33-.62.58-1.28.62-1.99Zm-1.58,3.5s.02-.03.03-.04c0,.03.01.05.02.08.03.02.05.04.08.07.36.2.44.86.4,1.19-.14,1.19-.91,2.36-1.83,3.17.64,1.42-.18,3-1.38,3.89-.09.07-.19.07-.25.02-.3.2-.51.55-.87.67-.72.42-1.7.77-2.54.99-1.37.37-4.55.59-4.82.63-.67-.04-1.61-.17-2.27-.14-3.03.14-3.93-.09-5.82-.61-2.08-.45-3.53-2.51-4.11-4.5-.03-.04-.06-.08-.09-.13,0,.01,0,.03.01.04-.42-.5-.79-1-1.08-1.69-.52-1.23-.55-2.51-.56-3.82,0-.49,0-1.04.04-1.6.03-.38.07-.76.11-1.13.19-1.46.58-2.93,1.39-3.98.05-.04.11-.08.16-.12.12-.2.3-.38.48-.53-.02.06-.03.12-.04.18.09-.15.19-.3.28-.45.4-.7.78-1.42,1.21-2.09.65-1.78,1.22-3.55,1.6-5.4.09-.53.13-1.07.15-1.61.25-1.45.32-2.93.16-4.35-.09-.83-.68-4.18-.47-6.54.44-.64,1.38-.61,2.33-.28,1.08.38,1.8,1.27,2.3,2.25.74,1.46,1.04,2.72,1.2,4.11,0,1.52-.06,3.03.14,4.54.13.99.4,1.87.77,2.69v.02s.01,0,.01,0c.07.15.15.28.22.42.11.17.22.35.34.5.51.62,1.16,1.06,1.83,1.47.04,0,.07,0,.11-.01,2.11-.16,4.48-.04,6.49.42,1.21.27,2.91.78,3.61,1.94.65.75.61,1.82.63,2.82.02.02.04.06.04.11,0,.1-.01.18-.02.27,0,0,0,.01,0,.02,0,.03,0,.05.02.07-.01.04-.03.08-.05.11-.09.39-.31.7-.61,1,.26.04.5.11.72.21h0s0,0,0,0c.01,0,.03.01.04.02.07.03.13.07.17.11.26.2.41.5.38.95-.08,1.01-.38,2.03-.95,2.87-.04.06-.06.13-.1.19-.3.47-.67.76-1.1,1.03.49-.14,1.11-.28,1.47-.08Z"/>
              <path class="cls-23" d="m50.55,47.15c.92-.52,1.31-1.81,1.57-2.77.26-.97.43-1.8-.46-2.29-.11-.03-.23-.07-.35-.1-.15-.04-.12-.24-.05-.34.64-.93.66-2.7,0-3.63-.34-.49-.78-.88-1.24-1.25-.53-.22-1.06-.43-1.62-.56-.82-.19-1.62-.31-2.44-.38-1.11-.25-2.29-.28-3.44-.32-1.69.24-3.61-.42-5.02-1.29-.06-.03.02-.14.07-.11.62.34,1.31.48,2.03.55-1.32-.86-2.1-1.98-2.23-3.67-.06-.73-.05-1.47-.03-2.2-.01-.29-.02-.59-.02-.88-.03-3.55-.87-8.11-4.05-8.63-1.96.07-.65,4.51-.54,5.62.19,1.93.11,3.58-.04,5.52-.13,1.76-.45,3.58-1.05,5.23-.2.54-.46,1.03-.74,1.51-.34,1.03-.84,2-1.38,2.94-.55,1.46-.93,2.96-1.15,4.5-.08.56-.25,1.16-.36,1.75.08-1.88.37-3.69.8-5.5-.84,1.99-1.48,3.94-1.47,6.18,0,1.11.08,2.23.3,3.3.22.64.49,1.25.81,1.86-.13-.55-.24-1.09-.29-1.6-.07-.63-.12-1.26-.14-1.87h0c.06.03.11.03.16.01.05,1.91.54,3.89,1.49,5.5.93,1.05,1.98,1.99,3.28,2.52,2.62.68,5.24.6,7.94.42,1.73-.12,3.44-.29,5.13-.57.74-.27,1.45-.58,2.1-.98.47-.98.32-2.14.34-3.35.02-1.08.27-2.25.01-3.31-.12-.48-.33-1.11-.21-1.62.23-.97,1-1.22.86-2.42-.16-1.36-.76-2.95-.11-4.22.13-.26.33-.47.55-.67.03,0,.05-.01.08-.01-.46,2.23.99,4.49.05,6.7-.2.48-.55.97-.55,1.51,0,.65.27,1.02.53,1.6.31.7-.45,1.82-.53,2.57-.04.3.03.62.11.93,0,.67.01,1.33-.22,1.98.9-.63,1.41-1.62,1.35-2.75-.02-.31-.1-.71,0-1.01.15-.4.38-.6.66-.87.26-.34.57-.74.82-1.15.29-.72.25-1.5-.11-2.24-.55.02-1.04.44-1.6.24,0,0,0,0,0,0,.09-.05.17-.1.26-.15,0-.09.04-.2.14-.25Z"/>
              <path class="cls-24" d="m50.53,54.25c-.11.21-.23.4-.36.58.51-.67.81-1.48.71-2.29-.06.57-.07,1.16-.35,1.71Z"/>
            </g>
            <g>
              <path class="cls-2" d="m51.32,41.85c.04-.83-.09-1.48-.39-2.25-.12-.31-.2-.64-.26-.97,1.62-6.01-5.62-6.02-11.82-5.96-.16,0-.72-1.06-.82-1.23-1.77-2.87-1.73-6.16-1.91-9.41-.16-2.81-1.38-3.54-2.61-5.04-.52-.4-1.45-.83-2.3-.93-.66-.03-1.3.15-1.7.77-.24.38-.42.81-.54,1.27-.24,3.1.44,6.3.18,9.41,0,.75-.03,1.49-.09,2.24-.1.62-.22,1.23-.33,1.85-.48,1.16-.95,2.33-1.33,3.51-.01.04-.02.09-.04.13-.21-.73-.55-1.19-1.56-1.38-1.25-.23-2.6.49-3.55,1.21-2.46,1.88-2.94,6.53-3.13,9.33-.22,3.22.46,7.84,2.62,10.38,1.33,1.56,4.89,1.66,6.15-.07.71.99,1.81,1.41,2.95,1.69,1.14.22,2.41.21,3.55.27,1.45.08,2.91.12,4.36.07,2.16-.07,4.27-.51,6.36-1.03,1.9-.7,3.57-1.84,4.1-3.61.18-.6.24-1.2.25-1.81.54-.92,1.18-1.93,1.43-2.89.13-.5.31-1.15.12-1.66-.25-.69-.36-1.29-.31-1.92.33-.62.58-1.28.62-1.99Zm-1.58,3.5s.02-.03.03-.04c0,.03.01.05.02.08.03.02.05.04.08.07.36.2.44.86.4,1.19-.14,1.19-.91,2.36-1.83,3.17.64,1.42-.18,3-1.38,3.89-.09.07-.19.07-.25.02-.3.2-.51.55-.87.67-.72.42-1.7.77-2.54.99-1.37.37-4.55.59-4.82.63-.67-.04-1.61-.17-2.27-.14-3.03.14-3.93-.09-5.82-.61-2.08-.45-3.53-2.51-4.11-4.5-.03-.04-.06-.08-.09-.13,0,.01,0,.03.01.04-.42-.5-.79-1-1.08-1.69-.52-1.23-.55-2.51-.56-3.82,0-.49,0-1.04.04-1.6.03-.38.07-.76.11-1.13.19-1.46.58-2.93,1.39-3.98.05-.04.11-.08.16-.12.12-.2.3-.38.48-.53-.02.06-.03.12-.04.18.09-.15.19-.3.28-.45.4-.7.78-1.42,1.21-2.09.65-1.78,1.22-3.55,1.6-5.4.09-.53.13-1.07.15-1.61.25-1.45.32-2.93.16-4.35-.09-.83-.68-4.18-.47-6.54.44-.64,1.38-.61,2.33-.28,1.08.38,1.8,1.27,2.3,2.25.74,1.46,1.04,2.72,1.2,4.11,0,1.52-.06,3.03.14,4.54.13.99.4,1.87.77,2.69v.02s.01,0,.01,0c.07.15.15.28.22.42.11.17.22.35.34.5.51.62,1.16,1.06,1.83,1.47.04,0,.07,0,.11-.01,2.11-.16,4.48-.04,6.49.42,1.21.27,2.91.78,3.61,1.94.65.75.61,1.82.63,2.82.02.02.04.06.04.11,0,.1-.01.18-.02.27,0,0,0,.01,0,.02,0,.03,0,.05.02.07-.01.04-.03.08-.05.11-.09.39-.31.7-.61,1,.26.04.5.11.72.21h0s0,0,0,0c.01,0,.03.01.04.02.07.03.13.07.17.11.26.2.41.5.38.95-.08,1.01-.38,2.03-.95,2.87-.04.06-.06.13-.1.19-.3.47-.67.76-1.1,1.03.49-.14,1.11-.28,1.47-.08Z"/>
              <path class="cls-2" d="m48.3,45.15c.92-.52,1.31-1.81,1.57-2.77.26-.97.43-1.8-.46-2.29-.11-.03-.23-.07-.35-.1-.15-.04-.12-.24-.05-.34.64-.93.66-2.7,0-3.63-.34-.49-.78-.88-1.24-1.25-.53-.22-1.06-.43-1.62-.56-.82-.19-1.62-.31-2.44-.38-1.11-.25-2.29-.28-3.44-.32-1.69.24-3.61-.42-5.02-1.29-.06-.03.02-.14.07-.11.62.34,1.31.48,2.03.55-1.32-.86-2.1-1.98-2.23-3.67-.06-.73-.05-1.47-.03-2.2-.01-.29-.02-.59-.02-.88-.03-3.55-.87-8.11-4.05-8.63-1.96.07-.65,4.51-.54,5.62.19,1.93.11,3.58-.04,5.52-.13,1.76-.45,3.58-1.05,5.23-.2.54-.46,1.03-.74,1.51-.34,1.03-.84,2-1.38,2.94-.55,1.46-.93,2.96-1.15,4.5-.08.56-.25,1.16-.36,1.75.08-1.88.37-3.69.8-5.5-.84,1.99-1.48,3.94-1.47,6.18,0,1.11.08,2.23.3,3.3.22.64.49,1.25.81,1.86-.13-.55-.24-1.09-.29-1.6-.07-.63-.12-1.26-.14-1.87h0c.06.03.11.03.16.01.05,1.91.54,3.89,1.49,5.5.93,1.05,1.98,1.99,3.28,2.52,2.62.68,5.24.6,7.94.42,1.73-.12,3.44-.29,5.13-.57.74-.27,1.45-.58,2.1-.98.47-.98.32-2.14.34-3.35.02-1.08.27-2.25.01-3.31-.12-.48-.33-1.11-.21-1.62.23-.97,1-1.22.86-2.42-.16-1.36-.76-2.95-.11-4.22.13-.26.33-.47.55-.67.03,0,.05-.01.08-.01-.46,2.23.99,4.49.05,6.7-.2.48-.55.97-.55,1.51,0,.65.27,1.02.53,1.6.31.7-.45,1.82-.53,2.57-.04.3.03.62.11.93,0,.67.01,1.33-.22,1.98.9-.63,1.41-1.62,1.35-2.75-.02-.31-.1-.71,0-1.01.15-.4.38-.6.66-.87.26-.34.57-.74.82-1.15.29-.72.25-1.5-.11-2.24-.55.02-1.04.44-1.6.24,0,0,0,0,0,0,.09-.05.17-.1.26-.15,0-.09.04-.2.14-.25Z"/>
              <path class="cls-15" d="m48.28,52.25c-.11.21-.23.4-.36.58.51-.67.81-1.48.71-2.29-.06.57-.07,1.16-.35,1.71Z"/>
            </g>
          </g>
        </g>
      </g>
    </g>
  </g>
</svg>